STARTFONT 2.3
FONT -FontForge-Roboto Condensed-Book-R-Condensed---8-80-72-72-P-39-ISO10646-1
SIZE 8 72 72  4
FONTBOUNDINGBOX 14 11 -6 -2
COMMENT "Generated by fontforge, http://fontforge.sourceforge.net"
COMMENT "Copyright 2011 Google Inc. All Rights Reserved."
STARTPROPERTIES 42
FOUNDRY "FontForge"
FAMILY_NAME "Roboto Condensed"
WEIGHT_NAME "Book"
SLANT "R"
SETWIDTH_NAME "Condensed"
ADD_STYLE_NAME ""
PIXEL_SIZE 8
POINT_SIZE 80
RESOLUTION_X 72
RESOLUTION_Y 72
SPACING "P"
AVERAGE_WIDTH 39
CHARSET_REGISTRY "ISO10646"
CHARSET_ENCODING "1"
FONTNAME_REGISTRY ""
CHARSET_COLLECTIONS "ISO8859-2 ISO8859-5 ISO8859-7 ISO8859-9 ISO8859-4 ISO10646-1"
BITS_PER_PIXEL 4
FONT_NAME "RobotoCondensed-Regular"
FACE_NAME "Roboto Condensed"
COPYRIGHT "Copyright 2011 Google Inc. All Rights Reserved."
FONT_VERSION "2.137; 2017"
FONT_ASCENT 6
FONT_DESCENT 2
UNDERLINE_POSITION -1
UNDERLINE_THICKNESS 1
X_HEIGHT 4
CAP_HEIGHT 5
DEFAULT_CHAR 1
RAW_ASCENT 750
RAW_DESCENT 250
NORM_SPACE 2
RELATIVE_WEIGHT 40
RELATIVE_SETWIDTH 50
SUPERSCRIPT_X 0
SUPERSCRIPT_Y 3
SUPERSCRIPT_SIZE 5
SUBSCRIPT_X 0
SUBSCRIPT_Y 1
SUBSCRIPT_SIZE 5
FIGURE_WIDTH 4
AVG_LOWERCASE_WIDTH 39
AVG_UPPERCASE_WIDTH 46
ENDPROPERTIES
CHARS 1296
STARTCHAR uni0000
ENCODING 0
SWIDTH 0 0
DWIDTH 0 0
BBX 1 1 0 0
BITMAP
00
ENDCHAR
STARTCHAR uni0002
ENCODING 2
SWIDTH 0 0
DWIDTH 0 0
BBX 1 1 0 0
BITMAP
00
ENDCHAR
STARTCHAR uni000D
ENCODING 13
SWIDTH 229 0
DWIDTH 2 0
BBX 1 1 0 0
BITMAP
00
ENDCHAR
STARTCHAR space
ENCODING 32
SWIDTH 229 0
DWIDTH 2 0
BBX 1 1 0 0
BITMAP
00
ENDCHAR
STARTCHAR exclam
ENCODING 33
SWIDTH 245 0
DWIDTH 2 0
BBX 2 6 0 0
BITMAP
44
55
55
55
22
44
ENDCHAR
STARTCHAR quotedbl
ENCODING 34
SWIDTH 319 0
DWIDTH 3 0
BBX 3 2 0 4
BITMAP
7720
6610
ENDCHAR
STARTCHAR numbersign
ENCODING 35
SWIDTH 547 0
DWIDTH 4 0
BBX 5 6 0 0
BITMAP
014500
045800
2B9A10
195600
3BA600
088000
ENDCHAR
STARTCHAR dollar
ENCODING 36
SWIDTH 493 0
DWIDTH 4 0
BBX 4 8 0 -1
BITMAP
0230
1AA1
5656
3A10
04B3
5247
3BB3
0430
ENDCHAR
STARTCHAR percent
ENCODING 37
SWIDTH 632 0
DWIDTH 5 0
BBX 5 6 0 0
BITMAP
382000
826700
497300
008730
066480
032970
ENDCHAR
STARTCHAR ampersand
ENCODING 38
SWIDTH 543 0
DWIDTH 4 0
BBX 5 6 0 0
BITMAP
098000
388200
1B9000
3A8600
828B00
4AAB10
ENDCHAR
STARTCHAR quotesingle
ENCODING 39
SWIDTH 174 0
DWIDTH 1 0
BBX 1 2 0 4
BITMAP
90
70
ENDCHAR
STARTCHAR parenleft
ENCODING 40
SWIDTH 313 0
DWIDTH 3 0
BBX 3 9 0 -2
BITMAP
0010
0710
2700
6400
7300
6400
3600
0800
0320
ENDCHAR
STARTCHAR parenright
ENCODING 41
SWIDTH 318 0
DWIDTH 3 0
BBX 2 9 0 -2
BITMAP
20
62
18
0A
0A
0A
09
35
50
ENDCHAR
STARTCHAR asterisk
ENCODING 42
SWIDTH 430 0
DWIDTH 3 0
BBX 4 4 0 2
BITMAP
0600
7B82
1C70
3250
ENDCHAR
STARTCHAR plus
ENCODING 43
SWIDTH 496 0
DWIDTH 4 0
BBX 4 5 0 0
BITMAP
0440
0650
6BB6
0550
0220
ENDCHAR
STARTCHAR comma
ENCODING 44
SWIDTH 196 0
DWIDTH 2 0
BBX 2 2 0 -1
BITMAP
72
90
ENDCHAR
STARTCHAR hyphen
ENCODING 45
SWIDTH 248 0
DWIDTH 2 0
BBX 2 1 0 2
BITMAP
77
ENDCHAR
STARTCHAR period
ENCODING 46
SWIDTH 263 0
DWIDTH 2 0
BBX 2 1 0 0
BITMAP
44
ENDCHAR
STARTCHAR slash
ENCODING 47
SWIDTH 370 0
DWIDTH 3 0
BBX 3 7 0 -1
BITMAP
0060
0450
0810
0900
3500
8100
4000
ENDCHAR
STARTCHAR zero
ENCODING 48
SWIDTH 493 0
DWIDTH 4 0
BBX 4 6 0 0
BITMAP
1980
6455
8237
8237
7346
2AA1
ENDCHAR
STARTCHAR one
ENCODING 49
SWIDTH 493 0
DWIDTH 4 0
BBX 3 6 0 0
BITMAP
0550
4780
0380
0380
0380
0380
ENDCHAR
STARTCHAR two
ENCODING 50
SWIDTH 493 0
DWIDTH 4 0
BBX 4 6 0 0
BITMAP
1991
8365
0073
0290
0A10
7C96
ENDCHAR
STARTCHAR three
ENCODING 51
SWIDTH 493 0
DWIDTH 4 0
BBX 4 6 0 0
BITMAP
1990
6364
02A2
04A2
4156
4AB2
ENDCHAR
STARTCHAR four
ENCODING 52
SWIDTH 493 0
DWIDTH 4 0
BBX 4 6 0 0
BITMAP
0091
04E1
0A91
5591
79D7
0091
ENDCHAR
STARTCHAR five
ENCODING 53
SWIDTH 493 0
DWIDTH 4 0
BBX 4 6 0 0
BITMAP
0AA5
2800
3B91
1257
3228
2BA3
ENDCHAR
STARTCHAR six
ENCODING 54
SWIDTH 493 0
DWIDTH 4 0
BBX 4 6 0 0
BITMAP
0480
2A00
6A91
7557
6538
1AA2
ENDCHAR
STARTCHAR seven
ENCODING 55
SWIDTH 493 0
DWIDTH 4 0
BBX 4 6 0 0
BITMAP
6996
0055
00A0
0280
0830
0B00
ENDCHAR
STARTCHAR eight
ENCODING 56
SWIDTH 493 0
DWIDTH 4 0
BBX 4 6 0 0
BITMAP
1990
6565
3892
3992
8347
3AA3
ENDCHAR
STARTCHAR nine
ENCODING 57
SWIDTH 493 0
DWIDTH 4 0
BBX 4 6 0 0
BITMAP
1980
7474
8256
4AB6
0073
0880
ENDCHAR
STARTCHAR colon
ENCODING 58
SWIDTH 233 0
DWIDTH 2 0
BBX 2 5 0 0
BITMAP
11
33
00
00
44
ENDCHAR
STARTCHAR semicolon
ENCODING 59
SWIDTH 202 0
DWIDTH 2 0
BBX 2 6 0 -1
BITMAP
11
42
00
00
63
91
ENDCHAR
STARTCHAR less
ENCODING 60
SWIDTH 445 0
DWIDTH 4 0
BBX 3 5 0 0
BITMAP
0010
07A0
9700
06A0
0010
ENDCHAR
STARTCHAR equal
ENCODING 61
SWIDTH 479 0
DWIDTH 4 0
BBX 4 3 0 1
BITMAP
4993
1331
3772
ENDCHAR
STARTCHAR greater
ENCODING 62
SWIDTH 459 0
DWIDTH 4 0
BBX 4 5 0 0
BITMAP
1000
4A40
01C4
4A30
1000
ENDCHAR
STARTCHAR question
ENCODING 63
SWIDTH 421 0
DWIDTH 3 0
BBX 3 6 0 0
BITMAP
3A70
61B0
01A0
0830
0400
0700
ENDCHAR
STARTCHAR at
ENCODING 64
SWIDTH 769 0
DWIDTH 6 0
BBX 6 8 0 -2
BITMAP
006830
082073
455927
728537
827727
62B985
280000
038710
ENDCHAR
STARTCHAR A
ENCODING 65
SWIDTH 576 0
DWIDTH 5 0
BBX 5 6 0 0
BITMAP
017000
06C100
0A5500
1A3900
5A8C00
A10740
ENDCHAR
STARTCHAR B
ENCODING 66
SWIDTH 545 0
DWIDTH 4 0
BBX 4 6 0 0
BITMAP
4A93
651B
6868
6868
650B
6BA7
ENDCHAR
STARTCHAR C
ENCODING 67
SWIDTH 566 0
DWIDTH 5 0
BBX 5 6 0 0
BITMAP
079500
470A10
730100
830000
650810
1A9900
ENDCHAR
STARTCHAR D
ENCODING 68
SWIDTH 570 0
DWIDTH 5 0
BBX 5 6 0 0
BITMAP
4A9200
651A00
650A00
650A10
650B00
6BA500
ENDCHAR
STARTCHAR E
ENCODING 69
SWIDTH 496 0
DWIDTH 4 0
BBX 4 6 0 0
BITMAP
4A96
6500
6741
6962
6500
6B96
ENDCHAR
STARTCHAR F
ENCODING 70
SWIDTH 480 0
DWIDTH 4 0
BBX 4 6 0 0
BITMAP
4A95
6500
6620
6A72
6500
6500
ENDCHAR
STARTCHAR G
ENCODING 71
SWIDTH 590 0
DWIDTH 5 0
BBX 5 6 0 0
BITMAP
089600
560B10
730000
835B20
650830
1A9A10
ENDCHAR
STARTCHAR H
ENCODING 72
SWIDTH 620 0
DWIDTH 5 0
BBX 5 6 0 0
BITMAP
430440
650650
674850
696950
650650
650650
ENDCHAR
STARTCHAR I
ENCODING 73
SWIDTH 250 0
DWIDTH 2 0
BBX 2 6 0 0
BITMAP
44
55
55
55
55
55
ENDCHAR
STARTCHAR J
ENCODING 74
SWIDTH 483 0
DWIDTH 4 0
BBX 4 6 0 0
BITMAP
0043
0064
0064
0064
6074
6AB1
ENDCHAR
STARTCHAR K
ENCODING 75
SWIDTH 544 0
DWIDTH 4 0
BBX 5 6 0 0
BITMAP
430800
658500
699000
6CB000
656600
650B10
ENDCHAR
STARTCHAR L
ENCODING 76
SWIDTH 475 0
DWIDTH 4 0
BBX 4 6 0 0
BITMAP
4300
6500
6500
6500
6500
6B95
ENDCHAR
STARTCHAR M
ENCODING 77
SWIDTH 755 0
DWIDTH 6 0
BBX 6 6 0 0
BITMAP
470064
6D00D6
6B33B6
668866
659A46
656746
ENDCHAR
STARTCHAR N
ENCODING 78
SWIDTH 619 0
DWIDTH 5 0
BBX 5 6 0 0
BITMAP
450430
6D1650
687650
659750
653D50
650A50
ENDCHAR
STARTCHAR O
ENCODING 79
SWIDTH 600 0
DWIDTH 5 0
BBX 5 6 0 0
BITMAP
07A500
470A20
730640
830650
650830
1A9900
ENDCHAR
STARTCHAR P
ENCODING 80
SWIDTH 554 0
DWIDTH 4 0
BBX 5 6 0 0
BITMAP
4A9400
650B10
650B10
6B9600
650000
650000
ENDCHAR
STARTCHAR Q
ENCODING 81
SWIDTH 600 0
DWIDTH 5 0
BBX 5 7 0 -1
BITMAP
07A500
570A10
830740
830740
650820
1B9B00
001920
ENDCHAR
STARTCHAR R
ENCODING 82
SWIDTH 530 0
DWIDTH 4 0
BBX 4 6 0 0
BITMAP
4A93
651B
651A
6BD3
6557
650B
ENDCHAR
STARTCHAR S
ENCODING 83
SWIDTH 518 0
DWIDTH 4 0
BBX 4 6 0 0
BITMAP
1992
751A
4A20
03A6
610B
3AA7
ENDCHAR
STARTCHAR T
ENCODING 84
SWIDTH 520 0
DWIDTH 4 0
BBX 4 6 0 0
BITMAP
79A9
0470
0470
0470
0470
0470
ENDCHAR
STARTCHAR U
ENCODING 85
SWIDTH 561 0
DWIDTH 5 0
BBX 4 6 0 0
BITMAP
5207
730B
730B
730B
740B
2B98
ENDCHAR
STARTCHAR V
ENCODING 86
SWIDTH 560 0
DWIDTH 4 0
BBX 5 6 0 0
BITMAP
710620
740B00
281A00
0A5500
08B100
03B000
ENDCHAR
STARTCHAR W
ENCODING 87
SWIDTH 761 0
DWIDTH 6 0
BBX 6 6 0 0
BITMAP
713507
73791A
469937
199784
0C64D1
0A30C0
ENDCHAR
STARTCHAR X
ENCODING 88
SWIDTH 550 0
DWIDTH 4 0
BBX 4 6 0 0
BITMAP
5308
2A57
08C1
06C0
1B75
750C
ENDCHAR
STARTCHAR Y
ENCODING 89
SWIDTH 524 0
DWIDTH 4 0
BBX 4 6 0 0
BITMAP
7108
5638
0A91
0790
0470
0470
ENDCHAR
STARTCHAR Z
ENCODING 90
SWIDTH 522 0
DWIDTH 4 0
BBX 4 6 0 0
BITMAP
6998
0066
01B0
0840
2A00
9B98
ENDCHAR
STARTCHAR bracketleft
ENCODING 91
SWIDTH 250 0
DWIDTH 2 0
BBX 2 9 0 -2
BITMAP
46
74
74
74
74
74
74
77
23
ENDCHAR
STARTCHAR backslash
ENCODING 92
SWIDTH 369 0
DWIDTH 3 0
BBX 3 7 0 -1
BITMAP
7000
6400
1800
0A00
0730
0280
0050
ENDCHAR
STARTCHAR bracketright
ENCODING 93
SWIDTH 250 0
DWIDTH 2 0
BBX 2 9 0 -2
BITMAP
73
56
46
46
46
46
46
76
31
ENDCHAR
STARTCHAR asciicircum
ENCODING 94
SWIDTH 371 0
DWIDTH 3 0
BBX 3 4 0 2
BITMAP
0700
2C20
8470
1010
ENDCHAR
STARTCHAR underscore
ENCODING 95
SWIDTH 404 0
DWIDTH 3 0
BBX 4 1 0 -1
BITMAP
8991
ENDCHAR
STARTCHAR grave
ENCODING 96
SWIDTH 309 0
DWIDTH 2 0
BBX 2 2 0 4
BITMAP
56
01
ENDCHAR
STARTCHAR a
ENCODING 97
SWIDTH 479 0
DWIDTH 4 0
BBX 4 5 0 0
BITMAP
0330
48A2
07B4
7564
5BB5
ENDCHAR
STARTCHAR b
ENCODING 98
SWIDTH 493 0
DWIDTH 4 0
BBX 4 6 0 0
BITMAP
7300
7530
7995
7328
7328
7AB3
ENDCHAR
STARTCHAR c
ENCODING 99
SWIDTH 461 0
DWIDTH 4 0
BBX 4 5 0 0
BITMAP
0330
58A3
9111
9212
3AB2
ENDCHAR
STARTCHAR d
ENCODING 100
SWIDTH 496 0
DWIDTH 4 0
BBX 4 6 0 0
BITMAP
0046
0356
6896
9146
9246
4AA6
ENDCHAR
STARTCHAR e
ENCODING 101
SWIDTH 468 0
DWIDTH 4 0
BBX 4 5 0 0
BITMAP
0330
5893
98A6
9311
3A92
ENDCHAR
STARTCHAR f
ENCODING 102
SWIDTH 316 0
DWIDTH 3 0
BBX 3 6 0 0
BITMAP
1B40
4A10
5A10
3800
3800
3800
ENDCHAR
STARTCHAR g
ENCODING 103
SWIDTH 492 0
DWIDTH 4 0
BBX 4 7 0 -2
BITMAP
0322
6897
9147
9247
4BA7
1165
1880
ENDCHAR
STARTCHAR h
ENCODING 104
SWIDTH 482 0
DWIDTH 4 0
BBX 4 6 0 0
BITMAP
7300
7430
79A3
7355
7355
7355
ENDCHAR
STARTCHAR i
ENCODING 105
SWIDTH 229 0
DWIDTH 2 0
BBX 2 6 0 0
BITMAP
43
21
64
64
64
64
ENDCHAR
STARTCHAR j
ENCODING 106
SWIDTH 223 0
DWIDTH 2 0
BBX 3 8 -1 -2
BITMAP
0520
0210
0730
0730
0730
0730
0730
1900
ENDCHAR
STARTCHAR k
ENCODING 107
SWIDTH 450 0
DWIDTH 4 0
BBX 4 6 0 0
BITMAP
7300
7321
75A0
7D30
7790
7383
ENDCHAR
STARTCHAR l
ENCODING 108
SWIDTH 229 0
DWIDTH 2 0
BBX 2 6 0 0
BITMAP
64
64
64
64
64
64
ENDCHAR
STARTCHAR m
ENCODING 109
SWIDTH 752 0
DWIDTH 6 0
BBX 6 5 0 0
BITMAP
223140
78AA95
735537
735538
735538
ENDCHAR
STARTCHAR n
ENCODING 110
SWIDTH 483 0
DWIDTH 4 0
BBX 4 5 0 0
BITMAP
2230
79A3
7355
7355
7355
ENDCHAR
STARTCHAR o
ENCODING 111
SWIDTH 501 0
DWIDTH 4 0
BBX 4 5 0 0
BITMAP
0330
5995
9119
9219
3AA3
ENDCHAR
STARTCHAR p
ENCODING 112
SWIDTH 493 0
DWIDTH 4 0
BBX 4 7 0 -2
BITMAP
2230
7895
7328
7328
7AB3
7300
5200
ENDCHAR
STARTCHAR q
ENCODING 113
SWIDTH 500 0
DWIDTH 4 0
BBX 4 7 0 -2
BITMAP
0321
6896
9146
9246
4AA6
0046
0024
ENDCHAR
STARTCHAR r
ENCODING 114
SWIDTH 304 0
DWIDTH 2 0
BBX 3 5 0 0
BITMAP
2310
7A20
7300
7300
7300
ENDCHAR
STARTCHAR s
ENCODING 115
SWIDTH 455 0
DWIDTH 4 0
BBX 4 5 0 0
BITMAP
0320
58B1
4A30
22A2
5AB1
ENDCHAR
STARTCHAR t
ENCODING 116
SWIDTH 295 0
DWIDTH 2 0
BBX 3 6 0 0
BITMAP
1200
6800
7900
4600
4600
2B10
ENDCHAR
STARTCHAR u
ENCODING 117
SWIDTH 483 0
DWIDTH 4 0
BBX 4 5 0 0
BITMAP
2111
8355
8355
7355
4BB5
ENDCHAR
STARTCHAR v
ENCODING 118
SWIDTH 427 0
DWIDTH 3 0
BBX 4 5 0 0
BITMAP
2021
9191
4590
1B60
0A20
ENDCHAR
STARTCHAR w
ENCODING 119
SWIDTH 649 0
DWIDTH 5 0
BBX 5 5 0 0
BITMAP
202020
91D1A0
66B680
2D3C50
0C0B10
ENDCHAR
STARTCHAR x
ENCODING 120
SWIDTH 438 0
DWIDTH 4 0
BBX 4 5 0 0
BITMAP
2021
66B0
0C50
1B70
84A1
ENDCHAR
STARTCHAR y
ENCODING 121
SWIDTH 416 0
DWIDTH 3 0
BBX 3 7 0 -2
BITMAP
3020
A1A0
55A0
1C60
0B20
0900
6400
ENDCHAR
STARTCHAR z
ENCODING 122
SWIDTH 438 0
DWIDTH 4 0
BBX 4 5 0 0
BITMAP
2440
36D1
0650
1A00
8B92
ENDCHAR
STARTCHAR braceleft
ENCODING 123
SWIDTH 306 0
DWIDTH 2 0
BBX 3 9 0 -2
BITMAP
0010
0A10
0A00
1900
9400
2900
1A00
0B10
0210
ENDCHAR
STARTCHAR bar
ENCODING 124
SWIDTH 243 0
DWIDTH 2 0
BBX 2 7 0 -1
BITMAP
33
54
54
54
54
54
54
ENDCHAR
STARTCHAR braceright
ENCODING 125
SWIDTH 306 0
DWIDTH 2 0
BBX 3 9 0 -2
BITMAP
1000
8300
3700
2800
0B10
2900
3700
7400
3000
ENDCHAR
STARTCHAR asciitilde
ENCODING 126
SWIDTH 589 0
DWIDTH 5 0
BBX 5 3 0 1
BITMAP
010000
4A9920
213400
ENDCHAR
STARTCHAR uni00A0
ENCODING 160
SWIDTH 229 0
DWIDTH 2 0
BBX 1 1 0 0
BITMAP
00
ENDCHAR
STARTCHAR exclamdown
ENCODING 161
SWIDTH 231 0
DWIDTH 2 0
BBX 2 7 0 -2
BITMAP
11
32
43
64
64
64
32
ENDCHAR
STARTCHAR cent
ENCODING 162
SWIDTH 479 0
DWIDTH 4 0
BBX 4 7 0 -1
BITMAP
0110
0760
4993
8211
8212
2AB2
0540
ENDCHAR
STARTCHAR sterling
ENCODING 163
SWIDTH 510 0
DWIDTH 4 0
BBX 4 6 0 0
BITMAP
06A3
1A17
2900
6D50
2900
7C97
ENDCHAR
STARTCHAR currency
ENCODING 164
SWIDTH 712 0
DWIDTH 6 0
BBX 6 5 0 0
BITMAP
58BA92
3A01C0
640082
4800B1
5BABC2
ENDCHAR
STARTCHAR yen
ENCODING 165
SWIDTH 463 0
DWIDTH 4 0
BBX 4 6 0 0
BITMAP
7135
66A2
0BA0
4C92
4B92
0830
ENDCHAR
STARTCHAR brokenbar
ENCODING 166
SWIDTH 239 0
DWIDTH 2 0
BBX 2 7 0 -1
BITMAP
43
64
64
21
64
64
64
ENDCHAR
STARTCHAR section
ENCODING 167
SWIDTH 537 0
DWIDTH 4 0
BBX 4 8 0 -2
BITMAP
1993
6519
3B40
8589
781B
05C7
711A
3AA4
ENDCHAR
STARTCHAR dieresis
ENCODING 168
SWIDTH 417 0
DWIDTH 3 0
BBX 3 1 0 5
BITMAP
6280
ENDCHAR
STARTCHAR copyright
ENCODING 169
SWIDTH 785 0
DWIDTH 6 0
BBX 6 6 0 0
BITMAP
037750
266755
736337
745127
548937
067781
ENDCHAR
STARTCHAR ordfeminine
ENCODING 170
SWIDTH 395 0
DWIDTH 3 0
BBX 3 4 0 2
BITMAP
2940
2790
6790
0320
ENDCHAR
STARTCHAR guillemotleft
ENCODING 171
SWIDTH 417 0
DWIDTH 3 0
BBX 3 4 0 0
BITMAP
0560
6850
4870
0330
ENDCHAR
STARTCHAR logicalnot
ENCODING 172
SWIDTH 487 0
DWIDTH 4 0
BBX 4 3 0 1
BITMAP
1220
48B4
0032
ENDCHAR
STARTCHAR uni00AD
ENCODING 173
SWIDTH 248 0
DWIDTH 2 0
BBX 2 1 0 2
BITMAP
77
ENDCHAR
STARTCHAR registered
ENCODING 174
SWIDTH 786 0
DWIDTH 6 0
BBX 6 6 0 0
BITMAP
037750
268755
709647
70B927
546357
067781
ENDCHAR
STARTCHAR macron
ENCODING 175
SWIDTH 414 0
DWIDTH 3 0
BBX 3 1 0 5
BITMAP
4870
ENDCHAR
STARTCHAR degree
ENCODING 176
SWIDTH 373 0
DWIDTH 3 0
BBX 3 3 0 3
BITMAP
3820
6660
0300
ENDCHAR
STARTCHAR plusminus
ENCODING 177
SWIDTH 469 0
DWIDTH 4 0
BBX 4 5 0 0
BITMAP
0540
3982
2872
0530
4992
ENDCHAR
STARTCHAR uni00B2
ENCODING 178
SWIDTH 329 0
DWIDTH 3 0
BBX 3 4 0 2
BITMAP
5810
3720
4810
4620
ENDCHAR
STARTCHAR uni00B3
ENCODING 179
SWIDTH 329 0
DWIDTH 3 0
BBX 3 4 0 2
BITMAP
5810
1920
4730
2500
ENDCHAR
STARTCHAR acute
ENCODING 180
SWIDTH 313 0
DWIDTH 3 0
BBX 2 2 0 4
BITMAP
29
10
ENDCHAR
STARTCHAR mu
ENCODING 181
SWIDTH 498 0
DWIDTH 4 0
BBX 4 7 0 -2
BITMAP
1111
6446
6446
6446
6BA6
6400
4200
ENDCHAR
STARTCHAR paragraph
ENCODING 182
SWIDTH 434 0
DWIDTH 3 0
BBX 3 6 0 0
BITMAP
1990
9FD0
AFD0
3DD0
00A0
00A0
ENDCHAR
STARTCHAR periodcentered
ENCODING 183
SWIDTH 243 0
DWIDTH 2 0
BBX 2 2 0 2
BITMAP
11
32
ENDCHAR
STARTCHAR cedilla
ENCODING 184
SWIDTH 229 0
DWIDTH 2 0
BBX 2 2 0 -2
BITMAP
55
33
ENDCHAR
STARTCHAR uni00B9
ENCODING 185
SWIDTH 329 0
DWIDTH 3 0
BBX 2 4 0 2
BITMAP
36
19
09
03
ENDCHAR
STARTCHAR ordmasculine
ENCODING 186
SWIDTH 402 0
DWIDTH 3 0
BBX 3 4 0 2
BITMAP
2940
8290
6790
0410
ENDCHAR
STARTCHAR guillemotright
ENCODING 187
SWIDTH 417 0
DWIDTH 3 0
BBX 3 4 0 0
BITMAP
4430
1990
2890
3210
ENDCHAR
STARTCHAR onequarter
ENCODING 188
SWIDTH 637 0
DWIDTH 5 0
BBX 5 6 0 0
BITMAP
450000
290700
095310
047770
064A80
032680
ENDCHAR
STARTCHAR onehalf
ENCODING 189
SWIDTH 677 0
DWIDTH 5 0
BBX 5 6 0 0
BITMAP
450000
291700
097200
0579A0
071280
030C80
ENDCHAR
STARTCHAR threequarters
ENCODING 190
SWIDTH 673 0
DWIDTH 5 0
BBX 5 6 0 0
BITMAP
382000
184620
467710
1574B0
0179A0
0215B0
ENDCHAR
STARTCHAR questiondown
ENCODING 191
SWIDTH 421 0
DWIDTH 3 0
BBX 3 7 0 -2
BITMAP
0200
0500
0700
2A00
9200
94B0
1730
ENDCHAR
STARTCHAR Agrave
ENCODING 192
SWIDTH 576 0
DWIDTH 5 0
BBX 5 8 0 0
BITMAP
030000
046000
017000
06C100
0A5500
1A3900
5A8C00
A10740
ENDCHAR
STARTCHAR Aacute
ENCODING 193
SWIDTH 576 0
DWIDTH 5 0
BBX 5 8 0 0
BITMAP
001100
009100
017000
06C100
0A5500
1A3900
5A8C00
A10740
ENDCHAR
STARTCHAR Acircumflex
ENCODING 194
SWIDTH 576 0
DWIDTH 5 0
BBX 5 8 0 0
BITMAP
002000
058100
017000
06C100
0A5500
1A3900
5A8C00
A10740
ENDCHAR
STARTCHAR Atilde
ENCODING 195
SWIDTH 576 0
DWIDTH 5 0
BBX 5 8 0 0
BITMAP
000100
088400
017000
06C100
0A5500
1A3900
5A8C00
A10740
ENDCHAR
STARTCHAR Adieresis
ENCODING 196
SWIDTH 576 0
DWIDTH 5 0
BBX 5 7 0 0
BITMAP
082600
017000
06C100
0A5500
1A3900
5A8C00
A10740
ENDCHAR
STARTCHAR Aring
ENCODING 197
SWIDTH 576 0
DWIDTH 5 0
BBX 5 8 0 0
BITMAP
025000
057100
018000
06C100
0A5500
1A3900
5A8C00
A10740
ENDCHAR
STARTCHAR AE
ENCODING 198
SWIDTH 812 0
DWIDTH 7 0
BBX 7 6 0 0
BITMAP
003A9910
00AB0000
047B4300
0B2B5400
4C9D0000
B20A9930
ENDCHAR
STARTCHAR Ccedilla
ENCODING 199
SWIDTH 566 0
DWIDTH 5 0
BBX 5 8 0 -2
BITMAP
079500
470A10
730100
830000
650810
1A9900
00A000
007000
ENDCHAR
STARTCHAR Egrave
ENCODING 200
SWIDTH 496 0
DWIDTH 4 0
BBX 4 8 0 0
BITMAP
0300
0630
4A96
6500
6741
6962
6500
6B96
ENDCHAR
STARTCHAR Eacute
ENCODING 201
SWIDTH 496 0
DWIDTH 4 0
BBX 4 8 0 0
BITMAP
0021
0180
4A96
6500
6741
6962
6500
6B96
ENDCHAR
STARTCHAR Ecircumflex
ENCODING 202
SWIDTH 496 0
DWIDTH 4 0
BBX 4 8 0 0
BITMAP
0120
0770
4A96
6500
6741
6962
6500
6B96
ENDCHAR
STARTCHAR Edieresis
ENCODING 203
SWIDTH 496 0
DWIDTH 4 0
BBX 4 7 0 0
BITMAP
1743
4A96
6500
6741
6962
6500
6B96
ENDCHAR
STARTCHAR Igrave
ENCODING 204
SWIDTH 250 0
DWIDTH 2 0
BBX 2 8 0 0
BITMAP
30
72
44
55
55
55
55
55
ENDCHAR
STARTCHAR Iacute
ENCODING 205
SWIDTH 250 0
DWIDTH 2 0
BBX 2 8 0 0
BITMAP
03
27
44
55
55
55
55
55
ENDCHAR
STARTCHAR Icircumflex
ENCODING 206
SWIDTH 250 0
DWIDTH 2 0
BBX 2 8 0 0
BITMAP
11
77
44
55
55
55
55
55
ENDCHAR
STARTCHAR Idieresis
ENCODING 207
SWIDTH 250 0
DWIDTH 2 0
BBX 4 7 -1 0
BITMAP
2662
0440
0550
0550
0550
0550
0550
ENDCHAR
STARTCHAR Eth
ENCODING 208
SWIDTH 585 0
DWIDTH 5 0
BBX 5 6 0 0
BITMAP
3A9300
471B00
681820
8A1830
470A10
4CA600
ENDCHAR
STARTCHAR Ntilde
ENCODING 209
SWIDTH 619 0
DWIDTH 5 0
BBX 5 8 0 0
BITMAP
000100
078500
450430
6D1650
687650
659750
653D50
650A50
ENDCHAR
STARTCHAR Ograve
ENCODING 210
SWIDTH 600 0
DWIDTH 5 0
BBX 5 8 0 0
BITMAP
020000
037000
07A500
470A20
730640
830650
650830
1A9900
ENDCHAR
STARTCHAR Oacute
ENCODING 211
SWIDTH 600 0
DWIDTH 5 0
BBX 5 8 0 0
BITMAP
001200
008200
07A500
470A20
730640
830650
650830
1A9900
ENDCHAR
STARTCHAR Ocircumflex
ENCODING 212
SWIDTH 600 0
DWIDTH 5 0
BBX 5 8 0 0
BITMAP
002000
048200
07A500
470A20
730640
830650
650830
1A9900
ENDCHAR
STARTCHAR Otilde
ENCODING 213
SWIDTH 600 0
DWIDTH 5 0
BBX 5 8 0 0
BITMAP
000100
078500
07A500
470A20
730640
830650
650830
1A9900
ENDCHAR
STARTCHAR Odieresis
ENCODING 214
SWIDTH 600 0
DWIDTH 5 0
BBX 5 7 0 0
BITMAP
081700
07A500
470A20
730640
830650
650830
1A9900
ENDCHAR
STARTCHAR multiply
ENCODING 215
SWIDTH 470 0
DWIDTH 4 0
BBX 4 4 0 1
BITMAP
2011
58A2
0C70
6692
ENDCHAR
STARTCHAR Oslash
ENCODING 216
SWIDTH 600 0
DWIDTH 5 0
BBX 5 7 0 -1
BITMAP
07A820
480D10
735940
837650
5B2820
1D9800
210000
ENDCHAR
STARTCHAR Ugrave
ENCODING 217
SWIDTH 561 0
DWIDTH 5 0
BBX 4 8 0 0
BITMAP
0300
0550
5207
730B
730B
730B
740B
2B98
ENDCHAR
STARTCHAR Uacute
ENCODING 218
SWIDTH 561 0
DWIDTH 5 0
BBX 4 8 0 0
BITMAP
0011
0091
5207
730B
730B
730B
740B
2B98
ENDCHAR
STARTCHAR Ucircumflex
ENCODING 219
SWIDTH 561 0
DWIDTH 5 0
BBX 4 8 0 0
BITMAP
0020
0681
5207
730B
730B
730B
740B
2B98
ENDCHAR
STARTCHAR Udieresis
ENCODING 220
SWIDTH 561 0
DWIDTH 5 0
BBX 4 7 0 0
BITMAP
0835
5207
730B
730B
730B
740B
2B98
ENDCHAR
STARTCHAR Yacute
ENCODING 221
SWIDTH 524 0
DWIDTH 4 0
BBX 4 8 0 0
BITMAP
0021
0190
7108
5638
0A91
0790
0470
0470
ENDCHAR
STARTCHAR Thorn
ENCODING 222
SWIDTH 515 0
DWIDTH 4 0
BBX 4 6 0 0
BITMAP
4300
6A71
6539
641A
6B93
6400
ENDCHAR
STARTCHAR germandbls
ENCODING 223
SWIDTH 521 0
DWIDTH 4 0
BBX 4 7 0 -1
BITMAP
3AB0
7391
73B0
73A2
731A
7799
0010
ENDCHAR
STARTCHAR agrave
ENCODING 224
SWIDTH 479 0
DWIDTH 4 0
BBX 4 6 0 0
BITMAP
0A10
0330
48A2
07B4
7564
5BB5
ENDCHAR
STARTCHAR aacute
ENCODING 225
SWIDTH 479 0
DWIDTH 4 0
BBX 4 6 0 0
BITMAP
01A0
0430
48A2
07B4
7564
5BB5
ENDCHAR
STARTCHAR acircumflex
ENCODING 226
SWIDTH 479 0
DWIDTH 4 0
BBX 4 6 0 0
BITMAP
0770
0440
48A2
07B4
7564
5BB5
ENDCHAR
STARTCHAR atilde
ENCODING 227
SWIDTH 479 0
DWIDTH 4 0
BBX 4 6 0 0
BITMAP
1991
0330
48A2
07B4
7564
5BB5
ENDCHAR
STARTCHAR adieresis
ENCODING 228
SWIDTH 479 0
DWIDTH 4 0
BBX 4 6 0 0
BITMAP
2652
0330
48A2
07B4
7564
5BB5
ENDCHAR
STARTCHAR aring
ENCODING 229
SWIDTH 479 0
DWIDTH 4 0
BBX 4 7 0 0
BITMAP
0220
0770
0440
48A2
07B4
7564
5BB5
ENDCHAR
STARTCHAR ae
ENCODING 230
SWIDTH 728 0
DWIDTH 6 0
BBX 6 5 0 0
BITMAP
042230
68B994
17BA98
948510
7A9A94
ENDCHAR
STARTCHAR ccedilla
ENCODING 231
SWIDTH 461 0
DWIDTH 4 0
BBX 4 7 0 -2
BITMAP
0330
58A3
9111
9212
3AB2
0550
0330
ENDCHAR
STARTCHAR egrave
ENCODING 232
SWIDTH 468 0
DWIDTH 4 0
BBX 4 6 0 0
BITMAP
1A10
0430
5893
98A6
9311
3A92
ENDCHAR
STARTCHAR eacute
ENCODING 233
SWIDTH 468 0
DWIDTH 4 0
BBX 4 6 0 0
BITMAP
0290
0430
5893
98A6
9311
3A92
ENDCHAR
STARTCHAR ecircumflex
ENCODING 234
SWIDTH 468 0
DWIDTH 4 0
BBX 4 6 0 0
BITMAP
0870
0430
5893
98A6
9311
3A92
ENDCHAR
STARTCHAR edieresis
ENCODING 235
SWIDTH 468 0
DWIDTH 4 0
BBX 4 6 0 0
BITMAP
3562
0330
5893
98A6
9311
3A92
ENDCHAR
STARTCHAR igrave
ENCODING 236
SWIDTH 234 0
DWIDTH 2 0
BBX 3 6 -1 0
BITMAP
1A10
0220
0640
0640
0640
0640
ENDCHAR
STARTCHAR iacute
ENCODING 237
SWIDTH 234 0
DWIDTH 2 0
BBX 2 6 0 0
BITMAP
19
21
64
64
64
64
ENDCHAR
STARTCHAR icircumflex
ENCODING 238
SWIDTH 234 0
DWIDTH 2 0
BBX 2 6 0 0
BITMAP
87
22
64
64
64
64
ENDCHAR
STARTCHAR idieresis
ENCODING 239
SWIDTH 234 0
DWIDTH 2 0
BBX 4 6 -1 0
BITMAP
3562
0210
0640
0640
0640
0640
ENDCHAR
STARTCHAR eth
ENCODING 240
SWIDTH 513 0
DWIDTH 4 0
BBX 4 7 0 0
BITMAP
0100
0B92
05A2
19A7
6429
7438
2AA2
ENDCHAR
STARTCHAR ntilde
ENCODING 241
SWIDTH 483 0
DWIDTH 4 0
BBX 4 6 0 0
BITMAP
1990
2240
79A3
7355
7355
7355
ENDCHAR
STARTCHAR ograve
ENCODING 242
SWIDTH 501 0
DWIDTH 4 0
BBX 4 6 0 0
BITMAP
1A10
0330
5995
9119
9219
3AA3
ENDCHAR
STARTCHAR oacute
ENCODING 243
SWIDTH 501 0
DWIDTH 4 0
BBX 4 6 0 0
BITMAP
01A0
0430
5995
9119
9219
3AA3
ENDCHAR
STARTCHAR ocircumflex
ENCODING 244
SWIDTH 501 0
DWIDTH 4 0
BBX 4 6 0 0
BITMAP
0770
0440
5995
9119
9219
3AA3
ENDCHAR
STARTCHAR otilde
ENCODING 245
SWIDTH 501 0
DWIDTH 4 0
BBX 4 6 0 0
BITMAP
1990
0330
5995
9119
9219
3AA3
ENDCHAR
STARTCHAR odieresis
ENCODING 246
SWIDTH 501 0
DWIDTH 4 0
BBX 4 6 0 0
BITMAP
2562
0330
5995
9119
9219
3AA3
ENDCHAR
STARTCHAR divide
ENCODING 247
SWIDTH 500 0
DWIDTH 4 0
BBX 4 5 0 0
BITMAP
0430
1111
7AA6
0320
0210
ENDCHAR
STARTCHAR oslash
ENCODING 248
SWIDTH 498 0
DWIDTH 4 0
BBX 4 6 0 -1
BITMAP
0352
49C4
9389
8838
2DA2
1200
ENDCHAR
STARTCHAR ugrave
ENCODING 249
SWIDTH 483 0
DWIDTH 4 0
BBX 4 6 0 0
BITMAP
1A10
2121
8355
8355
7355
4BB5
ENDCHAR
STARTCHAR uacute
ENCODING 250
SWIDTH 483 0
DWIDTH 4 0
BBX 4 6 0 0
BITMAP
0290
2221
8355
8355
7355
4BB5
ENDCHAR
STARTCHAR ucircumflex
ENCODING 251
SWIDTH 483 0
DWIDTH 4 0
BBX 4 6 0 0
BITMAP
0870
2121
8355
8355
7355
4BB5
ENDCHAR
STARTCHAR udieresis
ENCODING 252
SWIDTH 483 0
DWIDTH 4 0
BBX 4 6 0 0
BITMAP
3562
2111
8355
8355
7355
4BB5
ENDCHAR
STARTCHAR yacute
ENCODING 253
SWIDTH 416 0
DWIDTH 3 0
BBX 3 8 0 -2
BITMAP
0480
3120
A1A0
55A0
1C60
0B20
0900
6400
ENDCHAR
STARTCHAR thorn
ENCODING 254
SWIDTH 508 0
DWIDTH 4 0
BBX 4 8 0 -2
BITMAP
7400
7530
7994
7428
7428
7AB3
7400
4200
ENDCHAR
STARTCHAR ydieresis
ENCODING 255
SWIDTH 416 0
DWIDTH 3 0
BBX 3 8 0 -2
BITMAP
5380
3020
A1A0
55A0
1C60
0B20
0900
6400
ENDCHAR
STARTCHAR Amacron
ENCODING 256
SWIDTH 576 0
DWIDTH 5 0
BBX 5 7 0 0
BITMAP
078400
017000
06C100
0A5500
1A3900
5A8C00
A10740
ENDCHAR
STARTCHAR amacron
ENCODING 257
SWIDTH 479 0
DWIDTH 4 0
BBX 4 6 0 0
BITMAP
1881
0330
48A2
07B4
7564
5BB5
ENDCHAR
STARTCHAR Abreve
ENCODING 258
SWIDTH 576 0
DWIDTH 5 0
BBX 5 8 0 0
BITMAP
010000
088400
017000
06C100
0A5500
1A3900
5A8C00
A10740
ENDCHAR
STARTCHAR abreve
ENCODING 259
SWIDTH 479 0
DWIDTH 4 0
BBX 4 6 0 0
BITMAP
1881
0440
48A2
07B4
7564
5BB5
ENDCHAR
STARTCHAR Aogonek
ENCODING 260
SWIDTH 576 0
DWIDTH 5 0
BBX 5 8 0 -2
BITMAP
017000
06C100
0A5500
1A3900
5A8C00
A10740
000810
000620
ENDCHAR
STARTCHAR aogonek
ENCODING 261
SWIDTH 479 0
DWIDTH 4 0
BBX 4 7 0 -2
BITMAP
0330
48A2
07B4
7564
5BB5
0081
0072
ENDCHAR
STARTCHAR Cacute
ENCODING 262
SWIDTH 566 0
DWIDTH 5 0
BBX 5 8 0 0
BITMAP
002200
008000
079500
470A10
730100
830000
650810
1A9900
ENDCHAR
STARTCHAR cacute
ENCODING 263
SWIDTH 461 0
DWIDTH 4 0
BBX 4 6 0 0
BITMAP
0380
0430
58A3
9111
9212
3AB2
ENDCHAR
STARTCHAR Ccircumflex
ENCODING 264
SWIDTH 566 0
DWIDTH 5 0
BBX 5 8 0 0
BITMAP
003000
057100
079500
470A10
730100
830000
650810
1A9900
ENDCHAR
STARTCHAR ccircumflex
ENCODING 265
SWIDTH 461 0
DWIDTH 4 0
BBX 4 6 0 0
BITMAP
0950
0440
58A3
9111
9212
3AB2
ENDCHAR
STARTCHAR Cdotaccent
ENCODING 266
SWIDTH 566 0
DWIDTH 5 0
BBX 5 7 0 0
BITMAP
017000
079500
470A10
730100
830000
650810
1A9900
ENDCHAR
STARTCHAR cdotaccent
ENCODING 267
SWIDTH 461 0
DWIDTH 4 0
BBX 4 6 0 0
BITMAP
0620
0330
58A3
9111
9212
3AB2
ENDCHAR
STARTCHAR Ccaron
ENCODING 268
SWIDTH 566 0
DWIDTH 5 0
BBX 5 8 0 0
BITMAP
032100
028000
079500
470A10
730100
830000
650810
1A9900
ENDCHAR
STARTCHAR ccaron
ENCODING 269
SWIDTH 461 0
DWIDTH 4 0
BBX 4 6 0 0
BITMAP
1970
0430
58A3
9111
9212
3AB2
ENDCHAR
STARTCHAR Dcaron
ENCODING 270
SWIDTH 570 0
DWIDTH 5 0
BBX 5 8 0 0
BITMAP
022000
057000
4A9200
651A00
650A00
650A10
650B00
6BA500
ENDCHAR
STARTCHAR dcaron
ENCODING 271
SWIDTH 569 0
DWIDTH 5 0
BBX 5 6 0 0
BITMAP
004A70
035910
689600
914600
924600
4AA600
ENDCHAR
STARTCHAR Dcroat
ENCODING 272
SWIDTH 585 0
DWIDTH 5 0
BBX 5 6 0 0
BITMAP
3A9300
471B00
681820
8A1830
470A10
4CA600
ENDCHAR
STARTCHAR dcroat
ENCODING 273
SWIDTH 529 0
DWIDTH 4 0
BBX 4 6 0 0
BITMAP
008A
0388
5996
9246
8246
3BA6
ENDCHAR
STARTCHAR Emacron
ENCODING 274
SWIDTH 496 0
DWIDTH 4 0
BBX 4 7 0 0
BITMAP
0882
4A96
6500
6741
6962
6500
6B96
ENDCHAR
STARTCHAR emacron
ENCODING 275
SWIDTH 468 0
DWIDTH 4 0
BBX 4 6 0 0
BITMAP
2881
0330
5893
98A6
9311
3A92
ENDCHAR
STARTCHAR Ebreve
ENCODING 276
SWIDTH 496 0
DWIDTH 4 0
BBX 4 8 0 0
BITMAP
0100
0991
4A96
6500
6741
6962
6500
6B96
ENDCHAR
STARTCHAR ebreve
ENCODING 277
SWIDTH 468 0
DWIDTH 4 0
BBX 4 6 0 0
BITMAP
1890
0440
5893
98A6
9311
3A92
ENDCHAR
STARTCHAR Edotaccent
ENCODING 278
SWIDTH 496 0
DWIDTH 4 0
BBX 4 7 0 0
BITMAP
0350
4A96
6500
6741
6962
6500
6B96
ENDCHAR
STARTCHAR edotaccent
ENCODING 279
SWIDTH 468 0
DWIDTH 4 0
BBX 4 6 0 0
BITMAP
0530
0330
5893
98A6
9311
3A92
ENDCHAR
STARTCHAR Eogonek
ENCODING 280
SWIDTH 496 0
DWIDTH 4 0
BBX 4 8 0 -2
BITMAP
4A96
6500
6741
6962
6500
6B96
0082
0053
ENDCHAR
STARTCHAR eogonek
ENCODING 281
SWIDTH 468 0
DWIDTH 4 0
BBX 4 7 0 -2
BITMAP
0330
5893
98A6
9311
3A92
0550
0260
ENDCHAR
STARTCHAR Ecaron
ENCODING 282
SWIDTH 496 0
DWIDTH 4 0
BBX 4 8 0 0
BITMAP
0220
0570
4A96
6500
6741
6962
6500
6B96
ENDCHAR
STARTCHAR ecaron
ENCODING 283
SWIDTH 468 0
DWIDTH 4 0
BBX 4 6 0 0
BITMAP
0880
0330
5893
98A6
9311
3A92
ENDCHAR
STARTCHAR Gcircumflex
ENCODING 284
SWIDTH 590 0
DWIDTH 5 0
BBX 5 8 0 0
BITMAP
003000
056100
089600
560B10
730000
835B20
650830
1A9A10
ENDCHAR
STARTCHAR gcircumflex
ENCODING 285
SWIDTH 492 0
DWIDTH 4 0
BBX 4 8 0 -2
BITMAP
0860
0432
6897
9147
9247
4BA7
1165
1880
ENDCHAR
STARTCHAR Gbreve
ENCODING 286
SWIDTH 590 0
DWIDTH 5 0
BBX 5 8 0 0
BITMAP
020100
078300
089600
560B10
730000
835B20
650830
1A9A10
ENDCHAR
STARTCHAR gbreve
ENCODING 287
SWIDTH 492 0
DWIDTH 4 0
BBX 4 8 0 -2
BITMAP
2890
0532
6897
9147
9247
4BA7
1165
1880
ENDCHAR
STARTCHAR Gdotaccent
ENCODING 288
SWIDTH 590 0
DWIDTH 5 0
BBX 5 7 0 0
BITMAP
016000
089600
560B10
730000
835B20
650830
1A9A10
ENDCHAR
STARTCHAR gdotaccent
ENCODING 289
SWIDTH 492 0
DWIDTH 4 0
BBX 4 8 0 -2
BITMAP
0530
0422
6897
9147
9247
4BA7
1165
1880
ENDCHAR
STARTCHAR uni0122
ENCODING 290
SWIDTH 590 0
DWIDTH 5 0
BBX 5 8 0 -2
BITMAP
089600
560B10
730000
835B20
650830
1A9A10
006000
008000
ENDCHAR
STARTCHAR uni0123
ENCODING 291
SWIDTH 492 0
DWIDTH 4 0
BBX 4 9 0 -2
BITMAP
0130
0640
0422
6897
9147
9247
4BA7
1165
1880
ENDCHAR
STARTCHAR Hcircumflex
ENCODING 292
SWIDTH 620 0
DWIDTH 5 0
BBX 5 8 0 0
BITMAP
002000
048200
430440
650650
674850
696950
650650
650650
ENDCHAR
STARTCHAR hcircumflex
ENCODING 293
SWIDTH 482 0
DWIDTH 4 0
BBX 4 8 0 0
BITMAP
0200
1850
7300
7430
79A3
7355
7355
7355
ENDCHAR
STARTCHAR Hbar
ENCODING 294
SWIDTH 611 0
DWIDTH 5 0
BBX 5 6 0 0
BITMAP
440440
9B8B90
684850
696950
650650
650650
ENDCHAR
STARTCHAR hbar
ENCODING 295
SWIDTH 497 0
DWIDTH 4 0
BBX 4 6 0 0
BITMAP
9900
7840
5A95
5537
5537
5537
ENDCHAR
STARTCHAR Itilde
ENCODING 296
SWIDTH 250 0
DWIDTH 2 0
BBX 3 8 -1 0
BITMAP
0110
1990
0440
0550
0550
0550
0550
0550
ENDCHAR
STARTCHAR itilde
ENCODING 297
SWIDTH 234 0
DWIDTH 2 0
BBX 3 6 -1 0
BITMAP
1990
0210
0640
0640
0640
0640
ENDCHAR
STARTCHAR Imacron
ENCODING 298
SWIDTH 250 0
DWIDTH 2 0
BBX 4 7 -1 0
BITMAP
1881
0440
0550
0550
0550
0550
0550
ENDCHAR
STARTCHAR imacron
ENCODING 299
SWIDTH 234 0
DWIDTH 2 0
BBX 4 6 -1 0
BITMAP
2881
0110
0640
0640
0640
0640
ENDCHAR
STARTCHAR Ibreve
ENCODING 300
SWIDTH 250 0
DWIDTH 2 0
BBX 4 8 -1 0
BITMAP
0110
1991
0440
0550
0550
0550
0550
0550
ENDCHAR
STARTCHAR ibreve
ENCODING 301
SWIDTH 234 0
DWIDTH 2 0
BBX 3 6 -1 0
BITMAP
1890
0320
0640
0640
0640
0640
ENDCHAR
STARTCHAR Iogonek
ENCODING 302
SWIDTH 250 0
DWIDTH 2 0
BBX 2 8 0 -2
BITMAP
44
55
55
55
55
66
81
62
ENDCHAR
STARTCHAR iogonek
ENCODING 303
SWIDTH 229 0
DWIDTH 2 0
BBX 2 8 0 -2
BITMAP
43
21
64
64
64
74
80
72
ENDCHAR
STARTCHAR Idotaccent
ENCODING 304
SWIDTH 250 0
DWIDTH 2 0
BBX 2 7 0 0
BITMAP
44
44
55
55
55
55
55
ENDCHAR
STARTCHAR dotlessi
ENCODING 305
SWIDTH 234 0
DWIDTH 2 0
BBX 2 5 0 0
BITMAP
11
64
64
64
64
ENDCHAR
STARTCHAR IJ
ENCODING 306
SWIDTH 733 0
DWIDTH 6 0
BBX 6 6 0 0
BITMAP
440043
550064
550064
550064
556074
556AB1
ENDCHAR
STARTCHAR ij
ENCODING 307
SWIDTH 452 0
DWIDTH 4 0
BBX 4 8 0 -2
BITMAP
4370
2120
64A1
64A1
64A1
64A1
00A0
0280
ENDCHAR
STARTCHAR Jcircumflex
ENCODING 308
SWIDTH 483 0
DWIDTH 4 0
BBX 4 8 0 0
BITMAP
0010
0086
0043
0064
0064
0064
6074
6AB1
ENDCHAR
STARTCHAR jcircumflex
ENCODING 309
SWIDTH 237 0
DWIDTH 2 0
BBX 3 8 -1 -2
BITMAP
0660
0430
0550
0550
0550
0550
0640
1910
ENDCHAR
STARTCHAR uni0136
ENCODING 310
SWIDTH 544 0
DWIDTH 4 0
BBX 5 8 0 -2
BITMAP
430800
658500
699000
6CB000
656600
650B10
018000
023000
ENDCHAR
STARTCHAR uni0137
ENCODING 311
SWIDTH 450 0
DWIDTH 4 0
BBX 4 8 0 -2
BITMAP
7300
7321
75A0
7D30
7790
7383
0710
0600
ENDCHAR
STARTCHAR kgreenlandic
ENCODING 312
SWIDTH 491 0
DWIDTH 4 0
BBX 4 5 0 0
BITMAP
1112
64A2
6B50
6890
6485
ENDCHAR
STARTCHAR Lacute
ENCODING 313
SWIDTH 475 0
DWIDTH 4 0
BBX 4 8 0 0
BITMAP
0200
2800
4300
6500
6500
6500
6500
6B95
ENDCHAR
STARTCHAR lacute
ENCODING 314
SWIDTH 229 0
DWIDTH 2 0
BBX 2 8 0 0
BITMAP
07
23
64
64
64
64
64
64
ENDCHAR
STARTCHAR uni013B
ENCODING 315
SWIDTH 475 0
DWIDTH 4 0
BBX 4 8 0 -2
BITMAP
4300
6500
6500
6500
6500
6B95
0240
0530
ENDCHAR
STARTCHAR uni013C
ENCODING 316
SWIDTH 229 0
DWIDTH 2 0
BBX 2 8 0 -2
BITMAP
64
64
64
64
64
64
42
71
ENDCHAR
STARTCHAR Lcaron
ENCODING 317
SWIDTH 475 0
DWIDTH 4 0
BBX 4 6 0 0
BITMAP
4370
6570
6500
6500
6500
6B95
ENDCHAR
STARTCHAR lcaron
ENCODING 318
SWIDTH 302 0
DWIDTH 2 0
BBX 3 6 0 0
BITMAP
6860
6710
6400
6400
6400
6400
ENDCHAR
STARTCHAR Ldot
ENCODING 319
SWIDTH 475 0
DWIDTH 4 0
BBX 4 6 0 0
BITMAP
4300
6500
6550
6530
6500
6B95
ENDCHAR
STARTCHAR ldot
ENCODING 320
SWIDTH 336 0
DWIDTH 3 0
BBX 3 6 0 0
BITMAP
6400
6400
6620
6620
6400
6400
ENDCHAR
STARTCHAR Lslash
ENCODING 321
SWIDTH 475 0
DWIDTH 4 0
BBX 4 6 0 0
BITMAP
4300
6500
6910
9500
6500
6B95
ENDCHAR
STARTCHAR lslash
ENCODING 322
SWIDTH 250 0
DWIDTH 2 0
BBX 2 6 0 0
BITMAP
65
65
68
85
65
65
ENDCHAR
STARTCHAR Nacute
ENCODING 323
SWIDTH 619 0
DWIDTH 5 0
BBX 5 8 0 0
BITMAP
001200
008200
450430
6D1650
687650
659750
653D50
650A50
ENDCHAR
STARTCHAR nacute
ENCODING 324
SWIDTH 483 0
DWIDTH 4 0
BBX 4 6 0 0
BITMAP
01A0
2340
79A3
7355
7355
7355
ENDCHAR
STARTCHAR uni0145
ENCODING 325
SWIDTH 619 0
DWIDTH 5 0
BBX 5 8 0 -2
BITMAP
450430
6D1650
687650
659750
653D50
650A50
006000
017000
ENDCHAR
STARTCHAR uni0146
ENCODING 326
SWIDTH 483 0
DWIDTH 4 0
BBX 4 7 0 -2
BITMAP
2230
79A3
7355
7355
7355
0420
0710
ENDCHAR
STARTCHAR Ncaron
ENCODING 327
SWIDTH 619 0
DWIDTH 5 0
BBX 5 8 0 0
BITMAP
021100
02A100
450430
6D1650
687650
659750
653D50
650A50
ENDCHAR
STARTCHAR ncaron
ENCODING 328
SWIDTH 483 0
DWIDTH 4 0
BBX 4 6 0 0
BITMAP
0880
2240
79A3
7355
7355
7355
ENDCHAR
STARTCHAR napostrophe
ENCODING 329
SWIDTH 483 0
DWIDTH 4 0
BBX 5 6 -1 0
BITMAP
0A0000
152300
079A30
073550
073550
073550
ENDCHAR
STARTCHAR Eng
ENCODING 330
SWIDTH 599 0
DWIDTH 5 0
BBX 5 8 0 -2
BITMAP
450520
6D0740
696740
64A840
644E40
640B40
000830
002900
ENDCHAR
STARTCHAR eng
ENCODING 331
SWIDTH 498 0
DWIDTH 4 0
BBX 4 7 0 -2
BITMAP
2230
78A4
7446
7446
7446
0056
0091
ENDCHAR
STARTCHAR Omacron
ENCODING 332
SWIDTH 600 0
DWIDTH 5 0
BBX 5 7 0 0
BITMAP
068500
07A500
470A20
730640
830650
650830
1A9900
ENDCHAR
STARTCHAR omacron
ENCODING 333
SWIDTH 501 0
DWIDTH 4 0
BBX 4 6 0 0
BITMAP
1881
0330
5995
9119
9219
3AA3
ENDCHAR
STARTCHAR Obreve
ENCODING 334
SWIDTH 600 0
DWIDTH 5 0
BBX 5 8 0 0
BITMAP
010100
078500
07A500
470A20
730640
830650
650830
1A9900
ENDCHAR
STARTCHAR obreve
ENCODING 335
SWIDTH 501 0
DWIDTH 4 0
BBX 4 6 0 0
BITMAP
1881
0440
5995
9119
9219
3AA3
ENDCHAR
STARTCHAR Ohungarumlaut
ENCODING 336
SWIDTH 600 0
DWIDTH 5 0
BBX 5 8 0 0
BITMAP
002200
039700
07A500
470A20
730640
830650
650830
1A9900
ENDCHAR
STARTCHAR ohungarumlaut
ENCODING 337
SWIDTH 501 0
DWIDTH 4 0
BBX 4 6 0 0
BITMAP
0893
0450
5995
9119
9219
3AA3
ENDCHAR
STARTCHAR OE
ENCODING 338
SWIDTH 826 0
DWIDTH 7 0
BBX 6 7 0 -1
BITMAP
089A99
551A00
821B42
921C64
731A00
1A9D99
001000
ENDCHAR
STARTCHAR oe
ENCODING 339
SWIDTH 777 0
DWIDTH 6 0
BBX 6 5 0 0
BITMAP
032041
499B69
822D8C
823B11
2AA997
ENDCHAR
STARTCHAR Racute
ENCODING 340
SWIDTH 530 0
DWIDTH 4 0
BBX 4 8 0 0
BITMAP
0021
0180
4A93
651B
651A
6BD3
6557
650B
ENDCHAR
STARTCHAR racute
ENCODING 341
SWIDTH 304 0
DWIDTH 2 0
BBX 3 6 0 0
BITMAP
0830
2410
7A20
7300
7300
7300
ENDCHAR
STARTCHAR uni0156
ENCODING 342
SWIDTH 530 0
DWIDTH 4 0
BBX 4 8 0 -2
BITMAP
4A93
651B
651A
6BD3
6557
650B
0230
0530
ENDCHAR
STARTCHAR uni0157
ENCODING 343
SWIDTH 304 0
DWIDTH 2 0
BBX 3 7 0 -2
BITMAP
2310
7A20
7300
7300
7300
4200
7100
ENDCHAR
STARTCHAR Rcaron
ENCODING 344
SWIDTH 530 0
DWIDTH 4 0
BBX 4 8 0 0
BITMAP
0220
0670
4A93
651B
651A
6BD3
6557
650B
ENDCHAR
STARTCHAR rcaron
ENCODING 345
SWIDTH 304 0
DWIDTH 2 0
BBX 3 6 0 0
BITMAP
4920
2310
7A20
7300
7300
7300
ENDCHAR
STARTCHAR Sacute
ENCODING 346
SWIDTH 518 0
DWIDTH 4 0
BBX 4 8 0 0
BITMAP
0021
0190
1992
751A
4A20
03A6
610B
3AA7
ENDCHAR
STARTCHAR sacute
ENCODING 347
SWIDTH 455 0
DWIDTH 4 0
BBX 4 6 0 0
BITMAP
01A0
0430
58B1
4A30
22A2
5AB1
ENDCHAR
STARTCHAR Scircumflex
ENCODING 348
SWIDTH 518 0
DWIDTH 4 0
BBX 4 8 0 0
BITMAP
0110
0770
1992
751A
4A20
03A6
610B
3AA7
ENDCHAR
STARTCHAR scircumflex
ENCODING 349
SWIDTH 455 0
DWIDTH 4 0
BBX 4 6 0 0
BITMAP
0870
0430
58B1
4A30
22A2
5AB1
ENDCHAR
STARTCHAR Scedilla
ENCODING 350
SWIDTH 518 0
DWIDTH 4 0
BBX 4 8 0 -2
BITMAP
1992
751A
4A20
03A6
610B
3AA7
0190
0150
ENDCHAR
STARTCHAR scedilla
ENCODING 351
SWIDTH 455 0
DWIDTH 4 0
BBX 4 7 0 -2
BITMAP
0320
58B1
4A30
22A2
5AB1
0370
0250
ENDCHAR
STARTCHAR Scaron
ENCODING 352
SWIDTH 518 0
DWIDTH 4 0
BBX 4 8 0 0
BITMAP
0220
0570
1992
751A
4A20
03A6
610B
3AA7
ENDCHAR
STARTCHAR scaron
ENCODING 353
SWIDTH 455 0
DWIDTH 4 0
BBX 4 6 0 0
BITMAP
0880
0420
58B1
4A30
22A2
5AB1
ENDCHAR
STARTCHAR uni0162
ENCODING 354
SWIDTH 520 0
DWIDTH 4 0
BBX 4 8 0 -2
BITMAP
79A9
0470
0470
0470
0470
0470
0280
0150
ENDCHAR
STARTCHAR uni0163
ENCODING 355
SWIDTH 295 0
DWIDTH 2 0
BBX 3 8 0 -2
BITMAP
1200
6800
7900
4600
4600
2B10
0820
0510
ENDCHAR
STARTCHAR Tcaron
ENCODING 356
SWIDTH 520 0
DWIDTH 4 0
BBX 4 8 0 0
BITMAP
0220
0670
79A9
0470
0470
0470
0470
0470
ENDCHAR
STARTCHAR tcaron
ENCODING 357
SWIDTH 314 0
DWIDTH 3 0
BBX 3 7 0 0
BITMAP
0050
1470
6800
7900
4600
4600
2B10
ENDCHAR
STARTCHAR Tbar
ENCODING 358
SWIDTH 520 0
DWIDTH 4 0
BBX 4 6 0 0
BITMAP
79A9
0470
0AC2
0470
0470
0470
ENDCHAR
STARTCHAR tbar
ENCODING 359
SWIDTH 295 0
DWIDTH 2 0
BBX 3 6 0 0
BITMAP
1200
6800
7900
AB10
4600
2B10
ENDCHAR
STARTCHAR Utilde
ENCODING 360
SWIDTH 561 0
DWIDTH 5 0
BBX 4 8 0 0
BITMAP
0001
0893
5207
730B
730B
730B
740B
2B98
ENDCHAR
STARTCHAR utilde
ENCODING 361
SWIDTH 483 0
DWIDTH 4 0
BBX 4 6 0 0
BITMAP
1990
2111
8355
8355
7355
4BB5
ENDCHAR
STARTCHAR Umacron
ENCODING 362
SWIDTH 561 0
DWIDTH 5 0
BBX 4 7 0 0
BITMAP
0783
5207
730B
730B
730B
740B
2B98
ENDCHAR
STARTCHAR umacron
ENCODING 363
SWIDTH 483 0
DWIDTH 4 0
BBX 4 6 0 0
BITMAP
2881
2111
8355
8355
7355
4BB5
ENDCHAR
STARTCHAR Ubreve
ENCODING 364
SWIDTH 561 0
DWIDTH 5 0
BBX 4 8 0 0
BITMAP
0100
0893
5207
730B
730B
730B
740B
2B98
ENDCHAR
STARTCHAR ubreve
ENCODING 365
SWIDTH 483 0
DWIDTH 4 0
BBX 4 6 0 0
BITMAP
1890
2221
8355
8355
7355
4BB5
ENDCHAR
STARTCHAR Uring
ENCODING 366
SWIDTH 561 0
DWIDTH 5 0
BBX 4 8 0 0
BITMAP
0250
0570
5207
730B
730B
730B
740B
2B98
ENDCHAR
STARTCHAR uring
ENCODING 367
SWIDTH 483 0
DWIDTH 4 0
BBX 4 7 0 0
BITMAP
0320
0770
2221
8355
8355
7355
4BB5
ENDCHAR
STARTCHAR Uhungarumlaut
ENCODING 368
SWIDTH 561 0
DWIDTH 5 0
BBX 4 8 0 0
BITMAP
0022
0694
5207
730B
730B
730B
740B
2B98
ENDCHAR
STARTCHAR uhungarumlaut
ENCODING 369
SWIDTH 483 0
DWIDTH 4 0
BBX 4 6 0 0
BITMAP
0893
2231
8355
8355
7355
4BB5
ENDCHAR
STARTCHAR Uogonek
ENCODING 370
SWIDTH 561 0
DWIDTH 5 0
BBX 4 8 0 -2
BITMAP
5207
730B
730B
730B
740A
2B97
00A0
0061
ENDCHAR
STARTCHAR uogonek
ENCODING 371
SWIDTH 483 0
DWIDTH 4 0
BBX 4 7 0 -2
BITMAP
2111
8355
8355
7355
4BB5
0081
0062
ENDCHAR
STARTCHAR Wcircumflex
ENCODING 372
SWIDTH 761 0
DWIDTH 6 0
BBX 6 8 0 0
BITMAP
001100
007700
713507
73791A
469937
199784
0C64D1
0A30C0
ENDCHAR
STARTCHAR wcircumflex
ENCODING 373
SWIDTH 649 0
DWIDTH 5 0
BBX 5 6 0 0
BITMAP
02A300
212120
91D1A0
66B680
2D3C50
0C0B10
ENDCHAR
STARTCHAR Ycircumflex
ENCODING 374
SWIDTH 524 0
DWIDTH 4 0
BBX 4 8 0 0
BITMAP
0110
0770
7108
5638
0A91
0790
0470
0470
ENDCHAR
STARTCHAR ycircumflex
ENCODING 375
SWIDTH 416 0
DWIDTH 3 0
BBX 3 8 0 -2
BITMAP
0950
3030
A1A0
55A0
1C60
0B20
0900
6400
ENDCHAR
STARTCHAR Ydieresis
ENCODING 376
SWIDTH 524 0
DWIDTH 4 0
BBX 4 7 0 0
BITMAP
1743
7108
5638
0A91
0790
0470
0470
ENDCHAR
STARTCHAR Zacute
ENCODING 377
SWIDTH 522 0
DWIDTH 4 0
BBX 4 8 0 0
BITMAP
0021
0190
6998
0066
01B0
0840
2A00
9B98
ENDCHAR
STARTCHAR zacute
ENCODING 378
SWIDTH 438 0
DWIDTH 4 0
BBX 4 6 0 0
BITMAP
0380
2540
36D1
0650
1A00
8B92
ENDCHAR
STARTCHAR Zdotaccent
ENCODING 379
SWIDTH 522 0
DWIDTH 4 0
BBX 4 7 0 0
BITMAP
0350
6998
0066
01B0
0840
2A00
9B98
ENDCHAR
STARTCHAR zdotaccent
ENCODING 380
SWIDTH 438 0
DWIDTH 4 0
BBX 4 6 0 0
BITMAP
0610
2440
36D1
0650
1A00
8B92
ENDCHAR
STARTCHAR Zcaron
ENCODING 381
SWIDTH 522 0
DWIDTH 4 0
BBX 4 8 0 0
BITMAP
0220
0670
6998
0066
01B0
0840
2A00
9B98
ENDCHAR
STARTCHAR zcaron
ENCODING 382
SWIDTH 438 0
DWIDTH 4 0
BBX 4 6 0 0
BITMAP
1960
2440
36D1
0650
1A00
8B92
ENDCHAR
STARTCHAR longs
ENCODING 383
SWIDTH 234 0
DWIDTH 2 0
BBX 3 6 0 0
BITMAP
3B10
6400
6400
6400
6400
6400
ENDCHAR
STARTCHAR uni018F
ENCODING 399
SWIDTH 597 0
DWIDTH 5 0
BBX 5 6 0 0
BITMAP
199300
010B10
000740
A99B50
830920
2A9800
ENDCHAR
STARTCHAR florin
ENCODING 402
SWIDTH 309 0
DWIDTH 2 0
BBX 3 8 0 -2
BITMAP
1B30
5900
6A00
3700
3700
3700
4700
9200
ENDCHAR
STARTCHAR Ohorn
ENCODING 416
SWIDTH 592 0
DWIDTH 5 0
BBX 5 7 0 0
BITMAP
000020
07A680
570C10
820730
910740
640910
1BA800
ENDCHAR
STARTCHAR ohorn
ENCODING 417
SWIDTH 502 0
DWIDTH 4 0
BBX 4 5 0 0
BITMAP
0335
4998
9229
8228
2AA2
ENDCHAR
STARTCHAR Uhorn
ENCODING 431
SWIDTH 608 0
DWIDTH 5 0
BBX 6 6 0 0
BITMAP
520763
730B70
730B00
730B00
640B00
2A9700
ENDCHAR
STARTCHAR uhorn
ENCODING 432
SWIDTH 549 0
DWIDTH 4 0
BBX 5 5 0 0
BITMAP
211230
835A20
835500
735500
4BB500
ENDCHAR
STARTCHAR uni01F0
ENCODING 496
SWIDTH 237 0
DWIDTH 2 0
BBX 3 8 -1 -2
BITMAP
0770
0320
0550
0550
0550
0550
0640
1910
ENDCHAR
STARTCHAR Aringacute
ENCODING 506
SWIDTH 576 0
DWIDTH 5 0
BBX 5 8 0 0
BITMAP
004100
016000
02C000
06C100
0A5500
1A3900
5A8C00
A10740
ENDCHAR
STARTCHAR aringacute
ENCODING 507
SWIDTH 479 0
DWIDTH 4 0
BBX 4 7 0 0
BITMAP
0030
0240
0760
48A2
07B4
7564
5BB5
ENDCHAR
STARTCHAR AEacute
ENCODING 508
SWIDTH 812 0
DWIDTH 7 0
BBX 7 8 0 0
BITMAP
00021000
00180000
003A9910
00AB0000
047B4300
0B2B5400
4C9D0000
B20A9930
ENDCHAR
STARTCHAR aeacute
ENCODING 509
SWIDTH 728 0
DWIDTH 6 0
BBX 6 6 0 0
BITMAP
002900
043230
68B994
17BA98
948510
7A9A94
ENDCHAR
STARTCHAR Oslashacute
ENCODING 510
SWIDTH 600 0
DWIDTH 5 0
BBX 5 9 0 -1
BITMAP
003300
006000
07A820
480D10
735940
837650
5B2820
1D9800
210000
ENDCHAR
STARTCHAR oslashacute
ENCODING 511
SWIDTH 498 0
DWIDTH 4 0
BBX 4 7 0 -1
BITMAP
0290
0452
49C4
9389
8838
2DA2
1200
ENDCHAR
STARTCHAR uni0218
ENCODING 536
SWIDTH 518 0
DWIDTH 4 0
BBX 4 8 0 -2
BITMAP
1992
751A
4A20
03A6
610B
3AA7
0240
0540
ENDCHAR
STARTCHAR uni0219
ENCODING 537
SWIDTH 455 0
DWIDTH 4 0
BBX 4 7 0 -2
BITMAP
0320
58B1
4A30
22A2
5AB1
0320
0720
ENDCHAR
STARTCHAR uni021A
ENCODING 538
SWIDTH 520 0
DWIDTH 4 0
BBX 4 8 0 -2
BITMAP
79A9
0470
0470
0470
0470
0470
0230
0530
ENDCHAR
STARTCHAR uni021B
ENCODING 539
SWIDTH 295 0
DWIDTH 2 0
BBX 3 8 0 -2
BITMAP
1200
6800
7900
4600
4600
2B10
0600
0800
ENDCHAR
STARTCHAR uni0237
ENCODING 567
SWIDTH 237 0
DWIDTH 2 0
BBX 3 7 -1 -2
BITMAP
0110
0550
0550
0550
0550
0640
1910
ENDCHAR
STARTCHAR uni0259
ENCODING 601
SWIDTH 465 0
DWIDTH 4 0
BBX 4 5 0 0
BITMAP
0420
45A1
2485
8694
3AA0
ENDCHAR
STARTCHAR uni02BC
ENCODING 700
SWIDTH 194 0
DWIDTH 2 0
BBX 2 2 0 4
BITMAP
73
70
ENDCHAR
STARTCHAR circumflex
ENCODING 710
SWIDTH 428 0
DWIDTH 3 0
BBX 3 2 0 4
BITMAP
1940
1010
ENDCHAR
STARTCHAR caron
ENCODING 711
SWIDTH 403 0
DWIDTH 3 0
BBX 3 2 0 4
BITMAP
2940
0100
ENDCHAR
STARTCHAR uni02C9
ENCODING 713
SWIDTH 414 0
DWIDTH 3 0
BBX 3 1 0 5
BITMAP
4870
ENDCHAR
STARTCHAR breve
ENCODING 728
SWIDTH 426 0
DWIDTH 3 0
BBX 3 2 0 4
BITMAP
5680
0210
ENDCHAR
STARTCHAR dotaccent
ENCODING 729
SWIDTH 242 0
DWIDTH 2 0
BBX 2 1 0 5
BITMAP
44
ENDCHAR
STARTCHAR ring
ENCODING 730
SWIDTH 334 0
DWIDTH 3 0
BBX 3 3 0 4
BITMAP
1300
6710
1300
ENDCHAR
STARTCHAR ogonek
ENCODING 731
SWIDTH 253 0
DWIDTH 2 0
BBX 2 3 0 -2
BITMAP
01
81
63
ENDCHAR
STARTCHAR tilde
ENCODING 732
SWIDTH 427 0
DWIDTH 3 0
BBX 3 2 0 4
BITMAP
4870
1000
ENDCHAR
STARTCHAR hungarumlaut
ENCODING 733
SWIDTH 331 0
DWIDTH 3 0
BBX 3 2 0 4
BITMAP
5960
2200
ENDCHAR
STARTCHAR uni02F3
ENCODING 755
SWIDTH 263 0
DWIDTH 2 0
BBX 2 2 0 -2
BITMAP
33
33
ENDCHAR
STARTCHAR gravecomb
ENCODING 768
SWIDTH 0 0
DWIDTH 0 0
BBX 2 2 -3 4
BITMAP
65
01
ENDCHAR
STARTCHAR acutecomb
ENCODING 769
SWIDTH 0 0
DWIDTH 0 0
BBX 2 2 -2 4
BITMAP
91
10
ENDCHAR
STARTCHAR tildecomb
ENCODING 771
SWIDTH 0 0
DWIDTH 0 0
BBX 3 2 -3 4
BITMAP
7840
1000
ENDCHAR
STARTCHAR hookabovecomb
ENCODING 777
SWIDTH 0 0
DWIDTH 0 0
BBX 2 3 -3 4
BITMAP
13
19
01
ENDCHAR
STARTCHAR uni030F
ENCODING 783
SWIDTH 0 0
DWIDTH 0 0
BBX 3 2 -3 4
BITMAP
9A10
0100
ENDCHAR
STARTCHAR dotbelowcomb
ENCODING 803
SWIDTH 0 0
DWIDTH 0 0
BBX 1 2 -3 -2
BITMAP
40
30
ENDCHAR
STARTCHAR tonos
ENCODING 900
SWIDTH 256 0
DWIDTH 2 0
BBX 2 2 0 5
BITMAP
02
35
ENDCHAR
STARTCHAR dieresistonos
ENCODING 901
SWIDTH 452 0
DWIDTH 4 0
BBX 4 2 0 5
BITMAP
0320
6571
ENDCHAR
STARTCHAR Alphatonos
ENCODING 902
SWIDTH 576 0
DWIDTH 5 0
BBX 5 7 0 0
BITMAP
120000
457000
06C100
0A5500
1A3900
5A8C00
A10740
ENDCHAR
STARTCHAR anoteleia
ENCODING 903
SWIDTH 243 0
DWIDTH 2 0
BBX 2 2 0 2
BITMAP
11
32
ENDCHAR
STARTCHAR Epsilontonos
ENCODING 904
SWIDTH 496 0
DWIDTH 4 0
BBX 5 7 -1 0
BITMAP
200000
84A960
065000
067410
069620
065000
06B960
ENDCHAR
STARTCHAR Etatonos
ENCODING 905
SWIDTH 620 0
DWIDTH 5 0
BBX 6 7 -1 0
BITMAP
210000
843044
065065
067485
069695
065065
065065
ENDCHAR
STARTCHAR Iotatonos
ENCODING 906
SWIDTH 250 0
DWIDTH 2 0
BBX 3 7 -1 0
BITMAP
2100
8440
0550
0550
0550
0550
0550
ENDCHAR
STARTCHAR Omicrontonos
ENCODING 908
SWIDTH 610 0
DWIDTH 5 0
BBX 5 7 0 0
BITMAP
200000
86A600
480930
640550
640560
560740
0A9A00
ENDCHAR
STARTCHAR Upsilontonos
ENCODING 910
SWIDTH 573 0
DWIDTH 5 0
BBX 6 7 -1 0
BITMAP
200000
835053
00B0B0
007770
001E10
000B00
000B00
ENDCHAR
STARTCHAR Omegatonos
ENCODING 911
SWIDTH 591 0
DWIDTH 5 0
BBX 5 7 0 0
BITMAP
200000
87A400
480B00
740830
640820
370900
4D7D20
ENDCHAR
STARTCHAR iotadieresistonos
ENCODING 912
SWIDTH 299 0
DWIDTH 2 0
BBX 4 7 -1 0
BITMAP
0040
2564
0120
0460
0460
0460
02C1
ENDCHAR
STARTCHAR Alpha
ENCODING 913
SWIDTH 576 0
DWIDTH 5 0
BBX 5 6 0 0
BITMAP
017000
06C100
0A5500
1A3900
5A8C00
A10740
ENDCHAR
STARTCHAR Beta
ENCODING 914
SWIDTH 545 0
DWIDTH 4 0
BBX 4 6 0 0
BITMAP
4A93
651B
6868
6868
650B
6BA7
ENDCHAR
STARTCHAR Gamma
ENCODING 915
SWIDTH 487 0
DWIDTH 4 0
BBX 4 6 0 0
BITMAP
4A96
5600
5600
5600
5600
5600
ENDCHAR
STARTCHAR Delta.dup1
ENCODING 916
SWIDTH 614 0
DWIDTH 5 0
BBX 5 6 0 0
BITMAP
009000
04D300
094800
0A0B00
460830
AA9B80
ENDCHAR
STARTCHAR Epsilon
ENCODING 917
SWIDTH 496 0
DWIDTH 4 0
BBX 4 6 0 0
BITMAP
4A96
6500
6741
6962
6500
6B96
ENDCHAR
STARTCHAR Zeta
ENCODING 918
SWIDTH 522 0
DWIDTH 4 0
BBX 4 6 0 0
BITMAP
6998
0066
01B0
0840
2A00
9B98
ENDCHAR
STARTCHAR Eta
ENCODING 919
SWIDTH 620 0
DWIDTH 5 0
BBX 5 6 0 0
BITMAP
430440
650650
674850
696950
650650
650650
ENDCHAR
STARTCHAR Theta
ENCODING 920
SWIDTH 593 0
DWIDTH 5 0
BBX 5 7 0 -1
BITMAP
07A400
470B10
833830
856840
650910
1AA800
001000
ENDCHAR
STARTCHAR Iota
ENCODING 921
SWIDTH 250 0
DWIDTH 2 0
BBX 2 6 0 0
BITMAP
44
55
55
55
55
55
ENDCHAR
STARTCHAR Kappa
ENCODING 922
SWIDTH 544 0
DWIDTH 4 0
BBX 5 6 0 0
BITMAP
430800
658500
699000
6CB000
656600
650B10
ENDCHAR
STARTCHAR Lambda
ENCODING 923
SWIDTH 572 0
DWIDTH 5 0
BBX 5 6 0 0
BITMAP
027000
06D000
0A7400
1A3800
560B00
920930
ENDCHAR
STARTCHAR Mu
ENCODING 924
SWIDTH 755 0
DWIDTH 6 0
BBX 6 6 0 0
BITMAP
470064
6D00D6
6B33B6
668866
659A46
656746
ENDCHAR
STARTCHAR Nu
ENCODING 925
SWIDTH 619 0
DWIDTH 5 0
BBX 5 6 0 0
BITMAP
450430
6D1650
687650
659750
653D50
650A50
ENDCHAR
STARTCHAR Xi
ENCODING 926
SWIDTH 502 0
DWIDTH 4 0
BBX 4 6 0 0
BITMAP
5995
0000
1441
1551
0000
5995
ENDCHAR
STARTCHAR Omicron
ENCODING 927
SWIDTH 600 0
DWIDTH 5 0
BBX 5 6 0 0
BITMAP
07A500
470A20
730640
830650
650830
1A9900
ENDCHAR
STARTCHAR Pi
ENCODING 928
SWIDTH 620 0
DWIDTH 5 0
BBX 5 6 0 0
BITMAP
4A9A30
550650
550650
550650
550650
550650
ENDCHAR
STARTCHAR Rho
ENCODING 929
SWIDTH 554 0
DWIDTH 4 0
BBX 5 6 0 0
BITMAP
4A9400
650B10
650B10
6B9600
650000
650000
ENDCHAR
STARTCHAR Sigma
ENCODING 931
SWIDTH 502 0
DWIDTH 4 0
BBX 4 6 0 0
BITMAP
7995
4800
0930
0660
2A00
9B96
ENDCHAR
STARTCHAR Tau
ENCODING 932
SWIDTH 520 0
DWIDTH 4 0
BBX 4 6 0 0
BITMAP
79A9
0470
0470
0470
0470
0470
ENDCHAR
STARTCHAR Upsilon
ENCODING 933
SWIDTH 524 0
DWIDTH 4 0
BBX 4 6 0 0
BITMAP
7108
5638
0A91
0790
0470
0470
ENDCHAR
STARTCHAR Phi
ENCODING 934
SWIDTH 621 0
DWIDTH 5 0
BBX 5 6 0 0
BITMAP
007000
1ADA20
82B280
A1B190
49C940
02C200
ENDCHAR
STARTCHAR Chi
ENCODING 935
SWIDTH 550 0
DWIDTH 4 0
BBX 4 6 0 0
BITMAP
5308
2A57
08C1
06C0
1B75
750C
ENDCHAR
STARTCHAR Psi
ENCODING 936
SWIDTH 600 0
DWIDTH 5 0
BBX 5 6 0 0
BITMAP
717340
A1B560
A2B560
67BA20
06D300
00B000
ENDCHAR
STARTCHAR Omega.dup2
ENCODING 937
SWIDTH 581 0
DWIDTH 5 0
BBX 5 6 0 0
BITMAP
089300
560B00
830910
830910
450A00
5D7C10
ENDCHAR
STARTCHAR Iotadieresis
ENCODING 938
SWIDTH 250 0
DWIDTH 2 0
BBX 4 7 -1 0
BITMAP
2662
0440
0550
0550
0550
0550
0550
ENDCHAR
STARTCHAR Upsilondieresis
ENCODING 939
SWIDTH 524 0
DWIDTH 4 0
BBX 4 7 0 0
BITMAP
1743
7108
5638
0A91
0790
0470
0470
ENDCHAR
STARTCHAR alphatonos
ENCODING 940
SWIDTH 494 0
DWIDTH 4 0
BBX 4 7 0 0
BITMAP
0020
0170
0321
4996
8246
8246
3B9A
ENDCHAR
STARTCHAR epsilontonos
ENCODING 941
SWIDTH 470 0
DWIDTH 4 0
BBX 4 7 0 0
BITMAP
0120
0440
0420
68A2
4A40
7521
5AB2
ENDCHAR
STARTCHAR etatonos
ENCODING 942
SWIDTH 498 0
DWIDTH 4 0
BBX 4 9 0 -2
BITMAP
0020
0350
2240
7894
7446
7446
7446
0046
0024
ENDCHAR
STARTCHAR iotatonos
ENCODING 943
SWIDTH 299 0
DWIDTH 2 0
BBX 3 7 0 0
BITMAP
0100
1800
1200
4600
4600
4600
2C10
ENDCHAR
STARTCHAR upsilondieresistonos
ENCODING 944
SWIDTH 480 0
DWIDTH 4 0
BBX 4 7 0 0
BITMAP
0230
4562
2130
7374
7346
7455
3AB1
ENDCHAR
STARTCHAR alpha
ENCODING 945
SWIDTH 494 0
DWIDTH 4 0
BBX 4 5 0 0
BITMAP
0321
4996
8246
8246
3B9A
ENDCHAR
STARTCHAR beta
ENCODING 946
SWIDTH 517 0
DWIDTH 4 0
BBX 4 8 0 -2
BITMAP
0891
5647
6593
6566
641A
6BA5
6400
3200
ENDCHAR
STARTCHAR gamma
ENCODING 947
SWIDTH 444 0
DWIDTH 4 0
BBX 4 7 0 -2
BITMAP
2011
8282
37A0
0B80
0930
0820
0510
ENDCHAR
STARTCHAR delta
ENCODING 948
SWIDTH 498 0
DWIDTH 4 0
BBX 4 6 0 0
BITMAP
1B80
1B20
29B3
8238
8238
2AA2
ENDCHAR
STARTCHAR epsilon
ENCODING 949
SWIDTH 470 0
DWIDTH 4 0
BBX 4 5 0 0
BITMAP
0320
68A2
4A40
7521
5AB2
ENDCHAR
STARTCHAR zeta
ENCODING 950
SWIDTH 462 0
DWIDTH 4 0
BBX 4 8 0 -2
BITMAP
59A3
01A0
0830
1900
4600
1B60
00A1
0030
ENDCHAR
STARTCHAR eta
ENCODING 951
SWIDTH 498 0
DWIDTH 4 0
BBX 4 7 0 -2
BITMAP
2230
7894
7446
7446
7446
0046
0024
ENDCHAR
STARTCHAR theta
ENCODING 952
SWIDTH 496 0
DWIDTH 4 0
BBX 4 6 0 0
BITMAP
0880
6565
8457
8898
6446
2AA1
ENDCHAR
STARTCHAR iota
ENCODING 953
SWIDTH 299 0
DWIDTH 2 0
BBX 3 5 0 0
BITMAP
1100
4600
4600
4600
2C10
ENDCHAR
STARTCHAR kappa
ENCODING 954
SWIDTH 491 0
DWIDTH 4 0
BBX 4 5 0 0
BITMAP
1112
64A2
6B50
6890
6485
ENDCHAR
STARTCHAR lambda
ENCODING 955
SWIDTH 485 0
DWIDTH 4 0
BBX 4 6 0 0
BITMAP
4800
0A10
0B50
1BA0
56A1
A157
ENDCHAR
STARTCHAR uni03BC
ENCODING 956
SWIDTH 498 0
DWIDTH 4 0
BBX 4 7 0 -2
BITMAP
1111
6446
6446
6446
6BA6
6400
4200
ENDCHAR
STARTCHAR nu
ENCODING 957
SWIDTH 427 0
DWIDTH 3 0
BBX 4 5 0 0
BITMAP
2021
9191
4590
1B60
0A20
ENDCHAR
STARTCHAR xi
ENCODING 958
SWIDTH 431 0
DWIDTH 3 0
BBX 4 8 0 -2
BITMAP
1990
5600
1B70
6500
8200
2B50
0092
0040
ENDCHAR
STARTCHAR omicron
ENCODING 959
SWIDTH 501 0
DWIDTH 4 0
BBX 4 5 0 0
BITMAP
0330
5995
9119
9219
3AA3
ENDCHAR
STARTCHAR pi
ENCODING 960
SWIDTH 520 0
DWIDTH 4 0
BBX 4 5 0 0
BITMAP
3443
7A98
4655
4655
463B
ENDCHAR
STARTCHAR rho
ENCODING 961
SWIDTH 498 0
DWIDTH 4 0
BBX 4 7 0 -2
BITMAP
0230
2A93
6428
7438
7AB3
7400
4200
ENDCHAR
STARTCHAR sigma1
ENCODING 962
SWIDTH 472 0
DWIDTH 4 0
BBX 4 7 0 -2
BITMAP
0320
49A3
8211
8400
1B70
0091
0030
ENDCHAR
STARTCHAR sigma
ENCODING 963
SWIDTH 498 0
DWIDTH 4 0
BBX 4 5 0 0
BITMAP
0243
3AA6
8228
8338
2AA2
ENDCHAR
STARTCHAR tau
ENCODING 964
SWIDTH 460 0
DWIDTH 4 0
BBX 4 5 0 0
BITMAP
2441
4B72
0820
0820
0680
ENDCHAR
STARTCHAR upsilon
ENCODING 965
SWIDTH 480 0
DWIDTH 4 0
BBX 4 5 0 0
BITMAP
2120
7374
7346
7455
3AB1
ENDCHAR
STARTCHAR phi
ENCODING 966
SWIDTH 617 0
DWIDTH 5 0
BBX 5 7 0 -2
BITMAP
011100
56BA20
91A280
82A380
2BDA10
00B000
009000
ENDCHAR
STARTCHAR chi
ENCODING 967
SWIDTH 438 0
DWIDTH 4 0
BBX 4 7 0 -2
BITMAP
3011
6691
0AA0
0850
0B80
47A1
5136
ENDCHAR
STARTCHAR psi
ENCODING 968
SWIDTH 612 0
DWIDTH 5 0
BBX 5 7 0 -2
BITMAP
202210
A1A560
A1A280
83A470
2ADA10
00A000
009000
ENDCHAR
STARTCHAR omega
ENCODING 969
SWIDTH 711 0
DWIDTH 6 0
BBX 6 5 0 0
BITMAP
020030
5600A1
738383
738382
2B89A0
ENDCHAR
STARTCHAR iotadieresis
ENCODING 970
SWIDTH 299 0
DWIDTH 2 0
BBX 4 6 -1 0
BITMAP
1643
0220
0460
0460
0460
02C1
ENDCHAR
STARTCHAR upsilondieresis
ENCODING 971
SWIDTH 480 0
DWIDTH 4 0
BBX 4 6 0 0
BITMAP
3461
2130
7374
7346
7455
3AB1
ENDCHAR
STARTCHAR omicrontonos
ENCODING 972
SWIDTH 501 0
DWIDTH 4 0
BBX 4 7 0 0
BITMAP
0020
0350
0330
5995
9119
9219
3AA3
ENDCHAR
STARTCHAR upsilontonos
ENCODING 973
SWIDTH 480 0
DWIDTH 4 0
BBX 4 7 0 0
BITMAP
0010
0440
2220
7374
7346
7455
3AB1
ENDCHAR
STARTCHAR omegatonos
ENCODING 974
SWIDTH 711 0
DWIDTH 6 0
BBX 6 7 0 0
BITMAP
000100
005400
021030
5600A1
738383
738382
2B89A0
ENDCHAR
STARTCHAR theta1
ENCODING 977
SWIDTH 507 0
DWIDTH 4 0
BBX 4 6 0 0
BITMAP
06A1
0B56
0A76
83AA
8356
3AB2
ENDCHAR
STARTCHAR Upsilon1
ENCODING 978
SWIDTH 465 0
DWIDTH 4 0
BBX 4 6 0 0
BITMAP
9027
6592
1BA0
0950
0730
0730
ENDCHAR
STARTCHAR omega1
ENCODING 982
SWIDTH 678 0
DWIDTH 5 0
BBX 6 5 0 0
BITMAP
244441
7966D1
7481B0
74A2A0
2B8A80
ENDCHAR
STARTCHAR uni0400
ENCODING 1024
SWIDTH 496 0
DWIDTH 4 0
BBX 4 8 0 0
BITMAP
0300
0630
4A96
6500
6741
6962
6500
6B96
ENDCHAR
STARTCHAR uni0401
ENCODING 1025
SWIDTH 496 0
DWIDTH 4 0
BBX 4 7 0 0
BITMAP
1743
4A96
6500
6741
6962
6500
6B96
ENDCHAR
STARTCHAR uni0402
ENCODING 1026
SWIDTH 650 0
DWIDTH 5 0
BBX 5 6 0 0
BITMAP
7A9800
074000
078610
0774A0
0740B0
074770
ENDCHAR
STARTCHAR uni0403
ENCODING 1027
SWIDTH 487 0
DWIDTH 4 0
BBX 4 8 0 0
BITMAP
0021
0180
4A96
5600
5600
5600
5600
5600
ENDCHAR
STARTCHAR uni0404
ENCODING 1028
SWIDTH 589 0
DWIDTH 5 0
BBX 5 6 0 0
BITMAP
079500
480A10
753100
887000
650810
1A9900
ENDCHAR
STARTCHAR uni0405
ENCODING 1029
SWIDTH 518 0
DWIDTH 4 0
BBX 4 6 0 0
BITMAP
1992
751A
4A20
03A6
610B
3AA7
ENDCHAR
STARTCHAR uni0406
ENCODING 1030
SWIDTH 250 0
DWIDTH 2 0
BBX 2 6 0 0
BITMAP
44
55
55
55
55
55
ENDCHAR
STARTCHAR uni0407
ENCODING 1031
SWIDTH 250 0
DWIDTH 2 0
BBX 4 7 -1 0
BITMAP
2662
0440
0550
0550
0550
0550
0550
ENDCHAR
STARTCHAR uni0408
ENCODING 1032
SWIDTH 483 0
DWIDTH 4 0
BBX 4 6 0 0
BITMAP
0043
0064
0064
0064
6074
6AB1
ENDCHAR
STARTCHAR uni0409
ENCODING 1033
SWIDTH 923 0
DWIDTH 7 0
BBX 7 6 0 0
BITMAP
089A3000
0B064000
0B06A720
0A0663B0
0A0640B0
8506B980
ENDCHAR
STARTCHAR uni040A
ENCODING 1034
SWIDTH 927 0
DWIDTH 7 0
BBX 8 6 0 0
BITMAP
44043000
56065000
58388410
596A85B0
560650B1
5606BA80
ENDCHAR
STARTCHAR uni040B
ENCODING 1035
SWIDTH 705 0
DWIDTH 6 0
BBX 5 6 0 0
BITMAP
6AA900
065000
069830
0662B0
0650B0
0650B0
ENDCHAR
STARTCHAR uni040C
ENCODING 1036
SWIDTH 544 0
DWIDTH 4 0
BBX 5 8 0 0
BITMAP
002100
019000
430800
658500
699000
6CB000
656600
650B10
ENDCHAR
STARTCHAR uni040D
ENCODING 1037
SWIDTH 619 0
DWIDTH 5 0
BBX 5 8 0 0
BITMAP
021000
027000
440630
551E40
558840
579640
5D2640
590640
ENDCHAR
STARTCHAR uni040E
ENCODING 1038
SWIDTH 547 0
DWIDTH 4 0
BBX 4 9 0 -1
BITMAP
0101
0892
5308
392A
0B65
07D1
02A0
0A30
0100
ENDCHAR
STARTCHAR uni040F
ENCODING 1039
SWIDTH 621 0
DWIDTH 5 0
BBX 5 8 0 -2
BITMAP
440430
550650
550650
550650
550650
5B9C50
00B000
004000
ENDCHAR
STARTCHAR uni0410
ENCODING 1040
SWIDTH 576 0
DWIDTH 5 0
BBX 5 6 0 0
BITMAP
017000
06C100
0A5500
1A3900
5A8C00
A10740
ENDCHAR
STARTCHAR uni0411
ENCODING 1041
SWIDTH 549 0
DWIDTH 4 0
BBX 5 6 0 0
BITMAP
4A9500
650000
695100
674C00
650B10
6B9800
ENDCHAR
STARTCHAR uni0412
ENCODING 1042
SWIDTH 545 0
DWIDTH 4 0
BBX 4 6 0 0
BITMAP
4A93
651B
6868
6868
650B
6BA7
ENDCHAR
STARTCHAR uni0413
ENCODING 1043
SWIDTH 487 0
DWIDTH 4 0
BBX 4 6 0 0
BITMAP
4A96
5600
5600
5600
5600
5600
ENDCHAR
STARTCHAR uni0414
ENCODING 1044
SWIDTH 660 0
DWIDTH 5 0
BBX 5 8 0 -2
BITMAP
069A40
0A1550
0A1550
0B0550
0A0550
9C9BB0
B000B0
400040
ENDCHAR
STARTCHAR uni0415
ENCODING 1045
SWIDTH 496 0
DWIDTH 4 0
BBX 4 6 0 0
BITMAP
4A96
6500
6741
6962
6500
6B96
ENDCHAR
STARTCHAR uni0416
ENCODING 1046
SWIDTH 791 0
DWIDTH 6 0
BBX 7 6 0 0
BITMAP
53260800
2A285700
087AA000
089BB000
1B286700
95280C10
ENDCHAR
STARTCHAR uni0417
ENCODING 1047
SWIDTH 517 0
DWIDTH 4 0
BBX 4 6 0 0
BITMAP
1992
632A
0167
0396
510B
4AA5
ENDCHAR
STARTCHAR uni0418
ENCODING 1048
SWIDTH 619 0
DWIDTH 5 0
BBX 5 6 0 0
BITMAP
440630
551E40
558840
579640
5D2640
590640
ENDCHAR
STARTCHAR uni0419
ENCODING 1049
SWIDTH 619 0
DWIDTH 5 0
BBX 5 8 0 0
BITMAP
010100
068600
440630
551E40
558840
579640
5D2640
590640
ENDCHAR
STARTCHAR uni041A
ENCODING 1050
SWIDTH 560 0
DWIDTH 4 0
BBX 5 6 0 0
BITMAP
440810
555800
58B000
5AB000
556600
550B20
ENDCHAR
STARTCHAR uni041B
ENCODING 1051
SWIDTH 615 0
DWIDTH 5 0
BBX 5 6 0 0
BITMAP
079A30
0B0740
0A0740
0A0740
0A0740
850740
ENDCHAR
STARTCHAR uni041C
ENCODING 1052
SWIDTH 755 0
DWIDTH 6 0
BBX 6 6 0 0
BITMAP
470064
6D00D6
6B33B6
668866
659A46
656746
ENDCHAR
STARTCHAR uni041D
ENCODING 1053
SWIDTH 620 0
DWIDTH 5 0
BBX 5 6 0 0
BITMAP
430440
650650
674850
696950
650650
650650
ENDCHAR
STARTCHAR uni041E
ENCODING 1054
SWIDTH 600 0
DWIDTH 5 0
BBX 5 6 0 0
BITMAP
07A500
470A20
730640
830650
650830
1A9900
ENDCHAR
STARTCHAR uni041F
ENCODING 1055
SWIDTH 620 0
DWIDTH 5 0
BBX 5 6 0 0
BITMAP
4A9A30
550650
550650
550650
550650
550650
ENDCHAR
STARTCHAR uni0420
ENCODING 1056
SWIDTH 554 0
DWIDTH 4 0
BBX 5 6 0 0
BITMAP
4A9400
650B10
650B10
6B9600
650000
650000
ENDCHAR
STARTCHAR uni0421
ENCODING 1057
SWIDTH 566 0
DWIDTH 5 0
BBX 5 6 0 0
BITMAP
079500
470A10
730100
830000
650810
1A9900
ENDCHAR
STARTCHAR uni0422
ENCODING 1058
SWIDTH 520 0
DWIDTH 4 0
BBX 4 6 0 0
BITMAP
79A9
0470
0470
0470
0470
0470
ENDCHAR
STARTCHAR uni0423
ENCODING 1059
SWIDTH 547 0
DWIDTH 4 0
BBX 4 7 0 -1
BITMAP
5308
392A
0B65
07D1
02A0
0A30
0100
ENDCHAR
STARTCHAR uni0424
ENCODING 1060
SWIDTH 676 0
DWIDTH 5 0
BBX 5 7 0 -1
BITMAP
009200
1AC960
7291A0
819190
48A490
04C710
002000
ENDCHAR
STARTCHAR uni0425
ENCODING 1061
SWIDTH 550 0
DWIDTH 4 0
BBX 4 6 0 0
BITMAP
5308
2A57
08C1
06C0
1B75
750C
ENDCHAR
STARTCHAR uni0426
ENCODING 1062
SWIDTH 639 0
DWIDTH 5 0
BBX 5 8 0 -2
BITMAP
440430
560650
560650
560650
560650
5B9C90
0000A0
000040
ENDCHAR
STARTCHAR uni0427
ENCODING 1063
SWIDTH 600 0
DWIDTH 5 0
BBX 5 6 0 0
BITMAP
530620
740820
650820
199C20
000820
000820
ENDCHAR
STARTCHAR uni0428
ENCODING 1064
SWIDTH 814 0
DWIDTH 7 0
BBX 6 6 0 0
BITMAP
441607
56190B
56190B
56190B
56190B
5BAD9C
ENDCHAR
STARTCHAR uni0429
ENCODING 1065
SWIDTH 841 0
DWIDTH 7 0
BBX 7 8 0 -2
BITMAP
44160700
56190B00
56190B00
56190B00
56190B00
5BAD9D30
00000550
00000220
ENDCHAR
STARTCHAR uni042A
ENCODING 1066
SWIDTH 651 0
DWIDTH 5 0
BBX 5 6 0 0
BITMAP
7A1000
092000
097510
0955A0
0920B0
09AA60
ENDCHAR
STARTCHAR uni042B
ENCODING 1067
SWIDTH 755 0
DWIDTH 6 0
BBX 6 6 0 0
BITMAP
440044
560055
595255
584C65
560A75
5B9955
ENDCHAR
STARTCHAR uni042C
ENCODING 1068
SWIDTH 551 0
DWIDTH 4 0
BBX 5 6 0 0
BITMAP
430000
650000
695100
674C00
650B10
6B9800
ENDCHAR
STARTCHAR uni042D
ENCODING 1069
SWIDTH 589 0
DWIDTH 5 0
BBX 5 7 0 -1
BITMAP
079400
470A10
112840
027B40
450920
1A9800
001000
ENDCHAR
STARTCHAR uni042E
ENCODING 1070
SWIDTH 765 0
DWIDTH 6 0
BBX 6 6 0 0
BITMAP
443A91
55A129
56B00B
5AB00B
55B01A
555AB4
ENDCHAR
STARTCHAR uni042F
ENCODING 1071
SWIDTH 562 0
DWIDTH 5 0
BBX 4 6 0 0
BITMAP
0798
570B
560B
0B9C
0B0B
650B
ENDCHAR
STARTCHAR uni0430
ENCODING 1072
SWIDTH 479 0
DWIDTH 4 0
BBX 4 5 0 0
BITMAP
0330
48A2
07B4
7564
5BB5
ENDCHAR
STARTCHAR uni0431
ENCODING 1073
SWIDTH 484 0
DWIDTH 4 0
BBX 4 6 0 0
BITMAP
03A3
2910
79B2
9238
8238
2AA2
ENDCHAR
STARTCHAR uni0432
ENCODING 1074
SWIDTH 503 0
DWIDTH 4 0
BBX 4 5 0 0
BITMAP
1420
6895
69A3
6657
6AA5
ENDCHAR
STARTCHAR uni0433
ENCODING 1075
SWIDTH 371 0
DWIDTH 3 0
BBX 3 5 0 0
BITMAP
1430
6850
6400
6400
6400
ENDCHAR
STARTCHAR uni0434
ENCODING 1076
SWIDTH 536 0
DWIDTH 4 0
BBX 4 7 0 -2
BITMAP
0342
0B88
0A38
1938
9BAC
B00A
3003
ENDCHAR
STARTCHAR uni0435
ENCODING 1077
SWIDTH 468 0
DWIDTH 4 0
BBX 4 5 0 0
BITMAP
0330
5893
98A6
9311
3A92
ENDCHAR
STARTCHAR uni0436
ENCODING 1078
SWIDTH 662 0
DWIDTH 5 0
BBX 5 5 0 0
BITMAP
202030
56A290
0BDB20
1AB850
94A1C0
ENDCHAR
STARTCHAR uni0437
ENCODING 1079
SWIDTH 446 0
DWIDTH 4 0
BBX 4 5 0 0
BITMAP
0320
67B1
06B0
22A1
5AB1
ENDCHAR
STARTCHAR uni0438
ENCODING 1080
SWIDTH 509 0
DWIDTH 4 0
BBX 4 5 0 0
BITMAP
1112
6497
65A7
6B47
6837
ENDCHAR
STARTCHAR uni0439
ENCODING 1081
SWIDTH 509 0
DWIDTH 4 0
BBX 4 6 0 0
BITMAP
1871
1332
6497
65A7
6B47
6837
ENDCHAR
STARTCHAR uni043A
ENCODING 1082
SWIDTH 479 0
DWIDTH 4 0
BBX 4 5 0 0
BITMAP
1112
64A2
6B60
68A0
6475
ENDCHAR
STARTCHAR uni043B
ENCODING 1083
SWIDTH 509 0
DWIDTH 4 0
BBX 4 5 0 0
BITMAP
0342
0C78
0A38
2838
9438
ENDCHAR
STARTCHAR uni043C
ENCODING 1084
SWIDTH 645 0
DWIDTH 5 0
BBX 5 5 0 0
BITMAP
120120
6B0890
6C1B90
679790
64C290
ENDCHAR
STARTCHAR uni043D
ENCODING 1085
SWIDTH 508 0
DWIDTH 4 0
BBX 4 5 0 0
BITMAP
1112
6437
6887
6657
6437
ENDCHAR
STARTCHAR uni043E
ENCODING 1086
SWIDTH 501 0
DWIDTH 4 0
BBX 4 5 0 0
BITMAP
0330
5995
9119
9219
3AA3
ENDCHAR
STARTCHAR uni043F
ENCODING 1087
SWIDTH 509 0
DWIDTH 4 0
BBX 4 5 0 0
BITMAP
1442
6887
6437
6437
6437
ENDCHAR
STARTCHAR uni0440
ENCODING 1088
SWIDTH 493 0
DWIDTH 4 0
BBX 4 7 0 -2
BITMAP
2230
7895
7328
7328
7AB3
7300
5200
ENDCHAR
STARTCHAR uni0441
ENCODING 1089
SWIDTH 461 0
DWIDTH 4 0
BBX 4 5 0 0
BITMAP
0330
58A3
9111
9212
3AB2
ENDCHAR
STARTCHAR uni0442
ENCODING 1090
SWIDTH 424 0
DWIDTH 3 0
BBX 4 5 0 0
BITMAP
3441
4C61
0A00
0A00
0A00
ENDCHAR
STARTCHAR uni0443
ENCODING 1091
SWIDTH 416 0
DWIDTH 3 0
BBX 3 7 0 -2
BITMAP
3020
A1A0
55A0
1C60
0B20
0900
6400
ENDCHAR
STARTCHAR uni0444
ENCODING 1092
SWIDTH 628 0
DWIDTH 5 0
BBX 5 8 0 -2
BITMAP
00A000
03B300
58C850
92A190
82A290
3ADB40
00A000
006000
ENDCHAR
STARTCHAR uni0445
ENCODING 1093
SWIDTH 438 0
DWIDTH 4 0
BBX 4 5 0 0
BITMAP
2021
66B0
0C50
1B70
84A1
ENDCHAR
STARTCHAR uni0446
ENCODING 1094
SWIDTH 524 0
DWIDTH 4 0
BBX 4 7 0 -2
BITMAP
1112
6437
6437
6437
6BAB
000A
0002
ENDCHAR
STARTCHAR uni0447
ENCODING 1095
SWIDTH 479 0
DWIDTH 4 0
BBX 4 5 0 0
BITMAP
2021
9174
8474
18B4
0074
ENDCHAR
STARTCHAR uni0448
ENCODING 1096
SWIDTH 703 0
DWIDTH 6 0
BBX 6 5 0 0
BITMAP
112120
6482A1
6482A1
6482A1
6BCAD1
ENDCHAR
STARTCHAR uni0449
ENCODING 1097
SWIDTH 722 0
DWIDTH 6 0
BBX 6 7 0 -2
BITMAP
212020
7492A0
7492A0
7492A0
7ACAD5
000027
000012
ENDCHAR
STARTCHAR uni044A
ENCODING 1098
SWIDTH 538 0
DWIDTH 4 0
BBX 5 5 0 0
BITMAP
330000
4B0000
0B9700
0A0A10
0B9A00
ENDCHAR
STARTCHAR uni044B
ENCODING 1099
SWIDTH 679 0
DWIDTH 5 0
BBX 5 5 0 0
BITMAP
110020
6400A0
6A91A0
6456A0
6BB3A0
ENDCHAR
STARTCHAR uni044C
ENCODING 1100
SWIDTH 478 0
DWIDTH 4 0
BBX 4 5 0 0
BITMAP
1100
6400
6A91
6456
6BB3
ENDCHAR
STARTCHAR uni044D
ENCODING 1101
SWIDTH 472 0
DWIDTH 4 0
BBX 4 5 0 0
BITMAP
0320
68A1
14A4
4284
4AA0
ENDCHAR
STARTCHAR uni044E
ENCODING 1102
SWIDTH 706 0
DWIDTH 6 0
BBX 6 5 0 0
BITMAP
110410
6496B1
69B074
66B073
6469A0
ENDCHAR
STARTCHAR uni044F
ENCODING 1103
SWIDTH 482 0
DWIDTH 4 0
BBX 4 5 0 0
BITMAP
0341
6894
7684
2B94
8364
ENDCHAR
STARTCHAR uni0450
ENCODING 1104
SWIDTH 468 0
DWIDTH 4 0
BBX 4 6 0 0
BITMAP
1A10
0430
5893
98A6
9311
3A92
ENDCHAR
STARTCHAR uni0451
ENCODING 1105
SWIDTH 468 0
DWIDTH 4 0
BBX 4 6 0 0
BITMAP
3562
0330
5893
98A6
9311
3A92
ENDCHAR
STARTCHAR uni0452
ENCODING 1106
SWIDTH 482 0
DWIDTH 4 0
BBX 4 8 0 -2
BITMAP
A710
9840
79A3
7355
7355
7355
0065
0191
ENDCHAR
STARTCHAR uni0453
ENCODING 1107
SWIDTH 371 0
DWIDTH 3 0
BBX 3 6 0 0
BITMAP
0640
1630
6850
6400
6400
6400
ENDCHAR
STARTCHAR uni0454
ENCODING 1108
SWIDTH 472 0
DWIDTH 4 0
BBX 4 5 0 0
BITMAP
0330
4993
8731
8522
2AA2
ENDCHAR
STARTCHAR uni0455
ENCODING 1109
SWIDTH 455 0
DWIDTH 4 0
BBX 4 5 0 0
BITMAP
0320
58B1
4A30
22A2
5AB1
ENDCHAR
STARTCHAR uni0456
ENCODING 1110
SWIDTH 229 0
DWIDTH 2 0
BBX 2 6 0 0
BITMAP
43
21
64
64
64
64
ENDCHAR
STARTCHAR uni0457
ENCODING 1111
SWIDTH 234 0
DWIDTH 2 0
BBX 4 6 -1 0
BITMAP
3562
0210
0640
0640
0640
0640
ENDCHAR
STARTCHAR uni0458
ENCODING 1112
SWIDTH 223 0
DWIDTH 2 0
BBX 3 8 -1 -2
BITMAP
0520
0210
0730
0730
0730
0730
0730
1900
ENDCHAR
STARTCHAR uni0459
ENCODING 1113
SWIDTH 729 0
DWIDTH 6 0
BBX 6 5 0 0
BITMAP
034100
0C9500
195B81
285547
935BA4
ENDCHAR
STARTCHAR uni045A
ENCODING 1114
SWIDTH 743 0
DWIDTH 6 0
BBX 6 5 0 0
BITMAP
111200
643700
6AAC82
64372A
643CA5
ENDCHAR
STARTCHAR uni045B
ENCODING 1115
SWIDTH 499 0
DWIDTH 4 0
BBX 4 6 0 0
BITMAP
9710
9740
79A3
7355
7355
7355
ENDCHAR
STARTCHAR uni045C
ENCODING 1116
SWIDTH 479 0
DWIDTH 4 0
BBX 4 6 0 0
BITMAP
0290
1312
64A2
6B60
68A0
6475
ENDCHAR
STARTCHAR uni045D
ENCODING 1117
SWIDTH 509 0
DWIDTH 4 0
BBX 4 6 0 0
BITMAP
0910
1222
6497
65A7
6B47
6837
ENDCHAR
STARTCHAR uni045E
ENCODING 1118
SWIDTH 416 0
DWIDTH 3 0
BBX 3 8 0 -2
BITMAP
4780
3230
A1A0
55A0
1C60
0B20
0900
6400
ENDCHAR
STARTCHAR uni045F
ENCODING 1119
SWIDTH 509 0
DWIDTH 4 0
BBX 4 7 0 -2
BITMAP
1112
6437
6437
6437
6BA7
0460
0220
ENDCHAR
STARTCHAR uni0460
ENCODING 1120
SWIDTH 754 0
DWIDTH 6 0
BBX 6 6 0 0
BITMAP
433425
645638
645638
645638
656747
2BAAB3
ENDCHAR
STARTCHAR uni0461
ENCODING 1121
SWIDTH 650 0
DWIDTH 5 0
BBX 5 5 0 0
BITMAP
212020
82A0A0
82A0A0
83B0A0
4BBA80
ENDCHAR
STARTCHAR uni0462
ENCODING 1122
SWIDTH 551 0
DWIDTH 4 0
BBX 6 6 -1 0
BITMAP
043000
1BB000
069510
0674C0
0650B1
06B980
ENDCHAR
STARTCHAR uni0463
ENCODING 1123
SWIDTH 477 0
DWIDTH 4 0
BBX 4 7 0 0
BITMAP
1000
6400
BA30
6400
6BA2
6456
6BB2
ENDCHAR
STARTCHAR uni0464
ENCODING 1124
SWIDTH 772 0
DWIDTH 6 0
BBX 6 6 0 0
BITMAP
442991
55A148
58C421
59C520
55B027
555AB3
ENDCHAR
STARTCHAR uni0465
ENCODING 1125
SWIDTH 646 0
DWIDTH 5 0
BBX 5 5 0 0
BITMAP
211400
74A690
7AB520
77A230
749970
ENDCHAR
STARTCHAR uni0466
ENCODING 1126
SWIDTH 526 0
DWIDTH 4 0
BBX 5 6 0 0
BITMAP
027000
07D000
0A8300
1C8700
59AB00
948A10
ENDCHAR
STARTCHAR uni0467
ENCODING 1127
SWIDTH 470 0
DWIDTH 4 0
BBX 4 5 0 0
BITMAP
0210
0A60
19A0
6CD1
A876
ENDCHAR
STARTCHAR uni0468
ENCODING 1128
SWIDTH 759 0
DWIDTH 6 0
BBX 6 6 0 0
BITMAP
340540
460A90
461AA0
498AA3
49B998
46B65B
ENDCHAR
STARTCHAR uni0469
ENCODING 1129
SWIDTH 654 0
DWIDTH 5 0
BBX 5 5 0 0
BITMAP
110200
564D00
569930
5BDC80
597AA0
ENDCHAR
STARTCHAR uni046A
ENCODING 1130
SWIDTH 747 0
DWIDTH 6 0
BBX 6 6 0 0
BITMAP
099990
066560
01CC10
3BAAB2
745546
745547
ENDCHAR
STARTCHAR uni046B
ENCODING 1131
SWIDTH 645 0
DWIDTH 5 0
BBX 5 5 0 0
BITMAP
034400
098C00
05D800
49B760
64A190
ENDCHAR
STARTCHAR uni046C
ENCODING 1132
SWIDTH 980 0
DWIDTH 8 0
BBX 8 6 0 0
BITMAP
440A9980
55084740
5734BC10
59AAB9B1
55827464
55927465
ENDCHAR
STARTCHAR uni046D
ENCODING 1133
SWIDTH 856 0
DWIDTH 7 0
BBX 7 5 0 0
BITMAP
11144300
640C8800
685BD400
67B6BA20
64A19640
ENDCHAR
STARTCHAR uni046E
ENCODING 1134
SWIDTH 454 0
DWIDTH 4 0
BBX 4 10 0 -2
BITMAP
1450
0520
5940
00B0
04A0
0690
0091
38A0
9200
3300
ENDCHAR
STARTCHAR uni046F
ENCODING 1135
SWIDTH 423 0
DWIDTH 3 0
BBX 3 9 0 -2
BITMAP
1120
1A30
2300
36A0
0790
03B0
28A0
9200
3300
ENDCHAR
STARTCHAR uni0470
ENCODING 1136
SWIDTH 600 0
DWIDTH 5 0
BBX 5 6 0 0
BITMAP
717340
A1B560
A2B560
67BA20
06D300
00B000
ENDCHAR
STARTCHAR uni0471
ENCODING 1137
SWIDTH 612 0
DWIDTH 5 0
BBX 5 7 0 -2
BITMAP
202210
A1A560
A1A280
83A470
2ADA10
00A000
009000
ENDCHAR
STARTCHAR uni0472
ENCODING 1138
SWIDTH 593 0
DWIDTH 5 0
BBX 5 7 0 -1
BITMAP
07A400
470B10
842830
887B40
650910
1AA800
001000
ENDCHAR
STARTCHAR uni0473
ENCODING 1139
SWIDTH 497 0
DWIDTH 4 0
BBX 4 5 0 0
BITMAP
0330
4994
9889
8448
2AA2
ENDCHAR
STARTCHAR uni0474
ENCODING 1140
SWIDTH 553 0
DWIDTH 4 0
BBX 5 6 0 0
BITMAP
800720
830A00
374600
0A7200
099000
059000
ENDCHAR
STARTCHAR uni0475
ENCODING 1141
SWIDTH 443 0
DWIDTH 4 0
BBX 4 5 0 0
BITMAP
2012
8293
46A0
0A70
0A20
ENDCHAR
STARTCHAR uni0476
ENCODING 1142
SWIDTH 553 0
DWIDTH 4 0
BBX 5 7 0 0
BITMAP
397000
811720
830A00
374600
0A7200
099000
059000
ENDCHAR
STARTCHAR uni0477
ENCODING 1143
SWIDTH 443 0
DWIDTH 4 0
BBX 4 6 0 0
BITMAP
7820
3332
8293
46A0
0A70
0A20
ENDCHAR
STARTCHAR uni0478
ENCODING 1144
SWIDTH 1017 0
DWIDTH 8 0
BBX 8 8 0 -2
BITMAP
07A50000
470A2303
73064B0B
83065857
650834C3
1A9900D0
00000190
00000820
ENDCHAR
STARTCHAR uni0479
ENCODING 1145
SWIDTH 918 0
DWIDTH 7 0
BBX 8 7 0 -2
BITMAP
03303021
599591A0
911956A0
92191C60
3AA30B20
00000900
00006400
ENDCHAR
STARTCHAR uni047A
ENCODING 1146
SWIDTH 593 0
DWIDTH 5 0
BBX 5 8 0 -1
BITMAP
002000
07D400
573B10
820730
920740
650920
1AE800
006000
ENDCHAR
STARTCHAR uni047B
ENCODING 1147
SWIDTH 498 0
DWIDTH 4 0
BBX 4 6 0 -1
BITMAP
0550
4BB4
9229
8238
2DD2
0220
ENDCHAR
STARTCHAR uni047C
ENCODING 1148
SWIDTH 752 0
DWIDTH 6 0
BBX 6 8 0 0
BITMAP
003100
007940
073371
560056
641147
645647
656647
2BAAB3
ENDCHAR
STARTCHAR uni047D
ENCODING 1149
SWIDTH 654 0
DWIDTH 5 0
BBX 5 6 0 0
BITMAP
039810
027310
561390
8230A0
83B0A0
4BBA70
ENDCHAR
STARTCHAR uni047E
ENCODING 1150
SWIDTH 754 0
DWIDTH 6 0
BBX 6 7 0 0
BITMAP
028930
433425
645638
645638
645638
656747
2BAAB3
ENDCHAR
STARTCHAR uni047F
ENCODING 1151
SWIDTH 650 0
DWIDTH 5 0
BBX 5 6 0 0
BITMAP
059600
215020
82A0A0
82A0A0
83B0A0
4BBA80
ENDCHAR
STARTCHAR uni0480
ENCODING 1152
SWIDTH 570 0
DWIDTH 5 0
BBX 4 8 0 -2
BITMAP
0794
470B
8301
8300
6500
1A60
00B0
0050
ENDCHAR
STARTCHAR uni0481
ENCODING 1153
SWIDTH 472 0
DWIDTH 4 0
BBX 4 7 0 -2
BITMAP
0320
49A2
8211
8300
2A30
0550
0320
ENDCHAR
STARTCHAR uni0482
ENCODING 1154
SWIDTH 547 0
DWIDTH 4 0
BBX 4 6 0 0
BITMAP
0002
0446
01D5
4564
0B70
2720
ENDCHAR
STARTCHAR uni0483
ENCODING 1155
SWIDTH 0 0
DWIDTH 0 0
BBX 3 2 -3 4
BITMAP
8850
3000
ENDCHAR
STARTCHAR uni0484
ENCODING 1156
SWIDTH 0 0
DWIDTH 0 0
BBX 3 1 -3 5
BITMAP
7760
ENDCHAR
STARTCHAR uni0485
ENCODING 1157
SWIDTH 0 0
DWIDTH 0 0
BBX 2 2 -3 5
BITMAP
13
06
ENDCHAR
STARTCHAR uni0486
ENCODING 1158
SWIDTH 0 0
DWIDTH 0 0
BBX 1 2 -2 5
BITMAP
30
60
ENDCHAR
STARTCHAR uni0488
ENCODING 1160
SWIDTH 0 0
DWIDTH 0 0
BBX 8 8 -6 -2
BITMAP
00054000
06200350
00100110
54000054
11000011
16200350
01143110
00011000
ENDCHAR
STARTCHAR uni0489
ENCODING 1161
SWIDTH 0 0
DWIDTH 0 0
BBX 8 8 -6 -2
BITMAP
00032000
05050240
03100400
52000051
12000022
02200400
05151320
00040000
ENDCHAR
STARTCHAR uni048A
ENCODING 1162
SWIDTH 666 0
DWIDTH 5 0
BBX 5 10 0 -2
BITMAP
010100
048700
440630
551E40
558840
579640
5D2640
5906A0
0000A0
000020
ENDCHAR
STARTCHAR uni048B
ENCODING 1163
SWIDTH 550 0
DWIDTH 4 0
BBX 5 8 0 -2
BITMAP
086300
124200
649700
65A700
6B4700
683B20
000910
000300
ENDCHAR
STARTCHAR uni048C
ENCODING 1164
SWIDTH 551 0
DWIDTH 4 0
BBX 6 6 -1 0
BITMAP
043000
1BB000
069510
0674C0
0650B1
06B980
ENDCHAR
STARTCHAR uni048D
ENCODING 1165
SWIDTH 477 0
DWIDTH 4 0
BBX 4 7 0 0
BITMAP
3200
BB30
6400
6400
6BA2
6456
6BB2
ENDCHAR
STARTCHAR uni048E
ENCODING 1166
SWIDTH 557 0
DWIDTH 4 0
BBX 5 6 0 0
BITMAP
4A9500
650B10
653D10
6B9B10
650000
650000
ENDCHAR
STARTCHAR uni048F
ENCODING 1167
SWIDTH 496 0
DWIDTH 4 0
BBX 4 7 0 -2
BITMAP
2230
79A4
7328
7368
7AD6
7302
5200
ENDCHAR
STARTCHAR uni0490
ENCODING 1168
SWIDTH 479 0
DWIDTH 4 0
BBX 4 7 0 0
BITMAP
0028
4AA8
6500
6500
6500
6500
6500
ENDCHAR
STARTCHAR uni0491
ENCODING 1169
SWIDTH 395 0
DWIDTH 3 0
BBX 3 6 0 0
BITMAP
0050
24B0
7850
7400
7400
7400
ENDCHAR
STARTCHAR uni0492
ENCODING 1170
SWIDTH 487 0
DWIDTH 4 0
BBX 4 6 0 0
BITMAP
4A96
5600
8810
8910
5600
5600
ENDCHAR
STARTCHAR uni0493
ENCODING 1171
SWIDTH 371 0
DWIDTH 3 0
BBX 3 5 0 0
BITMAP
1430
6850
A910
7500
6400
ENDCHAR
STARTCHAR uni0494
ENCODING 1172
SWIDTH 539 0
DWIDTH 4 0
BBX 4 8 0 -2
BITMAP
4A96
5600
5820
5986
560A
560A
0067
0010
ENDCHAR
STARTCHAR uni0495
ENCODING 1173
SWIDTH 443 0
DWIDTH 4 0
BBX 4 6 0 -1
BITMAP
2430
7850
7930
75B1
7483
01A0
ENDCHAR
STARTCHAR uni0496
ENCODING 1174
SWIDTH 833 0
DWIDTH 7 0
BBX 7 8 0 -2
BITMAP
53260800
2A285700
087AA000
089BB000
1B286700
95280E50
00000380
00000130
ENDCHAR
STARTCHAR uni0497
ENCODING 1175
SWIDTH 696 0
DWIDTH 6 0
BBX 6 7 0 -2
BITMAP
202030
56A290
0BDB20
1AB850
94A1F3
000055
000022
ENDCHAR
STARTCHAR uni0498
ENCODING 1176
SWIDTH 517 0
DWIDTH 4 0
BBX 4 8 0 -2
BITMAP
1992
632A
0167
0396
510B
4CC5
0460
0340
ENDCHAR
STARTCHAR uni0499
ENCODING 1177
SWIDTH 446 0
DWIDTH 4 0
BBX 4 7 0 -2
BITMAP
0320
67B1
06B0
22A1
5CC1
0920
0610
ENDCHAR
STARTCHAR uni049A
ENCODING 1178
SWIDTH 617 0
DWIDTH 5 0
BBX 5 8 0 -2
BITMAP
440810
555800
58B000
5AB000
556600
550C70
000290
000140
ENDCHAR
STARTCHAR uni049B
ENCODING 1179
SWIDTH 524 0
DWIDTH 4 0
BBX 4 7 0 -2
BITMAP
1112
64A2
6B60
68A0
647C
000A
0004
ENDCHAR
STARTCHAR uni049C
ENCODING 1180
SWIDTH 553 0
DWIDTH 4 0
BBX 5 6 0 0
BITMAP
430810
662900
6BA200
6DC200
674900
650B20
ENDCHAR
STARTCHAR uni049D
ENCODING 1181
SWIDTH 498 0
DWIDTH 4 0
BBX 4 5 0 0
BITMAP
1103
6656
6DB0
6BB2
643A
ENDCHAR
STARTCHAR uni049E
ENCODING 1182
SWIDTH 570 0
DWIDTH 5 0
BBX 5 6 0 0
BITMAP
350820
AC6900
48B100
4AB000
475800
470A30
ENDCHAR
STARTCHAR uni049F
ENCODING 1183
SWIDTH 462 0
DWIDTH 4 0
BBX 5 6 -1 0
BITMAP
198000
187110
065A10
06B700
066A00
065750
ENDCHAR
STARTCHAR uni04A0
ENCODING 1184
SWIDTH 710 0
DWIDTH 6 0
BBX 6 6 0 0
BITMAP
696072
0383A0
039B10
03BB10
038490
038094
ENDCHAR
STARTCHAR uni04A1
ENCODING 1185
SWIDTH 607 0
DWIDTH 5 0
BBX 5 5 0 0
BITMAP
241120
495930
05B700
058A00
055670
ENDCHAR
STARTCHAR uni04A2
ENCODING 1186
SWIDTH 662 0
DWIDTH 5 0
BBX 5 8 0 -2
BITMAP
430440
650650
674850
696950
650650
6506B0
0000A0
000040
ENDCHAR
STARTCHAR uni04A3
ENCODING 1187
SWIDTH 541 0
DWIDTH 4 0
BBX 5 7 0 -2
BITMAP
111200
643700
688700
665700
643D10
000910
000410
ENDCHAR
STARTCHAR uni04A4
ENCODING 1188
SWIDTH 829 0
DWIDTH 7 0
BBX 7 6 0 0
BITMAP
43049930
65065000
67485000
69695000
65065000
65065000
ENDCHAR
STARTCHAR uni04A5
ENCODING 1189
SWIDTH 614 0
DWIDTH 5 0
BBX 5 5 0 0
BITMAP
211420
744A30
788700
766700
744700
ENDCHAR
STARTCHAR uni04A6
ENCODING 1190
SWIDTH 880 0
DWIDTH 7 0
BBX 7 8 0 -2
BITMAP
4A9A3000
56065000
56067100
56069A30
56065290
56065290
00000930
00000100
ENDCHAR
STARTCHAR uni04A7
ENCODING 1191
SWIDTH 755 0
DWIDTH 6 0
BBX 6 6 0 -1
BITMAP
244200
788700
744B60
744858
74470A
000075
ENDCHAR
STARTCHAR uni04A8
ENCODING 1192
SWIDTH 641 0
DWIDTH 5 0
BBX 5 7 0 -1
BITMAP
084A20
56A190
83B0B0
83B0B0
669580
0AAE80
000010
ENDCHAR
STARTCHAR uni04A9
ENCODING 1193
SWIDTH 528 0
DWIDTH 4 0
BBX 4 5 0 0
BITMAP
0231
58A9
876A
769A
1ADB
ENDCHAR
STARTCHAR uni04AA
ENCODING 1194
SWIDTH 566 0
DWIDTH 5 0
BBX 5 8 0 -2
BITMAP
079500
470A10
730100
830000
650810
1AC900
00B000
007000
ENDCHAR
STARTCHAR uni04AB
ENCODING 1195
SWIDTH 461 0
DWIDTH 4 0
BBX 4 7 0 -2
BITMAP
0330
58A3
9111
9212
3CB2
0830
0520
ENDCHAR
STARTCHAR uni04AC
ENCODING 1196
SWIDTH 520 0
DWIDTH 4 0
BBX 4 8 0 -2
BITMAP
79A9
0470
0470
0470
0470
04C0
00A0
0040
ENDCHAR
STARTCHAR uni04AD
ENCODING 1197
SWIDTH 424 0
DWIDTH 3 0
BBX 4 7 0 -2
BITMAP
3441
4C61
0A00
0A00
0A60
01A0
0040
ENDCHAR
STARTCHAR uni04AE
ENCODING 1198
SWIDTH 524 0
DWIDTH 4 0
BBX 4 6 0 0
BITMAP
7108
5638
0A91
0790
0470
0470
ENDCHAR
STARTCHAR uni04AF
ENCODING 1199
SWIDTH 444 0
DWIDTH 4 0
BBX 4 7 0 -2
BITMAP
2011
8282
37A0
0B80
0930
0820
0510
ENDCHAR
STARTCHAR uni04B0
ENCODING 1200
SWIDTH 524 0
DWIDTH 4 0
BBX 4 6 0 0
BITMAP
7108
5638
0B91
0CD2
0470
0470
ENDCHAR
STARTCHAR uni04B1
ENCODING 1201
SWIDTH 444 0
DWIDTH 4 0
BBX 4 7 0 -2
BITMAP
2011
8282
37A0
0B80
2D90
0930
0510
ENDCHAR
STARTCHAR uni04B2
ENCODING 1202
SWIDTH 559 0
DWIDTH 4 0
BBX 5 8 0 -2
BITMAP
530800
2A5700
08C100
06C000
1B7500
750F30
000650
000220
ENDCHAR
STARTCHAR uni04B3
ENCODING 1203
SWIDTH 465 0
DWIDTH 4 0
BBX 4 7 0 -2
BITMAP
2021
66B0
0C50
1B70
84C6
0038
0013
ENDCHAR
STARTCHAR uni04B4
ENCODING 1204
SWIDTH 781 0
DWIDTH 6 0
BBX 6 8 0 -2
BITMAP
7A9461
083092
083092
083092
083092
08A9D7
000019
000003
ENDCHAR
STARTCHAR uni04B5
ENCODING 1205
SWIDTH 587 0
DWIDTH 5 0
BBX 5 7 0 -2
BITMAP
342200
4C3A00
0A0A00
0A0A00
0D9D30
000450
000110
ENDCHAR
STARTCHAR uni04B6
ENCODING 1206
SWIDTH 638 0
DWIDTH 5 0
BBX 5 8 0 -2
BITMAP
530620
740820
650820
199C20
000820
000880
0000A0
000040
ENDCHAR
STARTCHAR uni04B7
ENCODING 1207
SWIDTH 512 0
DWIDTH 4 0
BBX 4 7 0 -2
BITMAP
2021
9174
8474
18B4
007A
000A
0004
ENDCHAR
STARTCHAR uni04B8
ENCODING 1208
SWIDTH 595 0
DWIDTH 5 0
BBX 5 6 0 0
BITMAP
530620
740820
658820
19CC20
006820
000820
ENDCHAR
STARTCHAR uni04B9
ENCODING 1209
SWIDTH 483 0
DWIDTH 4 0
BBX 4 5 0 0
BITMAP
2111
8365
7A95
1AC5
0165
ENDCHAR
STARTCHAR uni04BA
ENCODING 1210
SWIDTH 595 0
DWIDTH 5 0
BBX 5 6 0 0
BITMAP
520000
830000
888300
862B00
830910
830910
ENDCHAR
STARTCHAR uni04BB
ENCODING 1211
SWIDTH 482 0
DWIDTH 4 0
BBX 4 6 0 0
BITMAP
7300
7430
79A3
7355
7355
7355
ENDCHAR
STARTCHAR uni04BC
ENCODING 1212
SWIDTH 674 0
DWIDTH 5 0
BBX 5 7 0 -1
BITMAP
008920
2561A0
8B54B0
0A5440
074000
01A960
000100
ENDCHAR
STARTCHAR uni04BD
ENCODING 1213
SWIDTH 518 0
DWIDTH 4 0
BBX 4 5 0 0
BITMAP
0140
3A67
AB8B
3911
0A96
ENDCHAR
STARTCHAR uni04BE
ENCODING 1214
SWIDTH 674 0
DWIDTH 5 0
BBX 5 8 0 -2
BITMAP
008920
2561A0
8B54B0
0A5440
074000
01BC60
000B00
000700
ENDCHAR
STARTCHAR uni04BF
ENCODING 1215
SWIDTH 518 0
DWIDTH 4 0
BBX 4 7 0 -2
BITMAP
0140
3A67
AB8B
3911
0AC6
00B0
0070
ENDCHAR
STARTCHAR uni04C0
ENCODING 1216
SWIDTH 250 0
DWIDTH 2 0
BBX 2 6 0 0
BITMAP
44
55
55
55
55
55
ENDCHAR
STARTCHAR uni04C1
ENCODING 1217
SWIDTH 791 0
DWIDTH 6 0
BBX 7 8 0 0
BITMAP
00101000
00892000
53260800
2A285700
087AA000
089BB000
1B286700
95280C10
ENDCHAR
STARTCHAR uni04C2
ENCODING 1218
SWIDTH 662 0
DWIDTH 5 0
BBX 5 6 0 0
BITMAP
055700
216130
56A290
0BDB20
1AB850
94A1C0
ENDCHAR
STARTCHAR uni04C3
ENCODING 1219
SWIDTH 553 0
DWIDTH 4 0
BBX 5 8 0 -2
BITMAP
430800
657500
68B000
698900
650A10
650910
003A00
001000
ENDCHAR
STARTCHAR uni04C4
ENCODING 1220
SWIDTH 481 0
DWIDTH 4 0
BBX 4 6 0 -1
BITMAP
1112
64A2
6B80
6685
6437
0092
ENDCHAR
STARTCHAR uni04C5
ENCODING 1221
SWIDTH 662 0
DWIDTH 5 0
BBX 5 8 0 -2
BITMAP
079A30
0B0740
0A0740
0A0740
0A0740
8507A0
0000A0
000020
ENDCHAR
STARTCHAR uni04C6
ENCODING 1222
SWIDTH 551 0
DWIDTH 4 0
BBX 5 7 0 -2
BITMAP
034200
0C7800
0A3800
283800
943C20
000910
000300
ENDCHAR
STARTCHAR uni04C7
ENCODING 1223
SWIDTH 620 0
DWIDTH 5 0
BBX 5 8 0 -2
BITMAP
440430
560640
572740
5A8B40
560640
560640
000740
001900
ENDCHAR
STARTCHAR uni04C8
ENCODING 1224
SWIDTH 498 0
DWIDTH 4 0
BBX 4 7 0 -2
BITMAP
2112
7447
7887
7667
7447
0046
0091
ENDCHAR
STARTCHAR uni04C9
ENCODING 1225
SWIDTH 671 0
DWIDTH 5 0
BBX 6 8 0 -2
BITMAP
430440
650650
674850
696950
650650
6506B1
0000A0
000030
ENDCHAR
STARTCHAR uni04CA
ENCODING 1226
SWIDTH 550 0
DWIDTH 4 0
BBX 5 7 0 -2
BITMAP
111200
643700
688700
665700
643C20
000910
000300
ENDCHAR
STARTCHAR uni04CB
ENCODING 1227
SWIDTH 600 0
DWIDTH 5 0
BBX 5 8 0 -2
BITMAP
530620
740820
650820
199C20
000820
001D20
002800
001300
ENDCHAR
STARTCHAR uni04CC
ENCODING 1228
SWIDTH 479 0
DWIDTH 4 0
BBX 4 7 0 -2
BITMAP
2021
9174
8474
18B4
00C4
01A0
0040
ENDCHAR
STARTCHAR uni04CD
ENCODING 1229
SWIDTH 801 0
DWIDTH 6 0
BBX 7 8 0 -2
BITMAP
47006400
6D00D600
6B33B600
66886600
659A4600
65674C10
00000A00
00000300
ENDCHAR
STARTCHAR uni04CE
ENCODING 1230
SWIDTH 687 0
DWIDTH 6 0
BBX 6 7 0 -2
BITMAP
120120
6B0890
6C1B90
679790
64C2C3
000073
000030
ENDCHAR
STARTCHAR uni04CF
ENCODING 1231
SWIDTH 250 0
DWIDTH 2 0
BBX 2 6 0 0
BITMAP
44
55
55
55
55
55
ENDCHAR
STARTCHAR uni04D0
ENCODING 1232
SWIDTH 576 0
DWIDTH 5 0
BBX 5 8 0 0
BITMAP
010000
088400
017000
06C100
0A5500
1A3900
5A8C00
A10740
ENDCHAR
STARTCHAR uni04D1
ENCODING 1233
SWIDTH 479 0
DWIDTH 4 0
BBX 4 6 0 0
BITMAP
1881
0440
48A2
07B4
7564
5BB5
ENDCHAR
STARTCHAR uni04D2
ENCODING 1234
SWIDTH 576 0
DWIDTH 5 0
BBX 5 7 0 0
BITMAP
082600
017000
06C100
0A5500
1A3900
5A8C00
A10740
ENDCHAR
STARTCHAR uni04D3
ENCODING 1235
SWIDTH 479 0
DWIDTH 4 0
BBX 4 6 0 0
BITMAP
2652
0330
48A2
07B4
7564
5BB5
ENDCHAR
STARTCHAR uni04D4
ENCODING 1236
SWIDTH 812 0
DWIDTH 7 0
BBX 7 6 0 0
BITMAP
003A9910
00AB0000
047B4300
0B2B5400
4C9D0000
B20A9930
ENDCHAR
STARTCHAR uni04D5
ENCODING 1237
SWIDTH 728 0
DWIDTH 6 0
BBX 6 5 0 0
BITMAP
042230
68B994
17BA98
948510
7A9A94
ENDCHAR
STARTCHAR uni04D6
ENCODING 1238
SWIDTH 496 0
DWIDTH 4 0
BBX 4 8 0 0
BITMAP
0100
0991
4A96
6500
6741
6962
6500
6B96
ENDCHAR
STARTCHAR uni04D7
ENCODING 1239
SWIDTH 468 0
DWIDTH 4 0
BBX 4 6 0 0
BITMAP
1890
0440
5893
98A6
9311
3A92
ENDCHAR
STARTCHAR uni04D8
ENCODING 1240
SWIDTH 597 0
DWIDTH 5 0
BBX 5 6 0 0
BITMAP
199300
010B10
000740
A99B50
830920
2A9800
ENDCHAR
STARTCHAR uni04D9
ENCODING 1241
SWIDTH 465 0
DWIDTH 4 0
BBX 4 5 0 0
BITMAP
0420
45A1
2485
8694
3AA0
ENDCHAR
STARTCHAR uni04DA
ENCODING 1242
SWIDTH 597 0
DWIDTH 5 0
BBX 5 7 0 0
BITMAP
174400
199300
010B10
000740
A99B50
830920
2A9800
ENDCHAR
STARTCHAR uni04DB
ENCODING 1243
SWIDTH 465 0
DWIDTH 4 0
BBX 4 6 0 0
BITMAP
3561
0420
45A1
2485
8694
3AA0
ENDCHAR
STARTCHAR uni04DC
ENCODING 1244
SWIDTH 791 0
DWIDTH 6 0
BBX 7 7 0 0
BITMAP
00734000
53260800
2A285700
087AA000
089BB000
1B286700
95280C10
ENDCHAR
STARTCHAR uni04DD
ENCODING 1245
SWIDTH 662 0
DWIDTH 5 0
BBX 5 6 0 0
BITMAP
052700
212130
56A290
0BDB20
1AB850
94A1C0
ENDCHAR
STARTCHAR uni04DE
ENCODING 1246
SWIDTH 517 0
DWIDTH 4 0
BBX 4 7 0 0
BITMAP
1653
1992
632A
0167
0396
510B
4AA5
ENDCHAR
STARTCHAR uni04DF
ENCODING 1247
SWIDTH 446 0
DWIDTH 4 0
BBX 4 6 0 0
BITMAP
4370
0320
67B1
06B0
22A1
5AB1
ENDCHAR
STARTCHAR uni04E0
ENCODING 1248
SWIDTH 510 0
DWIDTH 4 0
BBX 4 6 0 0
BITMAP
49A4
00A1
0770
0285
5229
3BB4
ENDCHAR
STARTCHAR uni04E1
ENCODING 1249
SWIDTH 510 0
DWIDTH 4 0
BBX 4 7 0 -2
BITMAP
2441
26C3
0380
07A2
1028
6657
0660
ENDCHAR
STARTCHAR uni04E2
ENCODING 1250
SWIDTH 619 0
DWIDTH 5 0
BBX 5 7 0 0
BITMAP
058500
440630
551E40
558840
579640
5D2640
590640
ENDCHAR
STARTCHAR uni04E3
ENCODING 1251
SWIDTH 509 0
DWIDTH 4 0
BBX 4 6 0 0
BITMAP
1882
1112
6497
65A7
6B47
6837
ENDCHAR
STARTCHAR uni04E4
ENCODING 1252
SWIDTH 619 0
DWIDTH 5 0
BBX 5 7 0 0
BITMAP
071700
440630
551E40
558840
579640
5D2640
590640
ENDCHAR
STARTCHAR uni04E5
ENCODING 1253
SWIDTH 509 0
DWIDTH 4 0
BBX 4 6 0 0
BITMAP
1642
2222
6497
65A7
6B47
6837
ENDCHAR
STARTCHAR uni04E6
ENCODING 1254
SWIDTH 600 0
DWIDTH 5 0
BBX 5 7 0 0
BITMAP
081700
07A500
470A20
730640
830650
650830
1A9900
ENDCHAR
STARTCHAR uni04E7
ENCODING 1255
SWIDTH 501 0
DWIDTH 4 0
BBX 4 6 0 0
BITMAP
2562
0330
5995
9119
9219
3AA3
ENDCHAR
STARTCHAR uni04E8
ENCODING 1256
SWIDTH 593 0
DWIDTH 5 0
BBX 5 7 0 -1
BITMAP
07A400
470B10
842830
887B40
650910
1AA800
001000
ENDCHAR
STARTCHAR uni04E9
ENCODING 1257
SWIDTH 497 0
DWIDTH 4 0
BBX 4 5 0 0
BITMAP
0330
4994
9889
8448
2AA2
ENDCHAR
STARTCHAR uni04EA
ENCODING 1258
SWIDTH 593 0
DWIDTH 5 0
BBX 5 8 0 -1
BITMAP
081700
07A400
470B10
842830
887B40
650910
1AA800
001000
ENDCHAR
STARTCHAR uni04EB
ENCODING 1259
SWIDTH 497 0
DWIDTH 4 0
BBX 4 6 0 0
BITMAP
3561
0330
4994
9889
8448
2AA2
ENDCHAR
STARTCHAR uni04EC
ENCODING 1260
SWIDTH 589 0
DWIDTH 5 0
BBX 5 8 0 -1
BITMAP
071600
079400
470A10
112840
027B40
450920
1A9800
001000
ENDCHAR
STARTCHAR uni04ED
ENCODING 1261
SWIDTH 472 0
DWIDTH 4 0
BBX 4 6 0 0
BITMAP
3471
0320
68A1
14A4
4284
4AA0
ENDCHAR
STARTCHAR uni04EE
ENCODING 1262
SWIDTH 547 0
DWIDTH 4 0
BBX 4 8 0 -1
BITMAP
0883
5308
392A
0B65
07D1
02A0
0A30
0100
ENDCHAR
STARTCHAR uni04EF
ENCODING 1263
SWIDTH 416 0
DWIDTH 3 0
BBX 3 8 0 -2
BITMAP
3870
3020
A1A0
55A0
1C60
0B20
0900
6400
ENDCHAR
STARTCHAR uni04F0
ENCODING 1264
SWIDTH 547 0
DWIDTH 4 0
BBX 4 8 0 -1
BITMAP
0735
5308
392A
0B65
07D1
02A0
0A30
0100
ENDCHAR
STARTCHAR uni04F1
ENCODING 1265
SWIDTH 416 0
DWIDTH 3 0
BBX 3 8 0 -2
BITMAP
5380
3020
A1A0
55A0
1C60
0B20
0900
6400
ENDCHAR
STARTCHAR uni04F2
ENCODING 1266
SWIDTH 547 0
DWIDTH 4 0
BBX 4 9 0 -1
BITMAP
0123
0683
5308
392A
0B65
07D1
02A0
0A30
0100
ENDCHAR
STARTCHAR uni04F3
ENCODING 1267
SWIDTH 416 0
DWIDTH 3 0
BBX 4 8 0 -2
BITMAP
0AA1
3240
A1A0
55A0
1C60
0B20
0900
6400
ENDCHAR
STARTCHAR uni04F4
ENCODING 1268
SWIDTH 600 0
DWIDTH 5 0
BBX 5 7 0 0
BITMAP
082600
530620
740820
650820
199C20
000820
000820
ENDCHAR
STARTCHAR uni04F5
ENCODING 1269
SWIDTH 479 0
DWIDTH 4 0
BBX 4 6 0 0
BITMAP
4370
2121
9174
8474
18B4
0074
ENDCHAR
STARTCHAR uni04F6
ENCODING 1270
SWIDTH 487 0
DWIDTH 4 0
BBX 4 8 0 -2
BITMAP
4A96
5600
5600
5600
5600
5C00
0A00
0400
ENDCHAR
STARTCHAR uni04F7
ENCODING 1271
SWIDTH 371 0
DWIDTH 3 0
BBX 3 7 0 -2
BITMAP
1430
6850
6400
6400
6A00
0A00
0400
ENDCHAR
STARTCHAR uni04F8
ENCODING 1272
SWIDTH 755 0
DWIDTH 6 0
BBX 6 7 0 0
BITMAP
026520
440044
560055
595255
584C65
560A75
5B9955
ENDCHAR
STARTCHAR uni04F9
ENCODING 1273
SWIDTH 679 0
DWIDTH 5 0
BBX 5 6 0 0
BITMAP
052700
120120
6400A0
6A91A0
6456A0
6BB3A0
ENDCHAR
STARTCHAR uni04FA
ENCODING 1274
SWIDTH 520 0
DWIDTH 4 0
BBX 4 8 0 -2
BITMAP
1A98
1A00
5F20
3D10
1A00
1E20
0830
2900
ENDCHAR
STARTCHAR uni04FB
ENCODING 1275
SWIDTH 410 0
DWIDTH 3 0
BBX 4 7 0 -2
BITMAP
0441
2B61
8F40
2900
2D20
0820
2800
ENDCHAR
STARTCHAR uni04FC
ENCODING 1276
SWIDTH 570 0
DWIDTH 5 0
BBX 5 8 0 -2
BITMAP
530800
2A5700
08C100
06C000
1B7500
750E40
000560
000910
ENDCHAR
STARTCHAR uni04FD
ENCODING 1277
SWIDTH 476 0
DWIDTH 4 0
BBX 4 7 0 -2
BITMAP
2021
66B0
0C50
1B70
84B6
0029
0083
ENDCHAR
STARTCHAR uni04FE
ENCODING 1278
SWIDTH 550 0
DWIDTH 4 0
BBX 4 6 0 0
BITMAP
5308
2A57
0AD2
09E2
1B75
750C
ENDCHAR
STARTCHAR uni04FF
ENCODING 1279
SWIDTH 438 0
DWIDTH 4 0
BBX 4 5 0 0
BITMAP
2021
56B0
2E90
1C80
84A1
ENDCHAR
STARTCHAR uni0500
ENCODING 1280
SWIDTH 555 0
DWIDTH 4 0
BBX 4 6 0 0
BITMAP
0007
000B
057C
773B
930B
3A9C
ENDCHAR
STARTCHAR uni0501
ENCODING 1281
SWIDTH 496 0
DWIDTH 4 0
BBX 4 6 0 0
BITMAP
0046
0356
6896
9146
9246
4AA6
ENDCHAR
STARTCHAR uni0502
ENCODING 1282
SWIDTH 723 0
DWIDTH 6 0
BBX 6 6 0 0
BITMAP
000700
000B00
057C00
673B46
830B38
3A9DB3
ENDCHAR
STARTCHAR uni0503
ENCODING 1283
SWIDTH 743 0
DWIDTH 6 0
BBX 6 7 0 0
BITMAP
000100
005600
036600
49A633
825637
825646
3B8BA1
ENDCHAR
STARTCHAR uni0504
ENCODING 1284
SWIDTH 685 0
DWIDTH 5 0
BBX 5 6 0 0
BITMAP
795000
00C000
02A070
1890B0
00A1B0
007A70
ENDCHAR
STARTCHAR uni0505
ENCODING 1285
SWIDTH 562 0
DWIDTH 5 0
BBX 5 6 0 -1
BITMAP
320000
496000
285810
276830
01BA00
001000
ENDCHAR
STARTCHAR uni0506
ENCODING 1286
SWIDTH 470 0
DWIDTH 4 0
BBX 4 7 0 -1
BITMAP
6930
01A0
0290
3960
00B0
00C5
0063
ENDCHAR
STARTCHAR uni0507
ENCODING 1287
SWIDTH 443 0
DWIDTH 4 0
BBX 4 7 0 -2
BITMAP
2300
36A0
1580
15A0
00C4
0073
0010
ENDCHAR
STARTCHAR uni0508
ENCODING 1288
SWIDTH 834 0
DWIDTH 7 0
BBX 7 6 0 0
BITMAP
079A2000
0A074000
0A074520
0A074650
0B074740
7604BA00
ENDCHAR
STARTCHAR uni0509
ENCODING 1289
SWIDTH 698 0
DWIDTH 6 0
BBX 6 5 0 0
BITMAP
034100
0B8631
0A4664
194765
851BA1
ENDCHAR
STARTCHAR uni050A
ENCODING 1290
SWIDTH 864 0
DWIDTH 7 0
BBX 7 6 0 0
BITMAP
43053000
65074000
66284420
6A8B4560
65064650
6503BA10
ENDCHAR
STARTCHAR uni050B
ENCODING 1291
SWIDTH 716 0
DWIDTH 6 0
BBX 6 5 0 0
BITMAP
211200
743721
788755
765755
741BA1
ENDCHAR
STARTCHAR uni050C
ENCODING 1292
SWIDTH 541 0
DWIDTH 4 0
BBX 4 7 0 -1
BITMAP
0794
4700
8301
820B
650B
1A98
0010
ENDCHAR
STARTCHAR uni050D
ENCODING 1293
SWIDTH 452 0
DWIDTH 4 0
BBX 4 5 0 0
BITMAP
0330
4950
9210
8373
2AB1
ENDCHAR
STARTCHAR uni050E
ENCODING 1294
SWIDTH 616 0
DWIDTH 5 0
BBX 5 6 0 0
BITMAP
79A900
046000
046340
046380
047470
01CA20
ENDCHAR
STARTCHAR uni050F
ENCODING 1295
SWIDTH 558 0
DWIDTH 4 0
BBX 5 5 0 0
BITMAP
244100
4B7100
082A00
082A10
05A900
ENDCHAR
STARTCHAR uni0510
ENCODING 1296
SWIDTH 589 0
DWIDTH 5 0
BBX 5 7 0 -1
BITMAP
089600
470820
2A3000
2A6000
650420
1B9A10
001000
ENDCHAR
STARTCHAR uni0511
ENCODING 1297
SWIDTH 470 0
DWIDTH 4 0
BBX 4 5 0 0
BITMAP
0320
68A2
4A40
7521
5AB2
ENDCHAR
STARTCHAR uni0512
ENCODING 1298
SWIDTH 664 0
DWIDTH 5 0
BBX 5 8 0 -2
BITMAP
079A30
0B0740
0A0740
0A0740
0A0740
8507A0
0000B0
000460
ENDCHAR
STARTCHAR uni0513
ENCODING 1299
SWIDTH 553 0
DWIDTH 4 0
BBX 5 7 0 -2
BITMAP
034200
0C7800
0A3800
283800
943C20
000820
002800
ENDCHAR
STARTCHAR uni1E00
ENCODING 7680
SWIDTH 576 0
DWIDTH 5 0
BBX 5 8 0 -2
BITMAP
017000
06C100
0A5500
1A3900
5A8C00
A10740
015000
015000
ENDCHAR
STARTCHAR uni1E01
ENCODING 7681
SWIDTH 479 0
DWIDTH 4 0
BBX 4 7 0 -2
BITMAP
0330
48A2
07B4
7564
5BB5
0520
0410
ENDCHAR
STARTCHAR uni1E3E
ENCODING 7742
SWIDTH 755 0
DWIDTH 6 0
BBX 6 8 0 0
BITMAP
000200
002800
470064
6D00D6
6B33B6
668866
659A46
656746
ENDCHAR
STARTCHAR uni1E3F
ENCODING 7743
SWIDTH 752 0
DWIDTH 6 0
BBX 6 6 0 0
BITMAP
001A10
224240
78AA95
735537
735538
735538
ENDCHAR
STARTCHAR Wgrave
ENCODING 7808
SWIDTH 761 0
DWIDTH 6 0
BBX 6 8 0 0
BITMAP
003000
007300
713507
73791A
469937
199784
0C64D1
0A30C0
ENDCHAR
STARTCHAR wgrave
ENCODING 7809
SWIDTH 649 0
DWIDTH 5 0
BBX 5 6 0 0
BITMAP
038000
203020
91D1A0
66B680
2D3C50
0C0B10
ENDCHAR
STARTCHAR Wacute
ENCODING 7810
SWIDTH 761 0
DWIDTH 6 0
BBX 6 8 0 0
BITMAP
000210
001900
713507
73791A
469937
199784
0C64D1
0A30C0
ENDCHAR
STARTCHAR wacute
ENCODING 7811
SWIDTH 649 0
DWIDTH 5 0
BBX 5 6 0 0
BITMAP
006500
203020
91D1A0
66B680
2D3C50
0C0B10
ENDCHAR
STARTCHAR Wdieresis
ENCODING 7812
SWIDTH 761 0
DWIDTH 6 0
BBX 6 7 0 0
BITMAP
017430
713507
73791A
469937
199784
0C64D1
0A30C0
ENDCHAR
STARTCHAR wdieresis
ENCODING 7813
SWIDTH 649 0
DWIDTH 5 0
BBX 5 6 0 0
BITMAP
061800
202020
91D1A0
66B680
2D3C50
0C0B10
ENDCHAR
STARTCHAR uni1EA0
ENCODING 7840
SWIDTH 576 0
DWIDTH 5 0
BBX 5 8 0 -2
BITMAP
017000
06C100
0A5500
1A3900
5A8C00
A10740
004000
003000
ENDCHAR
STARTCHAR uni1EA1
ENCODING 7841
SWIDTH 479 0
DWIDTH 4 0
BBX 4 7 0 -2
BITMAP
0330
48A2
07B4
7564
5BB5
0400
0300
ENDCHAR
STARTCHAR uni1EA2
ENCODING 7842
SWIDTH 576 0
DWIDTH 5 0
BBX 5 8 0 0
BITMAP
006000
008000
017000
06C100
0A5500
1A3900
5A8C00
A10740
ENDCHAR
STARTCHAR uni1EA3
ENCODING 7843
SWIDTH 479 0
DWIDTH 4 0
BBX 4 7 0 0
BITMAP
0230
0270
0330
48A2
07B4
7564
5BB5
ENDCHAR
STARTCHAR uni1EA4
ENCODING 7844
SWIDTH 576 0
DWIDTH 5 0
BBX 5 8 0 0
BITMAP
001430
069500
017000
06C100
0A5500
1A3900
5A8C00
A10740
ENDCHAR
STARTCHAR uni1EA5
ENCODING 7845
SWIDTH 479 0
DWIDTH 4 0
BBX 4 7 0 0
BITMAP
0005
0784
0440
48A2
07B4
7564
5BB5
ENDCHAR
STARTCHAR uni1EA6
ENCODING 7846
SWIDTH 576 0
DWIDTH 5 0
BBX 5 8 0 0
BITMAP
711000
179300
017000
06C100
0A5500
1A3900
5A8C00
A10740
ENDCHAR
STARTCHAR uni1EA7
ENCODING 7847
SWIDTH 479 0
DWIDTH 4 0
BBX 4 7 0 0
BITMAP
5000
4770
0440
48A2
07B4
7564
5BB5
ENDCHAR
STARTCHAR uni1EA8
ENCODING 7848
SWIDTH 576 0
DWIDTH 5 0
BBX 5 8 0 0
BITMAP
000700
068600
017000
06C100
0A5500
1A3900
5A8C00
A10740
ENDCHAR
STARTCHAR uni1EA9
ENCODING 7849
SWIDTH 479 0
DWIDTH 4 0
BBX 4 7 0 0
BITMAP
0015
0775
1440
48A2
07B4
7564
5BB5
ENDCHAR
STARTCHAR uni1EAA
ENCODING 7850
SWIDTH 576 0
DWIDTH 5 0
BBX 5 8 0 0
BITMAP
037100
058200
028100
06C100
0A5500
1A3900
5A8C00
A10740
ENDCHAR
STARTCHAR uni1EAB
ENCODING 7851
SWIDTH 479 0
DWIDTH 4 0
BBX 4 7 0 0
BITMAP
0550
0550
0550
48A2
07B4
7564
5BB5
ENDCHAR
STARTCHAR uni1EAC
ENCODING 7852
SWIDTH 576 0
DWIDTH 5 0
BBX 5 10 0 -2
BITMAP
002000
058100
017000
06C100
0A5500
1A3900
5A8C00
A10740
004000
003000
ENDCHAR
STARTCHAR uni1EAD
ENCODING 7853
SWIDTH 479 0
DWIDTH 4 0
BBX 4 8 0 -2
BITMAP
0770
0440
48A2
07B4
7564
5BB5
0400
0300
ENDCHAR
STARTCHAR uni1EAE
ENCODING 7854
SWIDTH 576 0
DWIDTH 5 0
BBX 5 8 0 0
BITMAP
005000
057200
017000
06C100
0A5500
1A3900
5A8C00
A10740
ENDCHAR
STARTCHAR uni1EAF
ENCODING 7855
SWIDTH 479 0
DWIDTH 4 0
BBX 4 7 0 0
BITMAP
0040
0770
0430
48A2
07B4
7564
5BB5
ENDCHAR
STARTCHAR uni1EB0
ENCODING 7856
SWIDTH 576 0
DWIDTH 5 0
BBX 5 8 0 0
BITMAP
014000
057200
017000
06C100
0A5500
1A3900
5A8C00
A10740
ENDCHAR
STARTCHAR uni1EB1
ENCODING 7857
SWIDTH 479 0
DWIDTH 4 0
BBX 4 7 0 0
BITMAP
0400
0870
0430
48A2
07B4
7564
5BB5
ENDCHAR
STARTCHAR uni1EB2
ENCODING 7858
SWIDTH 576 0
DWIDTH 5 0
BBX 5 9 0 0
BITMAP
002000
009000
057100
017000
06C100
0A5500
1A3900
5A8C00
A10740
ENDCHAR
STARTCHAR uni1EB3
ENCODING 7859
SWIDTH 479 0
DWIDTH 4 0
BBX 4 7 0 0
BITMAP
0270
0870
0330
48A2
07B4
7564
5BB5
ENDCHAR
STARTCHAR uni1EB4
ENCODING 7860
SWIDTH 576 0
DWIDTH 5 0
BBX 5 8 0 0
BITMAP
047100
067200
017000
06C100
0A5500
1A3900
5A8C00
A10740
ENDCHAR
STARTCHAR uni1EB5
ENCODING 7861
SWIDTH 479 0
DWIDTH 4 0
BBX 4 7 0 0
BITMAP
0660
0770
0330
48A2
07B4
7564
5BB5
ENDCHAR
STARTCHAR uni1EB6
ENCODING 7862
SWIDTH 576 0
DWIDTH 5 0
BBX 5 10 0 -2
BITMAP
010000
088400
017000
06C100
0A5500
1A3900
5A8C00
A10740
004000
003000
ENDCHAR
STARTCHAR uni1EB7
ENCODING 7863
SWIDTH 479 0
DWIDTH 4 0
BBX 4 8 0 -2
BITMAP
1881
0440
48A2
07B4
7564
5BB5
0400
0300
ENDCHAR
STARTCHAR uni1EB8
ENCODING 7864
SWIDTH 496 0
DWIDTH 4 0
BBX 4 8 0 -2
BITMAP
4A96
6500
6741
6962
6500
6B96
0230
0120
ENDCHAR
STARTCHAR uni1EB9
ENCODING 7865
SWIDTH 468 0
DWIDTH 4 0
BBX 4 7 0 -2
BITMAP
0330
5893
98A6
9311
3A92
0320
0210
ENDCHAR
STARTCHAR uni1EBA
ENCODING 7866
SWIDTH 496 0
DWIDTH 4 0
BBX 4 8 0 0
BITMAP
0160
0170
4A96
6500
6741
6962
6500
6B96
ENDCHAR
STARTCHAR uni1EBB
ENCODING 7867
SWIDTH 468 0
DWIDTH 4 0
BBX 4 7 0 0
BITMAP
0230
0270
0330
5893
98A6
9311
3A92
ENDCHAR
STARTCHAR uni1EBC
ENCODING 7868
SWIDTH 496 0
DWIDTH 4 0
BBX 4 8 0 0
BITMAP
0101
0991
4A96
6500
6741
6962
6500
6B96
ENDCHAR
STARTCHAR uni1EBD
ENCODING 7869
SWIDTH 468 0
DWIDTH 4 0
BBX 4 6 0 0
BITMAP
1990
0330
5893
98A6
9311
3A92
ENDCHAR
STARTCHAR uni1EBE
ENCODING 7870
SWIDTH 496 0
DWIDTH 4 0
BBX 5 8 0 0
BITMAP
001710
088300
4A9600
650000
674100
696200
650000
6B9600
ENDCHAR
STARTCHAR uni1EBF
ENCODING 7871
SWIDTH 468 0
DWIDTH 4 0
BBX 4 7 0 0
BITMAP
0005
0874
1440
5893
98A6
9311
3A92
ENDCHAR
STARTCHAR uni1EC0
ENCODING 7872
SWIDTH 496 0
DWIDTH 4 0
BBX 4 8 0 0
BITMAP
8010
2881
4A96
6500
6741
6962
6500
6B96
ENDCHAR
STARTCHAR uni1EC1
ENCODING 7873
SWIDTH 468 0
DWIDTH 4 0
BBX 5 7 -1 0
BITMAP
150000
048700
014400
058930
098A60
093110
03A920
ENDCHAR
STARTCHAR uni1EC2
ENCODING 7874
SWIDTH 496 0
DWIDTH 4 0
BBX 4 8 0 0
BITMAP
0018
0884
4A96
6500
6741
6962
6500
6B96
ENDCHAR
STARTCHAR uni1EC3
ENCODING 7875
SWIDTH 468 0
DWIDTH 4 0
BBX 4 7 0 0
BITMAP
0014
0784
1440
5893
98A6
9311
3A92
ENDCHAR
STARTCHAR uni1EC4
ENCODING 7876
SWIDTH 496 0
DWIDTH 4 0
BBX 4 8 0 0
BITMAP
0560
0771
4A96
6500
6741
6962
6500
6B96
ENDCHAR
STARTCHAR uni1EC5
ENCODING 7877
SWIDTH 468 0
DWIDTH 4 0
BBX 4 7 0 0
BITMAP
0650
0550
1550
5893
98A6
9311
3A92
ENDCHAR
STARTCHAR uni1EC6
ENCODING 7878
SWIDTH 496 0
DWIDTH 4 0
BBX 4 10 0 -2
BITMAP
0120
0770
4A96
6500
6741
6962
6500
6B96
0230
0120
ENDCHAR
STARTCHAR uni1EC7
ENCODING 7879
SWIDTH 468 0
DWIDTH 4 0
BBX 4 8 0 -2
BITMAP
0870
0430
5893
98A6
9311
3A92
0320
0210
ENDCHAR
STARTCHAR uni1EC8
ENCODING 7880
SWIDTH 250 0
DWIDTH 2 0
BBX 2 8 0 0
BITMAP
25
26
44
55
55
55
55
55
ENDCHAR
STARTCHAR uni1EC9
ENCODING 7881
SWIDTH 234 0
DWIDTH 2 0
BBX 2 7 0 0
BITMAP
23
27
21
64
64
64
64
ENDCHAR
STARTCHAR uni1ECA
ENCODING 7882
SWIDTH 250 0
DWIDTH 2 0
BBX 2 8 0 -2
BITMAP
44
55
55
55
55
55
32
21
ENDCHAR
STARTCHAR uni1ECB
ENCODING 7883
SWIDTH 229 0
DWIDTH 2 0
BBX 2 8 0 -2
BITMAP
43
21
64
64
64
64
32
21
ENDCHAR
STARTCHAR uni1ECC
ENCODING 7884
SWIDTH 600 0
DWIDTH 5 0
BBX 5 8 0 -2
BITMAP
07A500
470A20
730640
830650
650830
1A9900
005000
003000
ENDCHAR
STARTCHAR uni1ECD
ENCODING 7885
SWIDTH 501 0
DWIDTH 4 0
BBX 4 7 0 -2
BITMAP
0330
5995
9119
9219
3AA3
0220
0220
ENDCHAR
STARTCHAR uni1ECE
ENCODING 7886
SWIDTH 600 0
DWIDTH 5 0
BBX 5 8 0 0
BITMAP
006000
008100
07A500
470A20
730640
830650
650830
1A9900
ENDCHAR
STARTCHAR uni1ECF
ENCODING 7887
SWIDTH 501 0
DWIDTH 4 0
BBX 4 7 0 0
BITMAP
0230
0270
0330
5995
9119
9219
3AA3
ENDCHAR
STARTCHAR uni1ED0
ENCODING 7888
SWIDTH 600 0
DWIDTH 5 0
BBX 5 8 0 0
BITMAP
001340
059500
07A500
470A20
730640
830650
650830
1A9900
ENDCHAR
STARTCHAR uni1ED1
ENCODING 7889
SWIDTH 501 0
DWIDTH 4 0
BBX 4 7 0 0
BITMAP
0005
0884
0440
5995
9119
9219
3AA3
ENDCHAR
STARTCHAR uni1ED2
ENCODING 7890
SWIDTH 600 0
DWIDTH 5 0
BBX 5 8 0 0
BITMAP
621000
179300
07A500
470A20
730640
830650
650830
1A9900
ENDCHAR
STARTCHAR uni1ED3
ENCODING 7891
SWIDTH 501 0
DWIDTH 4 0
BBX 5 7 -1 0
BITMAP
150000
048700
004400
059950
091190
092190
03AA30
ENDCHAR
STARTCHAR uni1ED4
ENCODING 7892
SWIDTH 600 0
DWIDTH 5 0
BBX 5 8 0 0
BITMAP
000610
058700
07A500
470A20
730640
830650
650830
1A9900
ENDCHAR
STARTCHAR uni1ED5
ENCODING 7893
SWIDTH 501 0
DWIDTH 4 0
BBX 4 7 0 0
BITMAP
0015
0775
1440
5995
9119
9219
3AA3
ENDCHAR
STARTCHAR uni1ED6
ENCODING 7894
SWIDTH 600 0
DWIDTH 5 0
BBX 5 8 0 0
BITMAP
036100
048200
08A600
470A20
730640
830650
650830
1A9900
ENDCHAR
STARTCHAR uni1ED7
ENCODING 7895
SWIDTH 501 0
DWIDTH 4 0
BBX 4 7 0 0
BITMAP
0550
0550
1550
5995
9119
9219
3AA3
ENDCHAR
STARTCHAR uni1ED8
ENCODING 7896
SWIDTH 600 0
DWIDTH 5 0
BBX 5 10 0 -2
BITMAP
002000
048200
07A500
470A20
730640
830650
650830
1A9900
005000
003000
ENDCHAR
STARTCHAR uni1ED9
ENCODING 7897
SWIDTH 501 0
DWIDTH 4 0
BBX 4 8 0 -2
BITMAP
0770
0440
5995
9119
9219
3AA3
0220
0220
ENDCHAR
STARTCHAR uni1EDA
ENCODING 7898
SWIDTH 592 0
DWIDTH 5 0
BBX 5 8 0 0
BITMAP
001100
009120
07A680
570C10
820730
910740
640910
1BA800
ENDCHAR
STARTCHAR uni1EDB
ENCODING 7899
SWIDTH 502 0
DWIDTH 4 0
BBX 4 6 0 0
BITMAP
01A0
0335
4998
9229
8228
2AA2
ENDCHAR
STARTCHAR uni1EDC
ENCODING 7900
SWIDTH 592 0
DWIDTH 5 0
BBX 5 8 0 0
BITMAP
020000
047020
07A680
570C10
820730
910740
640910
1BA800
ENDCHAR
STARTCHAR uni1EDD
ENCODING 7901
SWIDTH 502 0
DWIDTH 4 0
BBX 4 6 0 0
BITMAP
0A10
0335
4998
9229
8228
2AA2
ENDCHAR
STARTCHAR uni1EDE
ENCODING 7902
SWIDTH 592 0
DWIDTH 5 0
BBX 5 8 0 0
BITMAP
006000
008020
07A680
570C10
820730
910740
640910
1BA800
ENDCHAR
STARTCHAR uni1EDF
ENCODING 7903
SWIDTH 502 0
DWIDTH 4 0
BBX 4 7 0 0
BITMAP
0230
0270
0335
4998
9229
8228
2AA2
ENDCHAR
STARTCHAR uni1EE0
ENCODING 7904
SWIDTH 592 0
DWIDTH 5 0
BBX 5 8 0 0
BITMAP
000100
078520
07A680
570C10
820730
910740
640910
1BA800
ENDCHAR
STARTCHAR uni1EE1
ENCODING 7905
SWIDTH 502 0
DWIDTH 4 0
BBX 4 6 0 0
BITMAP
1991
0335
4998
9229
8228
2AA2
ENDCHAR
STARTCHAR uni1EE2
ENCODING 7906
SWIDTH 592 0
DWIDTH 5 0
BBX 5 9 0 -2
BITMAP
000020
07A680
570C10
820730
910740
640910
1BA800
005000
003000
ENDCHAR
STARTCHAR uni1EE3
ENCODING 7907
SWIDTH 502 0
DWIDTH 4 0
BBX 4 7 0 -2
BITMAP
0335
4998
9229
8228
2AA2
0220
0220
ENDCHAR
STARTCHAR uni1EE4
ENCODING 7908
SWIDTH 561 0
DWIDTH 5 0
BBX 4 8 0 -2
BITMAP
5207
730B
730B
730B
740B
2B98
0140
0130
ENDCHAR
STARTCHAR uni1EE5
ENCODING 7909
SWIDTH 483 0
DWIDTH 4 0
BBX 4 7 0 -2
BITMAP
2111
8355
8355
7355
4BB5
0410
0300
ENDCHAR
STARTCHAR uni1EE6
ENCODING 7910
SWIDTH 561 0
DWIDTH 5 0
BBX 4 8 0 0
BITMAP
0060
0080
5207
730B
730B
730B
740B
2B98
ENDCHAR
STARTCHAR uni1EE7
ENCODING 7911
SWIDTH 483 0
DWIDTH 4 0
BBX 4 7 0 0
BITMAP
0230
0270
2111
8355
8355
7355
4BB5
ENDCHAR
STARTCHAR uni1EE8
ENCODING 7912
SWIDTH 608 0
DWIDTH 5 0
BBX 6 8 0 0
BITMAP
001200
008100
520763
730B70
730B00
730B00
640B00
2A9700
ENDCHAR
STARTCHAR uni1EE9
ENCODING 7913
SWIDTH 549 0
DWIDTH 4 0
BBX 5 6 0 0
BITMAP
019000
222230
835A20
835500
735500
4BB500
ENDCHAR
STARTCHAR uni1EEA
ENCODING 7914
SWIDTH 608 0
DWIDTH 5 0
BBX 6 8 0 0
BITMAP
030000
036000
520763
730B70
730B00
730B00
640B00
2A9700
ENDCHAR
STARTCHAR uni1EEB
ENCODING 7915
SWIDTH 549 0
DWIDTH 4 0
BBX 5 6 0 0
BITMAP
091000
222230
835A20
835500
735500
4BB500
ENDCHAR
STARTCHAR uni1EEC
ENCODING 7916
SWIDTH 608 0
DWIDTH 5 0
BBX 6 8 0 0
BITMAP
007000
008000
520763
730B70
730B00
730B00
640B00
2A9700
ENDCHAR
STARTCHAR uni1EED
ENCODING 7917
SWIDTH 549 0
DWIDTH 4 0
BBX 5 7 0 0
BITMAP
022000
028000
212230
835A20
835500
735500
4BB500
ENDCHAR
STARTCHAR uni1EEE
ENCODING 7918
SWIDTH 608 0
DWIDTH 5 0
BBX 6 8 0 0
BITMAP
010100
078400
520763
730B70
730B00
730B00
640B00
2A9700
ENDCHAR
STARTCHAR uni1EEF
ENCODING 7919
SWIDTH 549 0
DWIDTH 4 0
BBX 5 6 0 0
BITMAP
199100
222230
835A20
835500
735500
4BB500
ENDCHAR
STARTCHAR uni1EF0
ENCODING 7920
SWIDTH 608 0
DWIDTH 5 0
BBX 6 8 0 -2
BITMAP
520763
730B70
730B00
730B00
640B00
2A9700
004000
004000
ENDCHAR
STARTCHAR uni1EF1
ENCODING 7921
SWIDTH 549 0
DWIDTH 4 0
BBX 5 7 0 -2
BITMAP
211230
835A20
835500
735500
4BB500
031000
021000
ENDCHAR
STARTCHAR Ygrave
ENCODING 7922
SWIDTH 524 0
DWIDTH 4 0
BBX 4 8 0 0
BITMAP
0300
0730
7108
5638
0A91
0790
0470
0470
ENDCHAR
STARTCHAR ygrave
ENCODING 7923
SWIDTH 416 0
DWIDTH 3 0
BBX 3 8 0 -2
BITMAP
2900
3120
A1A0
55A0
1C60
0B20
0900
6400
ENDCHAR
STARTCHAR uni1EF4
ENCODING 7924
SWIDTH 524 0
DWIDTH 4 0
BBX 4 8 0 -2
BITMAP
7108
5638
0A91
0790
0470
0470
0230
0120
ENDCHAR
STARTCHAR uni1EF5
ENCODING 7925
SWIDTH 416 0
DWIDTH 3 0
BBX 3 7 0 -2
BITMAP
3020
A1A0
55A0
1C60
0B20
0900
6480
ENDCHAR
STARTCHAR uni1EF6
ENCODING 7926
SWIDTH 524 0
DWIDTH 4 0
BBX 4 8 0 0
BITMAP
0160
0170
7108
5638
0A91
0790
0470
0470
ENDCHAR
STARTCHAR uni1EF7
ENCODING 7927
SWIDTH 416 0
DWIDTH 3 0
BBX 3 9 0 -2
BITMAP
0320
0540
3120
A1A0
55A0
1C60
0B20
0900
6400
ENDCHAR
STARTCHAR uni1EF8
ENCODING 7928
SWIDTH 524 0
DWIDTH 4 0
BBX 4 7 0 0
BITMAP
0991
7108
5638
0A91
0790
0470
0470
ENDCHAR
STARTCHAR uni1EF9
ENCODING 7929
SWIDTH 416 0
DWIDTH 3 0
BBX 3 8 0 -2
BITMAP
3980
3020
A1A0
55A0
1C60
0B20
0900
6400
ENDCHAR
STARTCHAR uni1F4D
ENCODING 8013
SWIDTH 634 0
DWIDTH 5 0
BBX 7 6 -2 0
BITMAP
6544A800
251A0660
00380290
00370290
00290470
00089B10
ENDCHAR
STARTCHAR uni2000
ENCODING 8192
SWIDTH 447 0
DWIDTH 4 0
BBX 1 1 0 0
BITMAP
00
ENDCHAR
STARTCHAR uni2001
ENCODING 8193
SWIDTH 876 0
DWIDTH 7 0
BBX 1 1 0 0
BITMAP
00
ENDCHAR
STARTCHAR uni2002
ENCODING 8194
SWIDTH 447 0
DWIDTH 4 0
BBX 1 1 0 0
BITMAP
00
ENDCHAR
STARTCHAR uni2003
ENCODING 8195
SWIDTH 876 0
DWIDTH 7 0
BBX 1 1 0 0
BITMAP
00
ENDCHAR
STARTCHAR uni2004
ENCODING 8196
SWIDTH 305 0
DWIDTH 2 0
BBX 1 1 0 0
BITMAP
00
ENDCHAR
STARTCHAR uni2005
ENCODING 8197
SWIDTH 233 0
DWIDTH 2 0
BBX 1 1 0 0
BITMAP
00
ENDCHAR
STARTCHAR uni2006
ENCODING 8198
SWIDTH 162 0
DWIDTH 1 0
BBX 1 1 0 0
BITMAP
00
ENDCHAR
STARTCHAR uni2007
ENCODING 8199
SWIDTH 491 0
DWIDTH 4 0
BBX 1 1 0 0
BITMAP
00
ENDCHAR
STARTCHAR uni2008
ENCODING 8200
SWIDTH 249 0
DWIDTH 2 0
BBX 1 1 0 0
BITMAP
00
ENDCHAR
STARTCHAR uni2009
ENCODING 8201
SWIDTH 190 0
DWIDTH 2 0
BBX 1 1 0 0
BITMAP
00
ENDCHAR
STARTCHAR uni200A
ENCODING 8202
SWIDTH 105 0
DWIDTH 1 0
BBX 1 1 0 0
BITMAP
00
ENDCHAR
STARTCHAR uni200B
ENCODING 8203
SWIDTH 0 0
DWIDTH 0 0
BBX 1 1 0 0
BITMAP
00
ENDCHAR
STARTCHAR uni2010
ENCODING 8208
SWIDTH 248 0
DWIDTH 2 0
BBX 2 1 0 2
BITMAP
77
ENDCHAR
STARTCHAR uni2011
ENCODING 8209
SWIDTH 248 0
DWIDTH 2 0
BBX 2 1 0 2
BITMAP
77
ENDCHAR
STARTCHAR endash
ENCODING 8211
SWIDTH 572 0
DWIDTH 5 0
BBX 4 2 0 2
BITMAP
1222
2776
ENDCHAR
STARTCHAR emdash
ENCODING 8212
SWIDTH 678 0
DWIDTH 5 0
BBX 5 2 0 2
BITMAP
122220
277770
ENDCHAR
STARTCHAR uni2015
ENCODING 8213
SWIDTH 678 0
DWIDTH 5 0
BBX 5 2 0 2
BITMAP
122220
277770
ENDCHAR
STARTCHAR underscoredbl
ENCODING 8215
SWIDTH 402 0
DWIDTH 3 0
BBX 4 2 0 -2
BITMAP
8991
8991
ENDCHAR
STARTCHAR quoteleft
ENCODING 8216
SWIDTH 194 0
DWIDTH 2 0
BBX 2 2 0 4
BITMAP
53
71
ENDCHAR
STARTCHAR quoteright
ENCODING 8217
SWIDTH 194 0
DWIDTH 2 0
BBX 2 2 0 4
BITMAP
73
70
ENDCHAR
STARTCHAR quotesinglbase
ENCODING 8218
SWIDTH 194 0
DWIDTH 2 0
BBX 2 2 0 -1
BITMAP
52
90
ENDCHAR
STARTCHAR quotereversed
ENCODING 8219
SWIDTH 194 0
DWIDTH 2 0
BBX 2 2 0 4
BITMAP
A0
52
ENDCHAR
STARTCHAR quotedblleft
ENCODING 8220
SWIDTH 333 0
DWIDTH 3 0
BBX 3 2 0 4
BITMAP
5760
7730
ENDCHAR
STARTCHAR quotedblright
ENCODING 8221
SWIDTH 337 0
DWIDTH 3 0
BBX 3 2 0 4
BITMAP
7950
7710
ENDCHAR
STARTCHAR quotedblbase
ENCODING 8222
SWIDTH 326 0
DWIDTH 3 0
BBX 3 2 0 -1
BITMAP
7930
9910
ENDCHAR
STARTCHAR dagger
ENCODING 8224
SWIDTH 482 0
DWIDTH 4 0
BBX 4 6 0 0
BITMAP
0430
2872
4A83
0640
0640
0640
ENDCHAR
STARTCHAR daggerdbl
ENCODING 8225
SWIDTH 500 0
DWIDTH 4 0
BBX 4 8 0 -2
BITMAP
0430
2872
4993
0550
0550
6BB5
0550
0330
ENDCHAR
STARTCHAR bullet
ENCODING 8226
SWIDTH 336 0
DWIDTH 3 0
BBX 3 2 0 2
BITMAP
3A00
4C10
ENDCHAR
STARTCHAR twodotenleader
ENCODING 8229
SWIDTH 420 0
DWIDTH 3 0
BBX 3 1 0 0
BITMAP
4480
ENDCHAR
STARTCHAR ellipsis
ENCODING 8230
SWIDTH 590 0
DWIDTH 5 0
BBX 5 1 0 0
BITMAP
448620
ENDCHAR
STARTCHAR uni2027
ENCODING 8231
SWIDTH 181 0
DWIDTH 1 0
BBX 2 1 0 2
BITMAP
61
ENDCHAR
STARTCHAR perthousand
ENCODING 8240
SWIDTH 818 0
DWIDTH 7 0
BBX 7 6 0 0
BITMAP
58100000
84470000
59720000
01775700
06559530
0329B910
ENDCHAR
STARTCHAR minute
ENCODING 8242
SWIDTH 174 0
DWIDTH 1 0
BBX 1 2 0 4
BITMAP
90
70
ENDCHAR
STARTCHAR second
ENCODING 8243
SWIDTH 319 0
DWIDTH 3 0
BBX 3 2 0 4
BITMAP
7720
6610
ENDCHAR
STARTCHAR guilsinglleft
ENCODING 8249
SWIDTH 271 0
DWIDTH 2 0
BBX 2 4 0 0
BITMAP
06
54
36
03
ENDCHAR
STARTCHAR guilsinglright
ENCODING 8250
SWIDTH 271 0
DWIDTH 2 0
BBX 2 4 0 0
BITMAP
51
19
37
30
ENDCHAR
STARTCHAR exclamdbl
ENCODING 8252
SWIDTH 491 0
DWIDTH 4 0
BBX 4 6 0 0
BITMAP
4443
5565
5564
5564
2222
4443
ENDCHAR
STARTCHAR fraction
ENCODING 8260
SWIDTH 403 0
DWIDTH 3 0
BBX 3 5 0 0
BITMAP
0070
0440
0800
5300
3000
ENDCHAR
STARTCHAR uni2074
ENCODING 8308
SWIDTH 329 0
DWIDTH 3 0
BBX 3 4 0 2
BITMAP
0800
4C10
7C30
0300
ENDCHAR
STARTCHAR uni207F
ENCODING 8319
SWIDTH 374 0
DWIDTH 3 0
BBX 3 4 0 2
BITMAP
5840
8390
8290
3140
ENDCHAR
STARTCHAR franc
ENCODING 8355
SWIDTH 480 0
DWIDTH 4 0
BBX 4 6 0 0
BITMAP
4A95
6500
6620
6A72
EE20
6500
ENDCHAR
STARTCHAR lira
ENCODING 8356
SWIDTH 510 0
DWIDTH 4 0
BBX 4 6 0 0
BITMAP
06A3
1A17
5B40
5C50
3A20
7C97
ENDCHAR
STARTCHAR uni20A6
ENCODING 8358
SWIDTH 691 0
DWIDTH 6 0
BBX 6 6 0 0
BITMAP
180160
1E3190
8DD9D3
7CC9C3
2A2BA0
190690
ENDCHAR
STARTCHAR peseta
ENCODING 8359
SWIDTH 709 0
DWIDTH 6 0
BBX 6 6 0 0
BITMAP
498120
646991
646AA1
6B9380
640380
6401C1
ENDCHAR
STARTCHAR uni20A8
ENCODING 8360
SWIDTH 911 0
DWIDTH 7 0
BBX 7 7 0 -1
BITMAP
4A930000
651B1410
651AA6A0
6BD38710
655733B0
650B9990
00000100
ENDCHAR
STARTCHAR uni20A9
ENCODING 8361
SWIDTH 634 0
DWIDTH 5 0
BBX 5 6 0 0
BITMAP
708070
82E290
ABEBB0
8CCC90
2E4E20
0C0D00
ENDCHAR
STARTCHAR uni20AA
ENCODING 8362
SWIDTH 669 0
DWIDTH 5 0
BBX 5 5 0 0
BITMAP
243020
7896A0
7688A0
7685A0
76CA80
ENDCHAR
STARTCHAR dong
ENCODING 8363
SWIDTH 510 0
DWIDTH 4 0
BBX 4 8 0 -2
BITMAP
00AD
0489
6896
9146
9246
4AA6
2664
1332
ENDCHAR
STARTCHAR Euro
ENCODING 8364
SWIDTH 493 0
DWIDTH 4 0
BBX 4 6 0 0
BITMAP
0395
0B00
4D70
5D70
0B00
0795
ENDCHAR
STARTCHAR uni20B1
ENCODING 8369
SWIDTH 648 0
DWIDTH 5 0
BBX 5 6 0 0
BITMAP
2A9600
8C9DA0
8C9CA0
3C9700
380000
380000
ENDCHAR
STARTCHAR uni20B9
ENCODING 8377
SWIDTH 462 0
DWIDTH 4 0
BBX 4 6 0 0
BITMAP
6AA4
36C2
46C2
AB30
2B00
0680
ENDCHAR
STARTCHAR uni20BA
ENCODING 8378
SWIDTH 500 0
DWIDTH 4 0
BBX 4 7 0 -1
BITMAP
0700
2E60
7D60
9C29
0B47
0DB1
0100
ENDCHAR
STARTCHAR uni20BC
ENCODING 8380
SWIDTH 575 0
DWIDTH 5 0
BBX 5 5 0 0
BITMAP
002000
04C100
3ABA00
83A820
92A730
ENDCHAR
STARTCHAR uni20BD
ENCODING 8381
SWIDTH 583 0
DWIDTH 5 0
BBX 5 6 0 0
BITMAP
1A9700
290840
290740
8D9800
8D6000
290000
ENDCHAR
STARTCHAR uni2105
ENCODING 8453
SWIDTH 640 0
DWIDTH 5 0
BBX 5 6 0 0
BITMAP
392000
712700
497300
008730
066480
032970
ENDCHAR
STARTCHAR uni2113
ENCODING 8467
SWIDTH 422 0
DWIDTH 3 0
BBX 3 6 0 0
BITMAP
0AB0
0AA0
0BA0
3E30
3B00
0840
ENDCHAR
STARTCHAR uni2116
ENCODING 8470
SWIDTH 886 0
DWIDTH 7 0
BBX 7 6 0 0
BITMAP
45073930
6C0A9190
694A8680
659A2720
647B3630
642D0000
ENDCHAR
STARTCHAR trademark
ENCODING 8482
SWIDTH 547 0
DWIDTH 4 0
BBX 4 3 0 3
BITMAP
3545
2497
1232
ENDCHAR
STARTCHAR Omega
ENCODING 8486
SWIDTH 581 0
DWIDTH 5 0
BBX 5 6 0 0
BITMAP
089300
560B00
830910
830910
450A00
5D7C10
ENDCHAR
STARTCHAR estimated
ENCODING 8494
SWIDTH 636 0
DWIDTH 5 0
BBX 5 6 0 -1
BITMAP
004100
182620
5B5870
490000
075610
001000
ENDCHAR
STARTCHAR oneeighth
ENCODING 8539
SWIDTH 666 0
DWIDTH 5 0
BBX 5 6 0 0
BITMAP
350000
291700
097100
056A90
071A90
030A90
ENDCHAR
STARTCHAR threeeighths
ENCODING 8540
SWIDTH 736 0
DWIDTH 6 0
BBX 6 6 0 0
BITMAP
382000
183530
465710
2668A3
0075C3
021694
ENDCHAR
STARTCHAR fiveeighths
ENCODING 8541
SWIDTH 736 0
DWIDTH 6 0
BBX 6 6 0 0
BITMAP
482000
881610
455710
2677A3
0165B3
031694
ENDCHAR
STARTCHAR seveneighths
ENCODING 8542
SWIDTH 692 0
DWIDTH 6 0
BBX 6 6 0 0
BITMAP
584000
072700
094310
1388A0
0528B0
0308A1
ENDCHAR
STARTCHAR partialdiff
ENCODING 8706
SWIDTH 497 0
DWIDTH 4 0
BBX 4 6 0 0
BITMAP
2A90
0065
2AA8
8329
8337
2AA1
ENDCHAR
STARTCHAR Delta
ENCODING 8710
SWIDTH 614 0
DWIDTH 5 0
BBX 5 6 0 0
BITMAP
009000
04D300
094800
0A0B00
460830
AA9B80
ENDCHAR
STARTCHAR product
ENCODING 8719
SWIDTH 614 0
DWIDTH 5 0
BBX 5 7 0 -1
BITMAP
499930
650640
650640
650640
650640
650640
540540
ENDCHAR
STARTCHAR summation
ENCODING 8721
SWIDTH 513 0
DWIDTH 4 0
BBX 4 8 0 -2
BITMAP
7997
4800
0840
00B0
0470
1A00
9A88
0111
ENDCHAR
STARTCHAR minus
ENCODING 8722
SWIDTH 499 0
DWIDTH 4 0
BBX 4 2 0 2
BITMAP
1221
2773
ENDCHAR
STARTCHAR radical
ENCODING 8730
SWIDTH 536 0
DWIDTH 4 0
BBX 4 6 0 0
BITMAP
0007
000A
1056
6991
0AA0
0760
ENDCHAR
STARTCHAR infinity
ENCODING 8734
SWIDTH 874 0
DWIDTH 7 0
BBX 7 5 0 0
BITMAP
03203200
39969930
821D0280
822E1370
2AA4AA10
ENDCHAR
STARTCHAR integral
ENCODING 8747
SWIDTH 235 0
DWIDTH 2 0
BBX 4 8 -1 -2
BITMAP
02B2
0550
0550
0550
0550
0550
0650
1910
ENDCHAR
STARTCHAR approxequal
ENCODING 8776
SWIDTH 492 0
DWIDTH 4 0
BBX 4 3 0 1
BITMAP
6A74
1331
57A5
ENDCHAR
STARTCHAR notequal
ENCODING 8800
SWIDTH 479 0
DWIDTH 4 0
BBX 4 5 0 0
BITMAP
0050
4AC3
1741
3A72
1100
ENDCHAR
STARTCHAR lessequal
ENCODING 8804
SWIDTH 445 0
DWIDTH 4 0
BBX 3 5 0 0
BITMAP
0010
1790
8810
0390
6990
ENDCHAR
STARTCHAR greaterequal
ENCODING 8805
SWIDTH 460 0
DWIDTH 4 0
BBX 4 5 0 0
BITMAP
1000
3960
04B3
5600
4992
ENDCHAR
STARTCHAR lozenge
ENCODING 9674
SWIDTH 442 0
DWIDTH 4 0
BBX 4 6 0 0
BITMAP
0720
1A80
7391
9183
38A0
0B40
ENDCHAR
STARTCHAR uniEE01
ENCODING 60929
SWIDTH 271 0
DWIDTH 2 0
BBX 2 5 0 0
BITMAP
26
00
00
24
12
ENDCHAR
STARTCHAR uniEE02
ENCODING 60930
SWIDTH 298 0
DWIDTH 2 0
BBX 2 3 0 2
BITMAP
22
88
44
ENDCHAR
STARTCHAR uniF6C3
ENCODING 63171
SWIDTH 235 0
DWIDTH 2 0
BBX 2 2 0 -1
BITMAP
63
40
ENDCHAR
STARTCHAR uniFB01
ENCODING 64257
SWIDTH 489 0
DWIDTH 4 0
BBX 4 6 0 0
BITMAP
1B90
6821
7965
4655
4655
4655
ENDCHAR
STARTCHAR uniFB02
ENCODING 64258
SWIDTH 503 0
DWIDTH 4 0
BBX 4 6 0 0
BITMAP
1BA6
4A57
5A57
3847
3847
3847
ENDCHAR
STARTCHAR uniFB03
ENCODING 64259
SWIDTH 744 0
DWIDTH 6 0
BBX 6 6 0 0
BITMAP
1B5B90
4A6921
5A7965
384755
384755
384755
ENDCHAR
STARTCHAR uniFB04
ENCODING 64260
SWIDTH 744 0
DWIDTH 6 0
BBX 6 6 0 0
BITMAP
1B5BA5
4A6955
5A7965
384755
384755
384755
ENDCHAR
STARTCHAR uniFEFF
ENCODING 65279
SWIDTH 0 0
DWIDTH 0 0
BBX 1 1 0 0
BITMAP
00
ENDCHAR
STARTCHAR uniFFFC
ENCODING 65532
SWIDTH 1024 0
DWIDTH 8 0
BBX 8 8 0 -2
BITMAP
64635648
30000003
60111016
45589054
34688373
60000006
40000004
54635647
ENDCHAR
STARTCHAR uniFFFD
ENCODING 65533
SWIDTH 1025 0
DWIDTH 8 0
BBX 8 9 0 -2
BITMAP
00001000
000AC100
00AEEC10
0AF44CC1
6FFE5DF9
0AFCBFC1
00ACCC10
000AC100
00001000
ENDCHAR
STARTCHAR .notdef
ENCODING -1
SWIDTH 392 0
DWIDTH 3 0
BBX 3 6 0 0
BITMAP
4350
4250
3630
3530
3350
6370
ENDCHAR
STARTCHAR glyph369
ENCODING -1
SWIDTH 364 0
DWIDTH 3 0
BBX 3 2 0 4
BITMAP
6540
2500
ENDCHAR
STARTCHAR uni2009.locl
ENCODING -1
SWIDTH 124 0
DWIDTH 1 0
BBX 1 1 0 0
BITMAP
00
ENDCHAR
STARTCHAR f_f.dlig
ENCODING -1
SWIDTH 546 0
DWIDTH 4 0
BBX 5 6 0 0
BITMAP
1B6B20
4A8800
5A9900
385500
385500
385500
ENDCHAR
STARTCHAR longs_t.dlig
ENCODING -1
SWIDTH 544 0
DWIDTH 4 0
BBX 4 6 0 0
BITMAP
1BA4
4878
5889
3856
3856
383B
ENDCHAR
STARTCHAR s_t.dlig
ENCODING -1
SWIDTH 710 0
DWIDTH 6 0
BBX 6 6 0 0
BITMAP
008A70
03B2C1
68B5C2
4A30B0
22A2B0
5AB1B3
ENDCHAR
STARTCHAR two.dnom
ENCODING -1
SWIDTH 329 0
DWIDTH 3 0
BBX 3 4 0 0
BITMAP
0100
7A20
0910
8A30
ENDCHAR
STARTCHAR one.dnom
ENCODING -1
SWIDTH 329 0
DWIDTH 3 0
BBX 2 3 0 0
BITMAP
4A
09
09
ENDCHAR
STARTCHAR zero.dnom
ENCODING -1
SWIDTH 329 0
DWIDTH 3 0
BBX 3 4 0 0
BITMAP
0100
7A20
9440
7A20
ENDCHAR
STARTCHAR nine.c2sc
ENCODING -1
SWIDTH 447 0
DWIDTH 4 0
BBX 4 5 0 0
BITMAP
1850
83B1
84B2
17B0
0960
ENDCHAR
STARTCHAR eight.c2sc
ENCODING -1
SWIDTH 447 0
DWIDTH 4 0
BBX 4 5 0 0
BITMAP
1850
75B1
3CA0
83A1
5AB1
ENDCHAR
STARTCHAR seven.c2sc
ENCODING -1
SWIDTH 447 0
DWIDTH 4 0
BBX 4 5 0 0
BITMAP
6882
01A1
0280
0820
1A00
ENDCHAR
STARTCHAR six.c2sc
ENCODING -1
SWIDTH 447 0
DWIDTH 4 0
BBX 4 5 0 0
BITMAP
0550
4810
8AB1
8383
3AB1
ENDCHAR
STARTCHAR five.c2sc
ENCODING -1
SWIDTH 447 0
DWIDTH 4 0
BBX 4 5 0 0
BITMAP
2881
4610
4AB1
2173
4AB1
ENDCHAR
STARTCHAR four.c2sc
ENCODING -1
SWIDTH 447 0
DWIDTH 4 0
BBX 4 5 0 0
BITMAP
0170
08B0
37A0
A9D3
00A0
ENDCHAR
STARTCHAR three.c2sc
ENCODING -1
SWIDTH 447 0
DWIDTH 4 0
BBX 4 5 0 0
BITMAP
2850
62B0
07A0
20A1
6AB0
ENDCHAR
STARTCHAR two.c2sc
ENCODING -1
SWIDTH 447 0
DWIDTH 4 0
BBX 4 5 0 0
BITMAP
1860
73B1
01B0
0A30
7C93
ENDCHAR
STARTCHAR one.c2sc
ENCODING -1
SWIDTH 447 0
DWIDTH 4 0
BBX 3 5 0 0
BITMAP
0430
4A50
0650
0650
0650
ENDCHAR
STARTCHAR zero.c2sc
ENCODING -1
SWIDTH 447 0
DWIDTH 4 0
BBX 4 5 0 0
BITMAP
1850
74A1
9183
8282
3AA0
ENDCHAR
STARTCHAR Z.c2sc
ENCODING -1
SWIDTH 454 0
DWIDTH 4 0
BBX 4 5 0 0
BITMAP
6882
01A1
0740
2900
9A93
ENDCHAR
STARTCHAR Y.c2sc
ENCODING -1
SWIDTH 458 0
DWIDTH 4 0
BBX 4 5 0 0
BITMAP
6033
65A1
0B90
0830
0830
ENDCHAR
STARTCHAR X.c2sc
ENCODING -1
SWIDTH 478 0
DWIDTH 4 0
BBX 4 5 0 0
BITMAP
5134
38A1
0A70
1BA0
8475
ENDCHAR
STARTCHAR W.c2sc
ENCODING -1
SWIDTH 655 0
DWIDTH 5 0
BBX 5 5 0 0
BITMAP
606050
82C3A0
568790
2C3B60
0D0A30
ENDCHAR
STARTCHAR V.c2sc
ENCODING -1
SWIDTH 487 0
DWIDTH 4 0
BBX 4 5 0 0
BITMAP
6005
8346
3781
0A90
0860
ENDCHAR
STARTCHAR U.c2sc
ENCODING -1
SWIDTH 488 0
DWIDTH 4 0
BBX 4 5 0 0
BITMAP
5124
8237
8237
8237
4BB2
ENDCHAR
STARTCHAR T.c2sc
ENCODING -1
SWIDTH 456 0
DWIDTH 4 0
BBX 4 5 0 0
BITMAP
7884
1830
0830
0830
0830
ENDCHAR
STARTCHAR S.c2sc
ENCODING -1
SWIDTH 453 0
DWIDTH 4 0
BBX 4 5 0 0
BITMAP
1860
8463
3B50
4094
5AB2
ENDCHAR
STARTCHAR R.c2sc
ENCODING -1
SWIDTH 465 0
DWIDTH 4 0
BBX 4 5 0 0
BITMAP
4860
7475
77A3
76B0
7365
ENDCHAR
STARTCHAR Q.c2sc
ENCODING -1
SWIDTH 519 0
DWIDTH 4 0
BBX 4 6 0 -1
BITMAP
0770
6548
910A
8219
2AB4
0036
ENDCHAR
STARTCHAR P.c2sc
ENCODING -1
SWIDTH 481 0
DWIDTH 4 0
BBX 4 5 0 0
BITMAP
4871
7457
7786
7630
7300
ENDCHAR
STARTCHAR O.c2sc
ENCODING -1
SWIDTH 519 0
DWIDTH 4 0
BBX 4 5 0 0
BITMAP
0771
5638
910A
821A
2AA3
ENDCHAR
STARTCHAR N.c2sc
ENCODING -1
SWIDTH 533 0
DWIDTH 4 0
BBX 4 5 0 0
BITMAP
4306
7B0A
785A
739A
733B
ENDCHAR
STARTCHAR M.c2sc
ENCODING -1
SWIDTH 652 0
DWIDTH 5 0
BBX 5 5 0 0
BITMAP
440260
7B08A0
7A29A0
76A6A0
73C1A0
ENDCHAR
STARTCHAR L.c2sc
ENCODING -1
SWIDTH 411 0
DWIDTH 3 0
BBX 4 5 0 0
BITMAP
4200
7300
7300
7300
7A91
ENDCHAR
STARTCHAR K.c2sc
ENCODING -1
SWIDTH 473 0
DWIDTH 4 0
BBX 4 5 0 0
BITMAP
4234
74B1
7D40
76B0
7366
ENDCHAR
STARTCHAR J.c2sc
ENCODING -1
SWIDTH 419 0
DWIDTH 3 0
BBX 3 5 0 0
BITMAP
0060
00A0
00A0
30A0
8A80
ENDCHAR
STARTCHAR I.c2sc
ENCODING -1
SWIDTH 221 0
DWIDTH 2 0
BBX 2 5 0 0
BITMAP
42
74
74
74
74
ENDCHAR
STARTCHAR H.c2sc
ENCODING -1
SWIDTH 533 0
DWIDTH 4 0
BBX 4 5 0 0
BITMAP
4206
730A
7A8B
741A
730A
ENDCHAR
STARTCHAR G.c2sc
ENCODING -1
SWIDTH 509 0
DWIDTH 4 0
BBX 4 5 0 0
BITMAP
0781
6546
9143
8349
2A96
ENDCHAR
STARTCHAR F.c2sc
ENCODING -1
SWIDTH 415 0
DWIDTH 3 0
BBX 4 5 0 0
BITMAP
4881
7410
7A70
7410
7300
ENDCHAR
STARTCHAR dollar.c2sc
ENCODING -1
SWIDTH 453 0
DWIDTH 4 0
BBX 4 7 0 -1
BITMAP
0310
1A80
8463
3B50
4094
5AA2
0520
ENDCHAR
STARTCHAR sterling.c2sc
ENCODING -1
SWIDTH 467 0
DWIDTH 4 0
BBX 4 5 0 0
BITMAP
0670
3883
7A50
4700
7B94
ENDCHAR
STARTCHAR yen.c2sc
ENCODING -1
SWIDTH 400 0
DWIDTH 3 0
BBX 3 5 0 0
BITMAP
6060
74A0
2D50
7E80
1B20
ENDCHAR
STARTCHAR Gamma.c2sc
ENCODING -1
SWIDTH 405 0
DWIDTH 3 0
BBX 3 5 0 0
BITMAP
4880
7410
7300
7300
7300
ENDCHAR
STARTCHAR Delta.c2sc
ENCODING -1
SWIDTH 487 0
DWIDTH 4 0
BBX 4 5 0 0
BITMAP
0430
0990
1990
6564
AAA9
ENDCHAR
STARTCHAR Theta.c2sc
ENCODING -1
SWIDTH 519 0
DWIDTH 4 0
BBX 4 5 0 0
BITMAP
0771
5638
977A
831A
2AA3
ENDCHAR
STARTCHAR Lambda.c2sc
ENCODING -1
SWIDTH 487 0
DWIDTH 4 0
BBX 4 5 0 0
BITMAP
0430
0990
1990
6564
A129
ENDCHAR
STARTCHAR Xi.c2sc
ENCODING -1
SWIDTH 389 0
DWIDTH 3 0
BBX 3 5 0 0
BITMAP
6870
0110
5960
0000
7980
ENDCHAR
STARTCHAR Pi.c2sc
ENCODING -1
SWIDTH 525 0
DWIDTH 4 0
BBX 4 5 0 0
BITMAP
4886
741A
730A
730A
730A
ENDCHAR
STARTCHAR Sigma.c2sc
ENCODING -1
SWIDTH 435 0
DWIDTH 3 0
BBX 4 5 0 0
BITMAP
6881
6710
0C10
2A00
AA92
ENDCHAR
STARTCHAR Phi.c2sc
ENCODING -1
SWIDTH 587 0
DWIDTH 5 0
BBX 5 5 0 0
BITMAP
006000
3ADA00
82A640
65B920
06D400
ENDCHAR
STARTCHAR Psi.c2sc
ENCODING -1
SWIDTH 560 0
DWIDTH 4 0
BBX 5 5 0 0
BITMAP
525510
939910
759A00
1AD500
029000
ENDCHAR
STARTCHAR Omega.c2sc
ENCODING -1
SWIDTH 540 0
DWIDTH 4 0
BBX 4 5 0 0
BITMAP
0681
5629
820A
640A
5D8A
ENDCHAR
STARTCHAR uni0402.c2sc
ENCODING -1
SWIDTH 596 0
DWIDTH 5 0
BBX 5 5 0 0
BITMAP
788200
1A1000
0A9B20
0A0460
0A1A30
ENDCHAR
STARTCHAR uni0404.c2sc
ENCODING -1
SWIDTH 490 0
DWIDTH 4 0
BBX 4 5 0 0
BITMAP
0781
6547
9940
8214
2AA4
ENDCHAR
STARTCHAR uni0409.c2sc
ENCODING -1
SWIDTH 782 0
DWIDTH 6 0
BBX 6 5 0 0
BITMAP
088500
0B1A00
0A0D96
290A0B
940D98
ENDCHAR
STARTCHAR uni040A.c2sc
ENCODING -1
SWIDTH 788 0
DWIDTH 6 0
BBX 6 5 0 0
BITMAP
420600
730A00
7A8D97
741A0B
730D99
ENDCHAR
STARTCHAR uni040B.c2sc
ENCODING -1
SWIDTH 596 0
DWIDTH 5 0
BBX 5 5 0 0
BITMAP
788200
1A1000
0A9B20
0A0470
0A0470
ENDCHAR
STARTCHAR uni040F.c2sc
ENCODING -1
SWIDTH 524 0
DWIDTH 4 0
BBX 4 7 0 -2
BITMAP
4206
730A
730A
730A
7A9A
0470
0130
ENDCHAR
STARTCHAR uni0411.c2sc
ENCODING -1
SWIDTH 479 0
DWIDTH 4 0
BBX 4 5 0 0
BITMAP
4881
7300
7AA2
7347
7AB3
ENDCHAR
STARTCHAR uni0414.c2sc
ENCODING -1
SWIDTH 563 0
DWIDTH 5 0
BBX 5 7 0 -2
BITMAP
078600
0A1A00
0A0A00
190A00
9B9D20
B00640
300210
ENDCHAR
STARTCHAR uni0416.c2sc
ENCODING -1
SWIDTH 651 0
DWIDTH 5 0
BBX 5 5 0 0
BITMAP
526060
39A660
0BDC00
1AA840
84A1B0
ENDCHAR
STARTCHAR uni0417.c2sc
ENCODING -1
SWIDTH 466 0
DWIDTH 4 0
BBX 4 5 0 0
BITMAP
2860
5293
06B0
3083
6AB1
ENDCHAR
STARTCHAR uni0418.c2sc
ENCODING -1
SWIDTH 537 0
DWIDTH 4 0
BBX 4 5 0 0
BITMAP
4216
737B
759A
7C1A
770A
ENDCHAR
STARTCHAR uni041A.c2sc
ENCODING -1
SWIDTH 473 0
DWIDTH 4 0
BBX 4 5 0 0
BITMAP
4243
74A0
7C30
7790
7394
ENDCHAR
STARTCHAR uni041B.c2sc
ENCODING -1
SWIDTH 521 0
DWIDTH 4 0
BBX 4 5 0 0
BITMAP
0885
0B1A
1A0A
280A
940A
ENDCHAR
STARTCHAR uni0423.c2sc
ENCODING -1
SWIDTH 454 0
DWIDTH 4 0
BBX 4 5 0 0
BITMAP
6133
7592
19A0
0B60
2B10
ENDCHAR
STARTCHAR uni0426.c2sc
ENCODING -1
SWIDTH 564 0
DWIDTH 5 0
BBX 5 7 0 -2
BITMAP
420600
730A00
730A00
730A00
7A9D30
000640
000210
ENDCHAR
STARTCHAR uni0427.c2sc
ENCODING -1
SWIDTH 487 0
DWIDTH 4 0
BBX 4 5 0 0
BITMAP
6023
B046
9586
1686
0046
ENDCHAR
STARTCHAR uni0428.c2sc
ENCODING -1
SWIDTH 691 0
DWIDTH 6 0
BBX 5 5 0 0
BITMAP
425160
7392A0
7392A0
7392A0
7ACAD0
ENDCHAR
STARTCHAR uni0429.c2sc
ENCODING -1
SWIDTH 731 0
DWIDTH 6 0
BBX 6 7 0 -2
BITMAP
425160
7392A0
7392A0
7392A0
7ACAD6
000019
000003
ENDCHAR
STARTCHAR uni042A.c2sc
ENCODING -1
SWIDTH 559 0
DWIDTH 4 0
BBX 5 5 0 0
BITMAP
770000
1A0000
0B9800
0A0920
0B9A00
ENDCHAR
STARTCHAR uni042B.c2sc
ENCODING -1
SWIDTH 658 0
DWIDTH 5 0
BBX 5 5 0 0
BITMAP
420060
7300A0
7AA2A0
7347A0
7AB3A0
ENDCHAR
STARTCHAR uni042C.c2sc
ENCODING -1
SWIDTH 475 0
DWIDTH 4 0
BBX 4 5 0 0
BITMAP
4200
7300
7AA2
7347
7AB3
ENDCHAR
STARTCHAR uni042D.c2sc
ENCODING -1
SWIDTH 491 0
DWIDTH 4 0
BBX 4 5 0 0
BITMAP
1860
8365
05A8
5037
4AA2
ENDCHAR
STARTCHAR uni042E.c2sc
ENCODING -1
SWIDTH 705 0
DWIDTH 6 0
BBX 6 5 0 0
BITMAP
423840
73B1A1
7B8073
74A082
738990
ENDCHAR
STARTCHAR uni042F.c2sc
ENCODING -1
SWIDTH 499 0
DWIDTH 4 0
BBX 4 5 0 0
BITMAP
1784
6647
3A97
1A57
6437
ENDCHAR
STARTCHAR uni0492.c2sc
ENCODING -1
SWIDTH 444 0
DWIDTH 4 0
BBX 4 5 0 0
BITMAP
1883
3810
9C20
3800
3800
ENDCHAR
STARTCHAR uni0496.c2sc
ENCODING -1
SWIDTH 676 0
DWIDTH 5 0
BBX 6 7 0 -2
BITMAP
526060
39A660
0BDC00
1AA840
84A1C2
000064
000021
ENDCHAR
STARTCHAR uni049A.c2sc
ENCODING -1
SWIDTH 492 0
DWIDTH 4 0
BBX 4 7 0 -2
BITMAP
4243
74A0
7C30
7790
7397
0009
0003
ENDCHAR
STARTCHAR uni049C.c2sc
ENCODING -1
SWIDTH 562 0
DWIDTH 5 0
BBX 5 5 0 0
BITMAP
420610
774800
7DB000
7A8400
730B10
ENDCHAR
STARTCHAR uni04A0.c2sc
ENCODING -1
SWIDTH 571 0
DWIDTH 5 0
BBX 5 5 0 0
BITMAP
680610
1B3900
0AB100
0A7500
0A0B20
ENDCHAR
STARTCHAR uni04A8.c2sc
ENCODING -1
SWIDTH 625 0
DWIDTH 5 0
BBX 5 5 0 0
BITMAP
074800
65A560
92A370
73B650
1ABD50
ENDCHAR
STARTCHAR uni04B0.c2sc
ENCODING -1
SWIDTH 480 0
DWIDTH 4 0
BBX 4 5 0 0
BITMAP
6033
65A1
0B90
2FB0
0830
ENDCHAR
STARTCHAR uni04B2.c2sc
ENCODING -1
SWIDTH 514 0
DWIDTH 4 0
BBX 4 7 0 -2
BITMAP
5134
38A1
0A70
1BA0
8479
0009
0003
ENDCHAR
STARTCHAR uni04B4.c2sc
ENCODING -1
SWIDTH 695 0
DWIDTH 6 0
BBX 6 7 0 -2
BITMAP
788340
1A1280
0A1280
0A1280
0A9AC1
000081
000030
ENDCHAR
STARTCHAR uni04B8.c2sc
ENCODING -1
SWIDTH 487 0
DWIDTH 4 0
BBX 4 5 0 0
BITMAP
6023
B156
9A96
1A96
0156
ENDCHAR
STARTCHAR uni04BA.c2sc
ENCODING -1
SWIDTH 487 0
DWIDTH 4 0
BBX 4 5 0 0
BITMAP
4200
7300
7AA4
7319
7319
ENDCHAR
STARTCHAR uni04BC.c2sc
ENCODING -1
SWIDTH 632 0
DWIDTH 5 0
BBX 5 5 0 0
BITMAP
017710
483470
8D99A0
0A1000
03AA10
ENDCHAR
STARTCHAR uni04D8.c2sc
ENCODING -1
SWIDTH 527 0
DWIDTH 4 0
BBX 4 5 0 0
BITMAP
1871
0239
588C
831A
2AA4
ENDCHAR
STARTCHAR uni04E0.c2sc
ENCODING -1
SWIDTH 466 0
DWIDTH 4 0
BBX 4 5 0 0
BITMAP
5881
03A0
0880
3074
6AB1
ENDCHAR
STARTCHAR uni04E8.c2sc
ENCODING -1
SWIDTH 519 0
DWIDTH 4 0
BBX 4 5 0 0
BITMAP
0771
5538
999B
821A
2AA3
ENDCHAR
STARTCHAR lira.c2sc
ENCODING -1
SWIDTH 467 0
DWIDTH 4 0
BBX 4 5 0 0
BITMAP
0670
3883
7A50
8A50
7B94
ENDCHAR
STARTCHAR Euro.c2sc
ENCODING -1
SWIDTH 433 0
DWIDTH 3 0
BBX 4 5 0 0
BITMAP
0491
1A00
7B60
5B50
0A91
ENDCHAR
STARTCHAR uni2116.c2sc
ENCODING -1
SWIDTH 884 0
DWIDTH 7 0
BBX 7 5 0 0
BITMAP
43063820
7B0A9280
785A8670
739A3920
733B2410
ENDCHAR
STARTCHAR uni20BD.c2sc
ENCODING -1
SWIDTH 512 0
DWIDTH 4 0
BBX 4 5 0 0
BITMAP
1882
282A
5A5A
9D61
5A10
ENDCHAR
STARTCHAR three.dnom
ENCODING -1
SWIDTH 329 0
DWIDTH 3 0
BBX 3 4 0 0
BITMAP
0100
6A20
0A20
7920
ENDCHAR
STARTCHAR four.dnom
ENCODING -1
SWIDTH 329 0
DWIDTH 3 0
BBX 3 4 0 0
BITMAP
0100
0D10
7B20
4A20
ENDCHAR
STARTCHAR five.dnom
ENCODING -1
SWIDTH 329 0
DWIDTH 3 0
BBX 3 4 0 0
BITMAP
0100
7710
5920
5A30
ENDCHAR
STARTCHAR six.dnom
ENCODING -1
SWIDTH 329 0
DWIDTH 3 0
BBX 3 4 0 0
BITMAP
0100
5800
9A30
6A30
ENDCHAR
STARTCHAR seven.dnom
ENCODING -1
SWIDTH 329 0
DWIDTH 3 0
BBX 3 4 0 0
BITMAP
1100
5A30
0900
3600
ENDCHAR
STARTCHAR eight.dnom
ENCODING -1
SWIDTH 329 0
DWIDTH 3 0
BBX 3 4 0 0
BITMAP
0100
7A20
7B20
7930
ENDCHAR
STARTCHAR nine.dnom
ENCODING -1
SWIDTH 329 0
DWIDTH 3 0
BBX 3 4 0 0
BITMAP
0100
8A20
7A40
2910
ENDCHAR
STARTCHAR glyph550
ENCODING -1
SWIDTH 404 0
DWIDTH 3 0
BBX 3 2 0 2
BITMAP
1210
3750
ENDCHAR
STARTCHAR glyph551
ENCODING -1
SWIDTH 306 0
DWIDTH 2 0
BBX 2 3 0 4
BITMAP
04
25
34
ENDCHAR
STARTCHAR E.c2sc
ENCODING -1
SWIDTH 428 0
DWIDTH 3 0
BBX 4 5 0 0
BITMAP
4881
7410
7A80
7300
7A92
ENDCHAR
STARTCHAR g.ss01
ENCODING -1
SWIDTH 463 0
DWIDTH 4 0
BBX 4 7 0 -2
BITMAP
0442
77C4
84A2
4A50
7A92
B056
5980
ENDCHAR
STARTCHAR alpha.ss02
ENCODING -1
SWIDTH 523 0
DWIDTH 4 0
BBX 4 5 0 0
BITMAP
0312
4989
8237
8247
3B89
ENDCHAR
STARTCHAR R.ss03
ENCODING -1
SWIDTH 577 0
DWIDTH 5 0
BBX 5 6 0 0
BITMAP
4A9400
560C00
562B00
5B9900
560B00
560A10
ENDCHAR
STARTCHAR K.ss04
ENCODING -1
SWIDTH 560 0
DWIDTH 4 0
BBX 5 6 0 0
BITMAP
440810
555800
58B000
5AB000
556600
550B20
ENDCHAR
STARTCHAR k.ss04
ENCODING -1
SWIDTH 453 0
DWIDTH 4 0
BBX 4 6 0 0
BITMAP
7400
7421
74B1
7B50
7690
7484
ENDCHAR
STARTCHAR K.ss05
ENCODING -1
SWIDTH 572 0
DWIDTH 5 0
BBX 5 6 0 0
BITMAP
440800
559500
5A8000
5C6000
56A300
551B10
ENDCHAR
STARTCHAR k.ss05
ENCODING -1
SWIDTH 454 0
DWIDTH 4 0
BBX 4 7 0 0
BITMAP
1000
7400
7421
76A0
7D10
7A60
74A2
ENDCHAR
STARTCHAR D.c2sc
ENCODING -1
SWIDTH 492 0
DWIDTH 4 0
BBX 4 5 0 0
BITMAP
4850
7474
7328
7347
7A91
ENDCHAR
STARTCHAR C.c2sc
ENCODING -1
SWIDTH 490 0
DWIDTH 4 0
BBX 4 5 0 0
BITMAP
0781
6547
9100
8214
2AA4
ENDCHAR
STARTCHAR B.c2sc
ENCODING -1
SWIDTH 475 0
DWIDTH 4 0
BBX 4 5 0 0
BITMAP
4860
7484
7AC1
7365
7AB2
ENDCHAR
STARTCHAR A.c2sc
ENCODING -1
SWIDTH 501 0
DWIDTH 4 0
BBX 4 5 0 0
BITMAP
0330
0990
1991
5BB5
A10A
ENDCHAR
STARTCHAR glyph564
ENCODING -1
SWIDTH 236 0
DWIDTH 2 0
BBX 2 3 0 4
BITMAP
01
46
32
ENDCHAR
STARTCHAR glyph565
ENCODING -1
SWIDTH 402 0
DWIDTH 3 0
BBX 3 3 0 4
BITMAP
0400
4740
0100
ENDCHAR
STARTCHAR glyph566
ENCODING -1
SWIDTH 0 0
DWIDTH 0 0
BBX 2 3 -3 4
BITMAP
05
47
11
ENDCHAR
STARTCHAR glyph567
ENCODING -1
SWIDTH 455 0
DWIDTH 4 0
BBX 4 3 0 4
BITMAP
0006
1972
1010
ENDCHAR
STARTCHAR glyph568
ENCODING -1
SWIDTH 454 0
DWIDTH 4 0
BBX 4 3 -1 4
BITMAP
3300
0594
0112
ENDCHAR
STARTCHAR glyph569
ENCODING -1
SWIDTH 446 0
DWIDTH 4 0
BBX 4 3 0 4
BITMAP
0033
2891
1010
ENDCHAR
STARTCHAR glyph570
ENCODING -1
SWIDTH 453 0
DWIDTH 4 0
BBX 3 3 0 4
BITMAP
1630
1740
1010
ENDCHAR
STARTCHAR uni0490.c2sc
ENCODING -1
SWIDTH 405 0
DWIDTH 3 0
BBX 4 6 0 0
BITMAP
0071
48D1
7410
7300
7300
7300
ENDCHAR
STARTCHAR glyph572
ENCODING -1
SWIDTH 404 0
DWIDTH 3 0
BBX 3 3 0 4
BITMAP
0300
4740
0100
ENDCHAR
STARTCHAR glyph573
ENCODING -1
SWIDTH 404 0
DWIDTH 3 0
BBX 3 3 0 4
BITMAP
0810
4830
0100
ENDCHAR
STARTCHAR zero.numr
ENCODING -1
SWIDTH 329 0
DWIDTH 3 0
BBX 3 4 0 2
BITMAP
4810
9540
9640
2600
ENDCHAR
STARTCHAR four.numr
ENCODING -1
SWIDTH 329 0
DWIDTH 3 0
BBX 3 4 0 2
BITMAP
0700
4C10
7C30
0300
ENDCHAR
STARTCHAR five.numr
ENCODING -1
SWIDTH 329 0
DWIDTH 3 0
BBX 3 4 0 2
BITMAP
4810
8810
4640
2600
ENDCHAR
STARTCHAR six.numr
ENCODING -1
SWIDTH 329 0
DWIDTH 3 0
BBX 3 4 0 2
BITMAP
2800
9910
8640
2600
ENDCHAR
STARTCHAR seven.numr
ENCODING -1
SWIDTH 329 0
DWIDTH 3 0
BBX 3 4 0 2
BITMAP
6830
0810
1800
2200
ENDCHAR
STARTCHAR eight.numr
ENCODING -1
SWIDTH 329 0
DWIDTH 3 0
BBX 3 4 0 2
BITMAP
4810
7A20
8830
2500
ENDCHAR
STARTCHAR nine.numr
ENCODING -1
SWIDTH 329 0
DWIDTH 3 0
BBX 3 4 0 2
BITMAP
4810
9640
2B20
1400
ENDCHAR
STARTCHAR C.ss06
ENCODING -1
SWIDTH 603 0
DWIDTH 5 0
BBX 5 7 0 -1
BITMAP
069700
390840
640110
740000
470540
099A10
001000
ENDCHAR
STARTCHAR G.ss06
ENCODING -1
SWIDTH 618 0
DWIDTH 5 0
BBX 5 7 0 -1
BITMAP
069700
390740
640000
743A50
470460
099A30
001000
ENDCHAR
STARTCHAR D.ss06
ENCODING -1
SWIDTH 608 0
DWIDTH 5 0
BBX 5 6 0 0
BITMAP
4A9300
551B10
550650
550650
550A20
5BA600
ENDCHAR
STARTCHAR O.ss06
ENCODING -1
SWIDTH 643 0
DWIDTH 5 0
BBX 5 7 0 -1
BITMAP
05A600
3A0840
740290
740190
470560
099A10
001000
ENDCHAR
STARTCHAR Q.ss06
ENCODING -1
SWIDTH 644 0
DWIDTH 5 0
BBX 5 7 0 -1
BITMAP
05A600
3A0840
740290
740190
470560
099C10
001920
ENDCHAR
STARTCHAR one.oldstyle.pnum
ENCODING -1
SWIDTH 421 0
DWIDTH 3 0
BBX 3 5 0 0
BITMAP
0240
4980
0380
0380
0380
ENDCHAR
STARTCHAR two.oldstyle.pnum
ENCODING -1
SWIDTH 492 0
DWIDTH 4 0
BBX 4 5 0 0
BITMAP
0780
5675
0092
0750
4D95
ENDCHAR
STARTCHAR three.oldstyle.pnum
ENCODING -1
SWIDTH 474 0
DWIDTH 4 0
BBX 4 7 0 -2
BITMAP
5882
01A0
0960
0092
0064
54B1
2510
ENDCHAR
STARTCHAR four.oldstyle.pnum
ENCODING -1
SWIDTH 524 0
DWIDTH 4 0
BBX 4 7 0 -2
BITMAP
0053
01D5
0885
2865
9ABB
0065
0021
ENDCHAR
STARTCHAR five.oldstyle.pnum
ENCODING -1
SWIDTH 483 0
DWIDTH 4 0
BBX 4 7 0 -2
BITMAP
1884
4621
6970
4385
0046
44A3
1520
ENDCHAR
STARTCHAR seven.oldstyle.pnum
ENCODING -1
SWIDTH 458 0
DWIDTH 4 0
BBX 4 7 0 -2
BITMAP
6883
0182
00A0
0460
0910
1A00
1200
ENDCHAR
STARTCHAR glyph592
ENCODING -1
SWIDTH 402 0
DWIDTH 3 0
BBX 3 3 0 4
BITMAP
3730
4630
0100
ENDCHAR
STARTCHAR glyph593
ENCODING -1
SWIDTH 183 0
DWIDTH 1 0
BBX 2 3 0 -2
BITMAP
61
91
40
ENDCHAR
STARTCHAR OE.c2sc
ENCODING -1
SWIDTH 714 0
DWIDTH 6 0
BBX 6 6 0 -1
BITMAP
079884
563810
913C92
823800
2AAC94
001000
ENDCHAR
STARTCHAR nine.oldstyle.pnum
ENCODING -1
SWIDTH 520 0
DWIDTH 4 0
BBX 4 7 0 -2
BITMAP
0781
4738
740A
3A6A
0358
15A3
0420
ENDCHAR
STARTCHAR glyph596
ENCODING -1
SWIDTH 234 0
DWIDTH 2 0
BBX 3 3 -1 -2
BITMAP
0330
0650
1910
ENDCHAR
STARTCHAR three.oldstyle
ENCODING -1
SWIDTH 494 0
DWIDTH 4 0
BBX 4 7 0 -2
BITMAP
4883
01A1
0780
0074
0046
44A2
1520
ENDCHAR
STARTCHAR five.oldstyle
ENCODING -1
SWIDTH 494 0
DWIDTH 4 0
BBX 4 7 0 -2
BITMAP
1884
3721
5970
3475
0037
44A3
1530
ENDCHAR
STARTCHAR four.oldstyle
ENCODING -1
SWIDTH 494 0
DWIDTH 4 0
BBX 4 7 0 -2
BITMAP
0052
02E4
0984
3774
BAC9
0074
0021
ENDCHAR
STARTCHAR two.oldstyle
ENCODING -1
SWIDTH 494 0
DWIDTH 4 0
BBX 4 5 0 0
BITMAP
0770
6574
0092
0850
5D95
ENDCHAR
STARTCHAR seven.oldstyle
ENCODING -1
SWIDTH 494 0
DWIDTH 4 0
BBX 4 7 0 -2
BITMAP
4884
0165
00A0
0190
0730
0A00
0300
ENDCHAR
STARTCHAR zero.oldstyle
ENCODING -1
SWIDTH 494 0
DWIDTH 4 0
BBX 4 5 0 0
BITMAP
0770
8447
A00A
9119
3AA3
ENDCHAR
STARTCHAR six.oldstyle
ENCODING -1
SWIDTH 494 0
DWIDTH 4 0
BBX 4 6 0 0
BITMAP
0480
2900
6A91
7557
6537
1AA2
ENDCHAR
STARTCHAR nine.oldstyle
ENCODING -1
SWIDTH 494 0
DWIDTH 4 0
BBX 4 7 0 -2
BITMAP
0770
7465
9228
5888
0476
25B2
1410
ENDCHAR
STARTCHAR eight.oldstyle
ENCODING -1
SWIDTH 494 0
DWIDTH 4 0
BBX 4 6 0 0
BITMAP
1990
6565
3892
3992
8347
3AA3
ENDCHAR
STARTCHAR one.oldstyle
ENCODING -1
SWIDTH 494 0
DWIDTH 4 0
BBX 3 5 0 0
BITMAP
0150
19B0
00A0
00A0
00A0
ENDCHAR
STARTCHAR glyph607
ENCODING -1
SWIDTH 237 0
DWIDTH 2 0
BBX 3 7 -1 -2
BITMAP
0110
0550
0550
0550
0550
0640
1910
ENDCHAR
STARTCHAR glyph608
ENCODING -1
SWIDTH 238 0
DWIDTH 2 0
BBX 3 7 -1 -2
BITMAP
0110
0550
0550
0550
0550
0640
1910
ENDCHAR
STARTCHAR glyph609
ENCODING -1
SWIDTH 235 0
DWIDTH 2 0
BBX 2 5 0 0
BITMAP
11
64
64
64
64
ENDCHAR
STARTCHAR glyph610
ENCODING -1
SWIDTH 235 0
DWIDTH 2 0
BBX 2 7 0 -2
BITMAP
11
64
64
64
74
90
72
ENDCHAR
STARTCHAR glyph611
ENCODING -1
SWIDTH 235 0
DWIDTH 2 0
BBX 2 5 0 0
BITMAP
11
64
64
64
64
ENDCHAR
STARTCHAR germandbls.sc
ENCODING -1
SWIDTH 475 0
DWIDTH 4 0
BBX 4 5 0 0
BITMAP
1860
65B1
77A1
7356
78B3
ENDCHAR
STARTCHAR zero.oldstyle.pnum
ENCODING -1
SWIDTH 545 0
DWIDTH 4 0
BBX 4 5 0 0
BITMAP
0681
4729
830A
640A
1A95
ENDCHAR
STARTCHAR seven.pnum
ENCODING -1
SWIDTH 458 0
DWIDTH 4 0
BBX 4 6 0 0
BITMAP
6993
0091
0090
0550
0A10
1900
ENDCHAR
STARTCHAR b.ss06
ENCODING -1
SWIDTH 493 0
DWIDTH 4 0
BBX 4 6 0 0
BITMAP
7300
7530
7995
7319
7328
7AB3
ENDCHAR
STARTCHAR c.ss06
ENCODING -1
SWIDTH 460 0
DWIDTH 4 0
BBX 4 5 0 0
BITMAP
0330
4893
9111
8222
3AA2
ENDCHAR
STARTCHAR d.ss06
ENCODING -1
SWIDTH 503 0
DWIDTH 4 0
BBX 4 6 0 0
BITMAP
0037
0357
4997
8237
8337
2BA7
ENDCHAR
STARTCHAR g.ss06
ENCODING -1
SWIDTH 500 0
DWIDTH 4 0
BBX 4 7 0 -2
BITMAP
0322
4997
8237
8237
2BA7
1165
1880
ENDCHAR
STARTCHAR o.ss06
ENCODING -1
SWIDTH 508 0
DWIDTH 4 0
BBX 4 5 0 0
BITMAP
0330
3985
820A
8219
2AA3
ENDCHAR
STARTCHAR p.ss06
ENCODING -1
SWIDTH 500 0
DWIDTH 4 0
BBX 4 7 0 -2
BITMAP
2230
7895
7319
7329
7AB3
7300
5200
ENDCHAR
STARTCHAR q.ss06
ENCODING -1
SWIDTH 508 0
DWIDTH 4 0
BBX 4 7 0 -2
BITMAP
0322
4987
9237
8237
3BA7
0037
0025
ENDCHAR
STARTCHAR e.ss07
ENCODING -1
SWIDTH 468 0
DWIDTH 4 0
BBX 4 5 0 0
BITMAP
0320
39A3
89A6
8411
2A92
ENDCHAR
STARTCHAR g.ss07
ENCODING -1
SWIDTH 492 0
DWIDTH 4 0
BBX 4 7 0 -2
BITMAP
0322
5997
9247
8247
3BB7
0164
1970
ENDCHAR
STARTCHAR one.pnum
ENCODING -1
SWIDTH 382 0
DWIDTH 3 0
BBX 3 6 0 0
BITMAP
1720
6930
0730
0730
0730
0730
ENDCHAR
STARTCHAR ampersand.c2sc
ENCODING -1
SWIDTH 526 0
DWIDTH 4 0
BBX 4 5 0 0
BITMAP
1840
47B0
1E53
75B8
6AB8
ENDCHAR
STARTCHAR Lslash.c2sc
ENCODING -1
SWIDTH 411 0
DWIDTH 3 0
BBX 4 5 0 0
BITMAP
4200
7300
A900
8300
7A91
ENDCHAR
STARTCHAR AE.c2sc
ENCODING -1
SWIDTH 676 0
DWIDTH 5 0
BBX 6 5 0 0
BITMAP
007880
04C400
096B70
3CB500
915B91
ENDCHAR
STARTCHAR Thorn.c2sc
ENCODING -1
SWIDTH 440 0
DWIDTH 4 0
BBX 4 5 0 0
BITMAP
4200
7A80
7383
79B1
7400
ENDCHAR
STARTCHAR Oslash.c2sc
ENCODING -1
SWIDTH 519 0
DWIDTH 4 0
BBX 4 6 0 -1
BITMAP
0785
5688
937A
8A1A
4CA3
2000
ENDCHAR
STARTCHAR Hbar.c2sc
ENCODING -1
SWIDTH 533 0
DWIDTH 4 0
BBX 5 5 0 0
BITMAP
420600
AA9D10
7A8B00
741A00
730A00
ENDCHAR
STARTCHAR Eng.c2sc
ENCODING -1
SWIDTH 533 0
DWIDTH 4 0
BBX 4 7 0 -2
BITMAP
4306
7B0A
785A
739A
733B
000A
0064
ENDCHAR
STARTCHAR Dcroat.c2sc
ENCODING -1
SWIDTH 492 0
DWIDTH 4 0
BBX 5 5 -1 0
BITMAP
048500
074740
1FC280
073470
07A910
ENDCHAR
STARTCHAR Eth.c2sc
ENCODING -1
SWIDTH 492 0
DWIDTH 4 0
BBX 5 5 -1 0
BITMAP
048500
074740
1FC280
073470
07A910
ENDCHAR
STARTCHAR Tbar.c2sc
ENCODING -1
SWIDTH 456 0
DWIDTH 4 0
BBX 4 5 0 0
BITMAP
7884
1930
2FA0
0830
0830
ENDCHAR
STARTCHAR Agrave.c2sc
ENCODING -1
SWIDTH 501 0
DWIDTH 4 0
BBX 4 7 0 0
BITMAP
0100
0920
0340
0990
1991
5BB5
A10A
ENDCHAR
STARTCHAR Aacute.c2sc
ENCODING -1
SWIDTH 501 0
DWIDTH 4 0
BBX 4 7 0 0
BITMAP
0010
0290
0330
0990
1991
5BB5
A10A
ENDCHAR
STARTCHAR Acircumflex.c2sc
ENCODING -1
SWIDTH 501 0
DWIDTH 4 0
BBX 4 6 0 0
BITMAP
0880
0330
0990
1991
5BB5
A10A
ENDCHAR
STARTCHAR Atilde.c2sc
ENCODING -1
SWIDTH 501 0
DWIDTH 4 0
BBX 4 6 0 0
BITMAP
1A91
0330
0990
1991
5BB5
A10A
ENDCHAR
STARTCHAR Adieresis.c2sc
ENCODING -1
SWIDTH 501 0
DWIDTH 4 0
BBX 4 6 0 0
BITMAP
2652
0330
0990
1991
5BB5
A10A
ENDCHAR
STARTCHAR Aring.c2sc
ENCODING -1
SWIDTH 501 0
DWIDTH 4 0
BBX 4 7 0 0
BITMAP
0330
0770
0340
0990
1991
5BB5
A10A
ENDCHAR
STARTCHAR Aringacute.c2sc
ENCODING -1
SWIDTH 501 0
DWIDTH 4 0
BBX 4 7 0 0
BITMAP
0040
0340
0670
0990
1991
5BB5
A10A
ENDCHAR
STARTCHAR Ccedilla.c2sc
ENCODING -1
SWIDTH 490 0
DWIDTH 4 0
BBX 4 7 0 -2
BITMAP
0781
6547
9100
8214
2AA4
0270
0250
ENDCHAR
STARTCHAR Egrave.c2sc
ENCODING -1
SWIDTH 428 0
DWIDTH 3 0
BBX 4 7 0 0
BITMAP
1100
1A10
4881
7410
7A80
7300
7A92
ENDCHAR
STARTCHAR Eacute.c2sc
ENCODING -1
SWIDTH 428 0
DWIDTH 3 0
BBX 4 7 0 0
BITMAP
0020
0370
4881
7410
7A80
7300
7A92
ENDCHAR
STARTCHAR Ecircumflex.c2sc
ENCODING -1
SWIDTH 428 0
DWIDTH 3 0
BBX 4 7 0 0
BITMAP
0100
0870
4881
7410
7A80
7300
7A92
ENDCHAR
STARTCHAR Edieresis.c2sc
ENCODING -1
SWIDTH 428 0
DWIDTH 3 0
BBX 4 6 0 0
BITMAP
4471
4881
7410
7A80
7300
7A92
ENDCHAR
STARTCHAR Igrave.c2sc
ENCODING -1
SWIDTH 221 0
DWIDTH 2 0
BBX 2 7 0 0
BITMAP
10
A1
42
74
74
74
74
ENDCHAR
STARTCHAR Iacute.c2sc
ENCODING -1
SWIDTH 221 0
DWIDTH 2 0
BBX 2 7 0 0
BITMAP
01
38
42
74
74
74
74
ENDCHAR
STARTCHAR Icircumflex.c2sc
ENCODING -1
SWIDTH 221 0
DWIDTH 2 0
BBX 2 7 0 0
BITMAP
10
87
42
74
74
74
74
ENDCHAR
STARTCHAR Idieresis.c2sc
ENCODING -1
SWIDTH 221 0
DWIDTH 2 0
BBX 4 6 -1 0
BITMAP
3471
0420
0740
0740
0740
0740
ENDCHAR
STARTCHAR Ntilde.c2sc
ENCODING -1
SWIDTH 533 0
DWIDTH 4 0
BBX 4 6 0 0
BITMAP
0A92
4306
7B0A
785A
739A
733B
ENDCHAR
STARTCHAR Ograve.c2sc
ENCODING -1
SWIDTH 519 0
DWIDTH 4 0
BBX 4 7 0 0
BITMAP
0100
0830
0781
5638
910A
821A
2AA3
ENDCHAR
STARTCHAR Oacute.c2sc
ENCODING -1
SWIDTH 519 0
DWIDTH 4 0
BBX 4 7 0 0
BITMAP
0010
0190
0781
5638
910A
821A
2AA3
ENDCHAR
STARTCHAR Ocircumflex.c2sc
ENCODING -1
SWIDTH 519 0
DWIDTH 4 0
BBX 4 7 0 0
BITMAP
0010
0780
0771
5638
910A
821A
2AA3
ENDCHAR
STARTCHAR Otilde.c2sc
ENCODING -1
SWIDTH 519 0
DWIDTH 4 0
BBX 4 6 0 0
BITMAP
0A92
0771
5638
910A
821A
2AA3
ENDCHAR
STARTCHAR Odieresis.c2sc
ENCODING -1
SWIDTH 519 0
DWIDTH 4 0
BBX 4 6 0 0
BITMAP
1753
0771
5638
910A
821A
2AA3
ENDCHAR
STARTCHAR Ugrave.c2sc
ENCODING -1
SWIDTH 488 0
DWIDTH 4 0
BBX 4 7 0 0
BITMAP
0100
0910
5124
8237
8237
8237
4BB2
ENDCHAR
STARTCHAR Uacute.c2sc
ENCODING -1
SWIDTH 488 0
DWIDTH 4 0
BBX 4 7 0 0
BITMAP
0010
0290
5124
8237
8237
8237
4BB2
ENDCHAR
STARTCHAR Ucircumflex.c2sc
ENCODING -1
SWIDTH 488 0
DWIDTH 4 0
BBX 4 7 0 0
BITMAP
0100
0870
5124
8237
8237
8237
4BB2
ENDCHAR
STARTCHAR Udieresis.c2sc
ENCODING -1
SWIDTH 488 0
DWIDTH 4 0
BBX 4 6 0 0
BITMAP
2562
5124
8237
8237
8237
4BB2
ENDCHAR
STARTCHAR Yacute.c2sc
ENCODING -1
SWIDTH 458 0
DWIDTH 4 0
BBX 4 7 0 0
BITMAP
0020
0370
6033
65A1
0B90
0830
0830
ENDCHAR
STARTCHAR Amacron.c2sc
ENCODING -1
SWIDTH 501 0
DWIDTH 4 0
BBX 4 6 0 0
BITMAP
1881
0330
0990
1991
5BB5
A10A
ENDCHAR
STARTCHAR Abreve.c2sc
ENCODING -1
SWIDTH 501 0
DWIDTH 4 0
BBX 4 6 0 0
BITMAP
1A91
0340
0990
1991
5BB5
A10A
ENDCHAR
STARTCHAR Aogonek.c2sc
ENCODING -1
SWIDTH 501 0
DWIDTH 4 0
BBX 4 7 0 -2
BITMAP
0330
0990
1991
5BB5
A10A
0045
0036
ENDCHAR
STARTCHAR Cacute.c2sc
ENCODING -1
SWIDTH 490 0
DWIDTH 4 0
BBX 4 7 0 0
BITMAP
0010
0290
0781
6547
9100
8214
2AA4
ENDCHAR
STARTCHAR Ccircumflex.c2sc
ENCODING -1
SWIDTH 490 0
DWIDTH 4 0
BBX 4 6 0 0
BITMAP
0880
0781
6547
9100
8214
2AA4
ENDCHAR
STARTCHAR Cdotaccent.c2sc
ENCODING -1
SWIDTH 490 0
DWIDTH 4 0
BBX 4 6 0 0
BITMAP
0440
0781
6547
9100
8214
2AA4
ENDCHAR
STARTCHAR Ccaron.c2sc
ENCODING -1
SWIDTH 490 0
DWIDTH 4 0
BBX 4 7 0 0
BITMAP
0110
0770
0781
6547
9100
8214
2AA4
ENDCHAR
STARTCHAR Dcaron.c2sc
ENCODING -1
SWIDTH 492 0
DWIDTH 4 0
BBX 4 7 0 0
BITMAP
1110
1940
4850
7474
7328
7347
7A91
ENDCHAR
STARTCHAR Emacron.c2sc
ENCODING -1
SWIDTH 428 0
DWIDTH 3 0
BBX 4 6 0 0
BITMAP
2880
4881
7410
7A80
7300
7A92
ENDCHAR
STARTCHAR Ebreve.c2sc
ENCODING -1
SWIDTH 428 0
DWIDTH 3 0
BBX 4 6 0 0
BITMAP
2990
4981
7410
7A80
7300
7A92
ENDCHAR
STARTCHAR Edotaccent.c2sc
ENCODING -1
SWIDTH 428 0
DWIDTH 3 0
BBX 4 6 0 0
BITMAP
0620
4881
7410
7A80
7300
7A92
ENDCHAR
STARTCHAR Eogonek.c2sc
ENCODING -1
SWIDTH 428 0
DWIDTH 3 0
BBX 4 7 0 -2
BITMAP
4881
7410
7A80
7300
7A92
0180
0180
ENDCHAR
STARTCHAR Ecaron.c2sc
ENCODING -1
SWIDTH 428 0
DWIDTH 3 0
BBX 4 7 0 0
BITMAP
0110
0860
4881
7410
7A80
7300
7A92
ENDCHAR
STARTCHAR Gcircumflex.c2sc
ENCODING -1
SWIDTH 509 0
DWIDTH 4 0
BBX 4 6 0 0
BITMAP
0880
0781
6546
9143
8349
2A96
ENDCHAR
STARTCHAR Gbreve.c2sc
ENCODING -1
SWIDTH 509 0
DWIDTH 4 0
BBX 4 6 0 0
BITMAP
1991
0781
6546
9143
8349
2A96
ENDCHAR
STARTCHAR Gdotaccent.c2sc
ENCODING -1
SWIDTH 509 0
DWIDTH 4 0
BBX 4 6 0 0
BITMAP
0440
0781
6546
9143
8349
2A96
ENDCHAR
STARTCHAR uni0122.c2sc
ENCODING -1
SWIDTH 509 0
DWIDTH 4 0
BBX 4 7 0 -2
BITMAP
0781
6546
9143
8349
2A96
0330
0620
ENDCHAR
STARTCHAR Hcircumflex.c2sc
ENCODING -1
SWIDTH 533 0
DWIDTH 4 0
BBX 4 7 0 0
BITMAP
0010
0780
4206
730A
7A8B
741A
730A
ENDCHAR
STARTCHAR Itilde.c2sc
ENCODING -1
SWIDTH 221 0
DWIDTH 2 0
BBX 3 6 -1 0
BITMAP
2990
0420
0740
0740
0740
0740
ENDCHAR
STARTCHAR Imacron.c2sc
ENCODING -1
SWIDTH 221 0
DWIDTH 2 0
BBX 3 6 -1 0
BITMAP
2880
0420
0740
0740
0740
0740
ENDCHAR
STARTCHAR Ibreve.c2sc
ENCODING -1
SWIDTH 221 0
DWIDTH 2 0
BBX 3 6 -1 0
BITMAP
29A0
0420
0740
0740
0740
0740
ENDCHAR
STARTCHAR Iogonek.c2sc
ENCODING -1
SWIDTH 221 0
DWIDTH 2 0
BBX 2 7 0 -2
BITMAP
42
74
74
74
74
80
72
ENDCHAR
STARTCHAR Idotaccent.c2sc
ENCODING -1
SWIDTH 221 0
DWIDTH 2 0
BBX 2 6 0 0
BITMAP
52
42
74
74
74
74
ENDCHAR
STARTCHAR Jcircumflex.c2sc
ENCODING -1
SWIDTH 419 0
DWIDTH 3 0
BBX 4 7 0 0
BITMAP
0010
0393
0060
00A0
00A0
30A0
8A80
ENDCHAR
STARTCHAR uni0136.c2sc
ENCODING -1
SWIDTH 473 0
DWIDTH 4 0
BBX 4 7 0 -2
BITMAP
4234
74B1
7D40
76B0
7366
0510
0800
ENDCHAR
STARTCHAR Lacute.c2sc
ENCODING -1
SWIDTH 411 0
DWIDTH 3 0
BBX 4 7 0 0
BITMAP
0200
3800
4200
7300
7300
7300
7A91
ENDCHAR
STARTCHAR uni013B.c2sc
ENCODING -1
SWIDTH 411 0
DWIDTH 3 0
BBX 4 7 0 -2
BITMAP
4200
7300
7300
7300
7A91
0510
0800
ENDCHAR
STARTCHAR Lcaron.c2sc
ENCODING -1
SWIDTH 411 0
DWIDTH 3 0
BBX 4 5 0 0
BITMAP
4340
7750
7300
7300
7A91
ENDCHAR
STARTCHAR Ldot.c2sc
ENCODING -1
SWIDTH 411 0
DWIDTH 3 0
BBX 4 5 0 0
BITMAP
4200
7300
7550
7300
7A91
ENDCHAR
STARTCHAR Nacute.c2sc
ENCODING -1
SWIDTH 533 0
DWIDTH 4 0
BBX 4 7 0 0
BITMAP
0011
0190
4306
7B0A
785A
739A
733B
ENDCHAR
STARTCHAR uni0145.c2sc
ENCODING -1
SWIDTH 533 0
DWIDTH 4 0
BBX 4 7 0 -2
BITMAP
4306
7B0A
785A
739A
733B
0240
0530
ENDCHAR
STARTCHAR Ncaron.c2sc
ENCODING -1
SWIDTH 533 0
DWIDTH 4 0
BBX 4 7 0 0
BITMAP
0110
0680
4306
7B0A
785A
739A
733B
ENDCHAR
STARTCHAR Omacron.c2sc
ENCODING -1
SWIDTH 519 0
DWIDTH 4 0
BBX 4 6 0 0
BITMAP
0882
0771
5638
910A
821A
2AA3
ENDCHAR
STARTCHAR Obreve.c2sc
ENCODING -1
SWIDTH 519 0
DWIDTH 4 0
BBX 4 6 0 0
BITMAP
0A92
0781
5638
910A
821A
2AA3
ENDCHAR
STARTCHAR Ohungarumlaut.c2sc
ENCODING -1
SWIDTH 519 0
DWIDTH 4 0
BBX 4 7 0 0
BITMAP
0011
0793
0781
5638
910A
821A
2AA3
ENDCHAR
STARTCHAR Racute.c2sc
ENCODING -1
SWIDTH 465 0
DWIDTH 4 0
BBX 4 7 0 0
BITMAP
0020
0470
4860
7475
77A3
76B0
7365
ENDCHAR
STARTCHAR uni0156.c2sc
ENCODING -1
SWIDTH 465 0
DWIDTH 4 0
BBX 4 7 0 -2
BITMAP
4860
7475
77A3
76B0
7365
0510
0800
ENDCHAR
STARTCHAR Rcaron.c2sc
ENCODING -1
SWIDTH 465 0
DWIDTH 4 0
BBX 4 7 0 0
BITMAP
0110
0950
4860
7475
77A3
76B0
7365
ENDCHAR
STARTCHAR Sacute.c2sc
ENCODING -1
SWIDTH 453 0
DWIDTH 4 0
BBX 4 7 0 0
BITMAP
0020
0380
1860
8463
3B50
4094
5AB2
ENDCHAR
STARTCHAR Scircumflex.c2sc
ENCODING -1
SWIDTH 453 0
DWIDTH 4 0
BBX 4 7 0 0
BITMAP
0100
0870
1860
8463
3B50
4094
5AB2
ENDCHAR
STARTCHAR Scedilla.c2sc
ENCODING -1
SWIDTH 453 0
DWIDTH 4 0
BBX 4 7 0 -2
BITMAP
1860
8463
3B50
4094
5AB2
0460
0340
ENDCHAR
STARTCHAR Scaron.c2sc
ENCODING -1
SWIDTH 453 0
DWIDTH 4 0
BBX 4 7 0 0
BITMAP
0110
0860
1860
8463
3B50
4094
5AB2
ENDCHAR
STARTCHAR uni021A.c2sc
ENCODING -1
SWIDTH 456 0
DWIDTH 4 0
BBX 4 7 0 -2
BITMAP
7884
1830
0830
0830
0830
0410
0800
ENDCHAR
STARTCHAR Tcaron.c2sc
ENCODING -1
SWIDTH 456 0
DWIDTH 4 0
BBX 4 7 0 0
BITMAP
0110
0960
7884
1830
0830
0830
0830
ENDCHAR
STARTCHAR uni0162.c2sc
ENCODING -1
SWIDTH 456 0
DWIDTH 4 0
BBX 4 7 0 -2
BITMAP
7884
1830
0830
0830
0830
0450
0330
ENDCHAR
STARTCHAR Utilde.c2sc
ENCODING -1
SWIDTH 488 0
DWIDTH 4 0
BBX 4 6 0 0
BITMAP
1A90
5124
8237
8237
8237
4BB2
ENDCHAR
STARTCHAR Umacron.c2sc
ENCODING -1
SWIDTH 488 0
DWIDTH 4 0
BBX 4 6 0 0
BITMAP
1881
5124
8237
8237
8237
4BB2
ENDCHAR
STARTCHAR Ubreve.c2sc
ENCODING -1
SWIDTH 488 0
DWIDTH 4 0
BBX 4 6 0 0
BITMAP
19A1
5124
8237
8237
8237
4BB2
ENDCHAR
STARTCHAR Uring.c2sc
ENCODING -1
SWIDTH 488 0
DWIDTH 4 0
BBX 4 7 0 0
BITMAP
0330
0760
5124
8237
8237
8237
4BB2
ENDCHAR
STARTCHAR Uhungarumlaut.c2sc
ENCODING -1
SWIDTH 488 0
DWIDTH 4 0
BBX 4 7 0 0
BITMAP
0111
0992
5124
8237
8237
8237
4BB2
ENDCHAR
STARTCHAR Uogonek.c2sc
ENCODING -1
SWIDTH 488 0
DWIDTH 4 0
BBX 4 7 0 -2
BITMAP
5124
8237
8237
8237
4BB2
0450
0160
ENDCHAR
STARTCHAR Wcircumflex.c2sc
ENCODING -1
SWIDTH 655 0
DWIDTH 5 0
BBX 5 7 0 0
BITMAP
001000
029500
606050
82C3A0
568790
2C3B60
0D0A30
ENDCHAR
STARTCHAR Ycircumflex.c2sc
ENCODING -1
SWIDTH 458 0
DWIDTH 4 0
BBX 4 7 0 0
BITMAP
0100
1860
6033
65A1
0B90
0830
0830
ENDCHAR
STARTCHAR Ydieresis.c2sc
ENCODING -1
SWIDTH 458 0
DWIDTH 4 0
BBX 4 6 0 0
BITMAP
4470
6033
65A1
0B90
0830
0830
ENDCHAR
STARTCHAR Zacute.c2sc
ENCODING -1
SWIDTH 454 0
DWIDTH 4 0
BBX 4 7 0 0
BITMAP
0020
0370
6882
01A1
0740
2900
9A93
ENDCHAR
STARTCHAR Zdotaccent.c2sc
ENCODING -1
SWIDTH 454 0
DWIDTH 4 0
BBX 4 6 0 0
BITMAP
0620
6882
01A1
0740
2900
9A93
ENDCHAR
STARTCHAR Zcaron.c2sc
ENCODING -1
SWIDTH 454 0
DWIDTH 4 0
BBX 4 7 0 0
BITMAP
0110
0860
6882
01A1
0740
2900
9A93
ENDCHAR
STARTCHAR two.pnum
ENCODING -1
SWIDTH 493 0
DWIDTH 4 0
BBX 4 6 0 0
BITMAP
1991
8365
0073
0290
0A10
7C96
ENDCHAR
STARTCHAR three.pnum
ENCODING -1
SWIDTH 493 0
DWIDTH 4 0
BBX 4 6 0 0
BITMAP
1990
6364
02A2
04A2
4156
4AB2
ENDCHAR
STARTCHAR four.pnum
ENCODING -1
SWIDTH 493 0
DWIDTH 4 0
BBX 4 6 0 0
BITMAP
0091
04E1
0A91
5591
79D7
0091
ENDCHAR
STARTCHAR five.pnum
ENCODING -1
SWIDTH 493 0
DWIDTH 4 0
BBX 4 6 0 0
BITMAP
0AA5
2800
3B91
1257
3228
2BA3
ENDCHAR
STARTCHAR six.pnum
ENCODING -1
SWIDTH 503 0
DWIDTH 4 0
BBX 4 6 0 0
BITMAP
0490
1A00
5B91
6638
5629
1AA3
ENDCHAR
STARTCHAR eight.pnum
ENCODING -1
SWIDTH 513 0
DWIDTH 4 0
BBX 4 6 0 0
BITMAP
0891
5656
2983
2993
6438
2AA3
ENDCHAR
STARTCHAR nine.pnum
ENCODING -1
SWIDTH 503 0
DWIDTH 4 0
BBX 4 6 0 0
BITMAP
1980
7474
8256
4AB6
0073
0880
ENDCHAR
STARTCHAR zero.pnum
ENCODING -1
SWIDTH 513 0
DWIDTH 4 0
BBX 4 6 0 0
BITMAP
0891
5646
7328
7329
6437
1BA2
ENDCHAR
STARTCHAR G_acutecomb.ccmp
ENCODING -1
SWIDTH 590 0
DWIDTH 5 0
BBX 5 8 0 0
BITMAP
002200
008000
089600
560B10
730000
835B20
650830
1A9A10
ENDCHAR
STARTCHAR g_acutecomb.ccmp
ENCODING -1
SWIDTH 492 0
DWIDTH 4 0
BBX 4 8 0 -2
BITMAP
0290
0422
6897
9147
9247
4BA7
1165
1880
ENDCHAR
STARTCHAR N_gravecomb.ccmp
ENCODING -1
SWIDTH 619 0
DWIDTH 5 0
BBX 5 8 0 0
BITMAP
021000
037000
450430
6D1650
687650
659750
653D50
650A50
ENDCHAR
STARTCHAR n_gravecomb.ccmp
ENCODING -1
SWIDTH 483 0
DWIDTH 4 0
BBX 4 6 0 0
BITMAP
1A10
2340
79A3
7355
7355
7355
ENDCHAR
STARTCHAR A_uni030F.ccmp
ENCODING -1
SWIDTH 576 0
DWIDTH 5 0
BBX 5 8 0 0
BITMAP
111000
199000
017000
06C100
0A5500
1A3900
5A8C00
A10740
ENDCHAR
STARTCHAR a_uni030F.ccmp
ENCODING -1
SWIDTH 479 0
DWIDTH 4 0
BBX 4 6 0 0
BITMAP
5950
0440
48A2
07B4
7564
5BB5
ENDCHAR
STARTCHAR E_uni030F.ccmp
ENCODING -1
SWIDTH 496 0
DWIDTH 4 0
BBX 4 8 0 0
BITMAP
2210
2870
4A96
6500
6741
6962
6500
6B96
ENDCHAR
STARTCHAR e_uni030F.ccmp
ENCODING -1
SWIDTH 468 0
DWIDTH 4 0
BBX 4 6 0 0
BITMAP
6940
0440
5893
98A6
9311
3A92
ENDCHAR
STARTCHAR I_uni030F.ccmp
ENCODING -1
SWIDTH 250 0
DWIDTH 2 0
BBX 3 8 -1 0
BITMAP
2200
3860
0440
0550
0550
0550
0550
0550
ENDCHAR
STARTCHAR dotlessi_uni030F.ccmp
ENCODING -1
SWIDTH 234 0
DWIDTH 2 0
BBX 3 6 -1 0
BITMAP
6940
0320
0640
0640
0640
0640
ENDCHAR
STARTCHAR O_uni030F.ccmp
ENCODING -1
SWIDTH 600 0
DWIDTH 5 0
BBX 5 8 0 0
BITMAP
111000
099000
07A500
470A20
730640
830650
650830
1A9900
ENDCHAR
STARTCHAR o_uni030F.ccmp
ENCODING -1
SWIDTH 501 0
DWIDTH 4 0
BBX 4 6 0 0
BITMAP
5950
0440
5995
9119
9219
3AA3
ENDCHAR
STARTCHAR R_uni030F.ccmp
ENCODING -1
SWIDTH 530 0
DWIDTH 4 0
BBX 4 8 0 0
BITMAP
1110
2970
4A93
651B
651A
6BD3
6557
650B
ENDCHAR
STARTCHAR r_uni030F.ccmp
ENCODING -1
SWIDTH 304 0
DWIDTH 2 0
BBX 4 6 -1 0
BITMAP
1990
0241
07A2
0730
0730
0730
ENDCHAR
STARTCHAR U_uni030F.ccmp
ENCODING -1
SWIDTH 561 0
DWIDTH 5 0
BBX 4 8 0 0
BITMAP
1110
1980
5207
730B
730B
730B
740B
2B98
ENDCHAR
STARTCHAR u_uni030F.ccmp
ENCODING -1
SWIDTH 483 0
DWIDTH 4 0
BBX 4 6 0 0
BITMAP
6940
2221
8355
8355
7355
4BB5
ENDCHAR
STARTCHAR Upsilon1_acutecomb.ccmp
ENCODING -1
SWIDTH 514 0
DWIDTH 4 0
BBX 6 7 -1 0
BITMAP
200000
863081
01A380
009B20
003B00
001900
001900
ENDCHAR
STARTCHAR B_dotbelowcomb.ccmp
ENCODING -1
SWIDTH 545 0
DWIDTH 4 0
BBX 4 8 0 -2
BITMAP
4A93
651B
6868
6868
650B
6BA7
0230
0120
ENDCHAR
STARTCHAR b_dotbelowcomb.ccmp
ENCODING -1
SWIDTH 493 0
DWIDTH 4 0
BBX 4 8 0 -2
BITMAP
7300
7530
7995
7328
7328
7AB3
0230
0220
ENDCHAR
STARTCHAR D_dotbelowcomb.ccmp
ENCODING -1
SWIDTH 570 0
DWIDTH 5 0
BBX 5 8 0 -2
BITMAP
4A9200
651A00
650A00
650A10
650B00
6BA500
023000
012000
ENDCHAR
STARTCHAR d_dotbelowcomb.ccmp
ENCODING -1
SWIDTH 496 0
DWIDTH 4 0
BBX 4 8 0 -2
BITMAP
0046
0356
6896
9146
9246
4AA6
0230
0120
ENDCHAR
STARTCHAR D_uniF6C3.ccmp
ENCODING -1
SWIDTH 570 0
DWIDTH 5 0
BBX 5 8 0 -2
BITMAP
4A9200
651A00
650A00
650A10
650B00
6BA500
024000
053000
ENDCHAR
STARTCHAR d_uniF6C3.ccmp
ENCODING -1
SWIDTH 496 0
DWIDTH 4 0
BBX 4 8 0 -2
BITMAP
0046
0356
6896
9146
9246
4AA6
0240
0530
ENDCHAR
STARTCHAR H_dotbelowcomb.ccmp
ENCODING -1
SWIDTH 620 0
DWIDTH 5 0
BBX 5 8 0 -2
BITMAP
430440
650650
674850
696950
650650
650650
005000
003000
ENDCHAR
STARTCHAR h_dotbelowcomb.ccmp
ENCODING -1
SWIDTH 482 0
DWIDTH 4 0
BBX 4 8 0 -2
BITMAP
7300
7430
79A3
7355
7355
7355
0320
0110
ENDCHAR
STARTCHAR K_acutecomb.ccmp
ENCODING -1
SWIDTH 544 0
DWIDTH 4 0
BBX 5 8 0 0
BITMAP
002100
019000
430800
658500
699000
6CB000
656600
650B10
ENDCHAR
STARTCHAR k_acutecomb.ccmp
ENCODING -1
SWIDTH 450 0
DWIDTH 4 0
BBX 4 8 0 0
BITMAP
0030
0360
7300
7321
75A0
7D30
7790
7383
ENDCHAR
STARTCHAR K_dotbelowcomb.ccmp
ENCODING -1
SWIDTH 544 0
DWIDTH 4 0
BBX 5 7 0 -1
BITMAP
430800
658500
699000
6CB000
656600
650B10
017000
ENDCHAR
STARTCHAR k_dotbelowcomb.ccmp
ENCODING -1
SWIDTH 450 0
DWIDTH 4 0
BBX 4 7 0 -1
BITMAP
7300
7321
75A0
7D30
7790
7383
0620
ENDCHAR
STARTCHAR L_dotbelowcomb.ccmp
ENCODING -1
SWIDTH 475 0
DWIDTH 4 0
BBX 4 8 0 -2
BITMAP
4300
6500
6500
6500
6500
6B95
0230
0120
ENDCHAR
STARTCHAR l_dotbelowcomb.ccmp
ENCODING -1
SWIDTH 229 0
DWIDTH 2 0
BBX 2 8 0 -2
BITMAP
64
64
64
64
64
64
32
21
ENDCHAR
STARTCHAR M_dotbelowcomb.ccmp
ENCODING -1
SWIDTH 755 0
DWIDTH 6 0
BBX 6 8 0 -2
BITMAP
470064
6D00D6
6B33B6
668866
659A46
656746
003200
001100
ENDCHAR
STARTCHAR m_dotbelowcomb.ccmp
ENCODING -1
SWIDTH 752 0
DWIDTH 6 0
BBX 6 7 0 -2
BITMAP
223140
78AA95
735537
735538
735538
003200
001100
ENDCHAR
STARTCHAR N_dotbelowcomb.ccmp
ENCODING -1
SWIDTH 619 0
DWIDTH 5 0
BBX 5 8 0 -2
BITMAP
450430
6D1650
687650
659750
653D50
650A50
005000
003000
ENDCHAR
STARTCHAR n_dotbelowcomb.ccmp
ENCODING -1
SWIDTH 483 0
DWIDTH 4 0
BBX 4 7 0 -2
BITMAP
2230
79A3
7355
7355
7355
0320
0210
ENDCHAR
STARTCHAR O_tildecomb_acutecomb.ccmp
ENCODING -1
SWIDTH 600 0
DWIDTH 5 0
BBX 5 8 0 0
BITMAP
007000
037200
07A500
470A20
730640
830650
650830
1A9900
ENDCHAR
STARTCHAR P_acutecomb.ccmp
ENCODING -1
SWIDTH 554 0
DWIDTH 4 0
BBX 5 8 0 0
BITMAP
003100
018000
4A9400
650B10
650B10
6B9600
650000
650000
ENDCHAR
STARTCHAR p_acutecomb.ccmp
ENCODING -1
SWIDTH 493 0
DWIDTH 4 0
BBX 4 8 0 -2
BITMAP
0091
2250
7895
7328
7328
7AB3
7300
5200
ENDCHAR
STARTCHAR R_dotbelowcomb.ccmp
ENCODING -1
SWIDTH 530 0
DWIDTH 4 0
BBX 4 8 0 -2
BITMAP
4A93
651B
651A
6BD3
6557
650B
0230
0120
ENDCHAR
STARTCHAR r_dotbelowcomb.ccmp
ENCODING -1
SWIDTH 304 0
DWIDTH 2 0
BBX 3 7 0 -2
BITMAP
2310
7A20
7300
7300
7300
3200
2100
ENDCHAR
STARTCHAR S_dotbelowcomb.ccmp
ENCODING -1
SWIDTH 518 0
DWIDTH 4 0
BBX 4 8 0 -2
BITMAP
1992
751A
4A20
03A6
610B
3AA7
0130
0120
ENDCHAR
STARTCHAR s_dotbelowcomb.ccmp
ENCODING -1
SWIDTH 455 0
DWIDTH 4 0
BBX 4 7 0 -2
BITMAP
0320
58B1
4A30
22A2
5AB1
0320
0210
ENDCHAR
STARTCHAR T_dotbelowcomb.ccmp
ENCODING -1
SWIDTH 520 0
DWIDTH 4 0
BBX 4 8 0 -2
BITMAP
79A9
0470
0470
0470
0470
0470
0230
0120
ENDCHAR
STARTCHAR t_dotbelowcomb.ccmp
ENCODING -1
SWIDTH 295 0
DWIDTH 2 0
BBX 3 8 0 -2
BITMAP
1200
6800
7900
4600
4600
2B10
0500
0300
ENDCHAR
STARTCHAR U_tildecomb_acutecomb.ccmp
ENCODING -1
SWIDTH 561 0
DWIDTH 5 0
BBX 4 8 0 0
BITMAP
0070
0471
5207
730B
730B
730B
740B
2B98
ENDCHAR
STARTCHAR V_tildecomb.ccmp
ENCODING -1
SWIDTH 560 0
DWIDTH 4 0
BBX 5 8 0 0
BITMAP
010100
089300
710620
740B00
281A00
0A5500
08B100
03B000
ENDCHAR
STARTCHAR v_tildecomb.ccmp
ENCODING -1
SWIDTH 427 0
DWIDTH 3 0
BBX 4 6 0 0
BITMAP
3980
3021
9191
4590
1B60
0A20
ENDCHAR
STARTCHAR V_dotbelowcomb.ccmp
ENCODING -1
SWIDTH 560 0
DWIDTH 4 0
BBX 5 8 0 -2
BITMAP
710620
740B00
281A00
0A5500
08B100
03B000
014000
002000
ENDCHAR
STARTCHAR v_dotbelowcomb.ccmp
ENCODING -1
SWIDTH 427 0
DWIDTH 3 0
BBX 4 7 0 -2
BITMAP
2021
9191
4590
1B60
0A20
0410
0300
ENDCHAR
STARTCHAR W_dotbelowcomb.ccmp
ENCODING -1
SWIDTH 761 0
DWIDTH 6 0
BBX 6 8 0 -2
BITMAP
713507
73791A
469937
199784
0C64D1
0A30C0
002300
001200
ENDCHAR
STARTCHAR w_dotbelowcomb.ccmp
ENCODING -1
SWIDTH 649 0
DWIDTH 5 0
BBX 5 7 0 -2
BITMAP
202020
91D1A0
66B680
2D3C50
0C0B10
005000
003000
ENDCHAR
STARTCHAR Z_dotbelowcomb.ccmp
ENCODING -1
SWIDTH 522 0
DWIDTH 4 0
BBX 4 8 0 -2
BITMAP
6998
0066
01B0
0840
2A00
9B98
0230
0120
ENDCHAR
STARTCHAR z_dotbelowcomb.ccmp
ENCODING -1
SWIDTH 438 0
DWIDTH 4 0
BBX 4 7 0 -2
BITMAP
2440
36D1
0650
1A00
8B92
0410
0200
ENDCHAR
STARTCHAR Alphatonos.c2sc
ENCODING -1
SWIDTH 501 0
DWIDTH 4 0
BBX 4 6 0 0
BITMAP
0100
6630
1990
1991
5BB5
A10A
ENDCHAR
STARTCHAR Epsilontonos.c2sc
ENCODING -1
SWIDTH 458 0
DWIDTH 4 0
BBX 5 6 -1 0
BITMAP
110000
748830
147100
04C910
047000
04C940
ENDCHAR
STARTCHAR Etatonos.c2sc
ENCODING -1
SWIDTH 562 0
DWIDTH 5 0
BBX 5 6 -1 0
BITMAP
010000
564060
1470A0
04B8D0
0471B0
0470A0
ENDCHAR
STARTCHAR Iotatonos.c2sc
ENCODING -1
SWIDTH 250 0
DWIDTH 2 0
BBX 3 6 -1 0
BITMAP
0100
5540
1370
0370
0370
0370
ENDCHAR
STARTCHAR Omicrontonos.c2sc
ENCODING -1
SWIDTH 523 0
DWIDTH 4 0
BBX 5 6 -1 0
BITMAP
010000
186810
066390
0820A0
0730A0
02AA40
ENDCHAR
STARTCHAR Upsilontonos.c2sc
ENCODING -1
SWIDTH 487 0
DWIDTH 4 0
BBX 5 6 -1 0
BITMAP
100000
842150
139740
00AB00
005700
004600
ENDCHAR
STARTCHAR Omegatonos.c2sc
ENCODING -1
SWIDTH 545 0
DWIDTH 4 0
BBX 4 6 0 0
BITMAP
1000
8681
572A
730A
550A
5D7B
ENDCHAR
STARTCHAR Alpha.c2sc
ENCODING -1
SWIDTH 501 0
DWIDTH 4 0
BBX 4 5 0 0
BITMAP
0330
0990
1991
5BB5
A10A
ENDCHAR
STARTCHAR Beta.c2sc
ENCODING -1
SWIDTH 475 0
DWIDTH 4 0
BBX 4 5 0 0
BITMAP
4860
7484
7AC1
7365
7AB2
ENDCHAR
STARTCHAR Epsilon.c2sc
ENCODING -1
SWIDTH 428 0
DWIDTH 3 0
BBX 4 5 0 0
BITMAP
4881
7410
7A80
7300
7A92
ENDCHAR
STARTCHAR Zeta.c2sc
ENCODING -1
SWIDTH 454 0
DWIDTH 4 0
BBX 4 5 0 0
BITMAP
6882
01A1
0740
2900
9A93
ENDCHAR
STARTCHAR Eta.c2sc
ENCODING -1
SWIDTH 533 0
DWIDTH 4 0
BBX 4 5 0 0
BITMAP
4206
730A
7A8B
741A
730A
ENDCHAR
STARTCHAR Iota.c2sc
ENCODING -1
SWIDTH 221 0
DWIDTH 2 0
BBX 2 5 0 0
BITMAP
42
74
74
74
74
ENDCHAR
STARTCHAR Kappa.c2sc
ENCODING -1
SWIDTH 473 0
DWIDTH 4 0
BBX 4 5 0 0
BITMAP
4234
74B1
7D40
76B0
7366
ENDCHAR
STARTCHAR Mu.c2sc
ENCODING -1
SWIDTH 652 0
DWIDTH 5 0
BBX 5 5 0 0
BITMAP
440260
7B08A0
7A29A0
76A6A0
73C1A0
ENDCHAR
STARTCHAR Nu.c2sc
ENCODING -1
SWIDTH 533 0
DWIDTH 4 0
BBX 4 5 0 0
BITMAP
4306
7B0A
785A
739A
733B
ENDCHAR
STARTCHAR Omicron.c2sc
ENCODING -1
SWIDTH 519 0
DWIDTH 4 0
BBX 4 5 0 0
BITMAP
0771
5638
910A
821A
2AA3
ENDCHAR
STARTCHAR Rho.c2sc
ENCODING -1
SWIDTH 481 0
DWIDTH 4 0
BBX 4 5 0 0
BITMAP
4871
7457
7786
7630
7300
ENDCHAR
STARTCHAR Tau.c2sc
ENCODING -1
SWIDTH 456 0
DWIDTH 4 0
BBX 4 5 0 0
BITMAP
7884
1830
0830
0830
0830
ENDCHAR
STARTCHAR Upsilon.c2sc
ENCODING -1
SWIDTH 458 0
DWIDTH 4 0
BBX 4 5 0 0
BITMAP
6033
65A1
0B90
0830
0830
ENDCHAR
STARTCHAR Chi.c2sc
ENCODING -1
SWIDTH 478 0
DWIDTH 4 0
BBX 4 5 0 0
BITMAP
5134
38A1
0A70
1BA0
8475
ENDCHAR
STARTCHAR Iotadieresis.c2sc
ENCODING -1
SWIDTH 221 0
DWIDTH 2 0
BBX 4 6 -1 0
BITMAP
3471
0420
0740
0740
0740
0740
ENDCHAR
STARTCHAR Upsilondieresis.c2sc
ENCODING -1
SWIDTH 458 0
DWIDTH 4 0
BBX 4 6 0 0
BITMAP
4470
6033
65A1
0B90
0830
0830
ENDCHAR
STARTCHAR uni0401.c2sc
ENCODING -1
SWIDTH 428 0
DWIDTH 3 0
BBX 4 6 0 0
BITMAP
4471
4881
7410
7A80
7300
7A92
ENDCHAR
STARTCHAR uni0403.c2sc
ENCODING -1
SWIDTH 405 0
DWIDTH 3 0
BBX 3 7 0 0
BITMAP
0020
0370
4880
7410
7300
7300
7300
ENDCHAR
STARTCHAR uni0405.c2sc
ENCODING -1
SWIDTH 453 0
DWIDTH 4 0
BBX 4 5 0 0
BITMAP
1860
8463
3B50
4094
5AB2
ENDCHAR
STARTCHAR uni0406.c2sc
ENCODING -1
SWIDTH 221 0
DWIDTH 2 0
BBX 2 5 0 0
BITMAP
42
74
74
74
74
ENDCHAR
STARTCHAR uni0407.c2sc
ENCODING -1
SWIDTH 221 0
DWIDTH 2 0
BBX 4 6 -1 0
BITMAP
3471
0420
0740
0740
0740
0740
ENDCHAR
STARTCHAR uni0408.c2sc
ENCODING -1
SWIDTH 419 0
DWIDTH 3 0
BBX 3 5 0 0
BITMAP
0060
00A0
00A0
30A0
8A80
ENDCHAR
STARTCHAR uni040C.c2sc
ENCODING -1
SWIDTH 473 0
DWIDTH 4 0
BBX 4 7 0 0
BITMAP
0020
0470
4234
74B1
7D40
76B0
7366
ENDCHAR
STARTCHAR uni040E.c2sc
ENCODING -1
SWIDTH 454 0
DWIDTH 4 0
BBX 4 6 0 0
BITMAP
3990
6133
7592
19A0
0B60
2B10
ENDCHAR
STARTCHAR uni0410.c2sc
ENCODING -1
SWIDTH 501 0
DWIDTH 4 0
BBX 4 5 0 0
BITMAP
0330
0990
1991
5BB5
A10A
ENDCHAR
STARTCHAR uni0412.c2sc
ENCODING -1
SWIDTH 475 0
DWIDTH 4 0
BBX 4 5 0 0
BITMAP
4860
7484
7AC1
7365
7AB2
ENDCHAR
STARTCHAR uni0413.c2sc
ENCODING -1
SWIDTH 405 0
DWIDTH 3 0
BBX 3 5 0 0
BITMAP
4880
7410
7300
7300
7300
ENDCHAR
STARTCHAR uni0415.c2sc
ENCODING -1
SWIDTH 428 0
DWIDTH 3 0
BBX 4 5 0 0
BITMAP
4881
7410
7A80
7300
7A92
ENDCHAR
STARTCHAR uni0419.c2sc
ENCODING -1
SWIDTH 537 0
DWIDTH 4 0
BBX 4 6 0 0
BITMAP
0992
4216
737B
759A
7C1A
770A
ENDCHAR
STARTCHAR uni041C.c2sc
ENCODING -1
SWIDTH 652 0
DWIDTH 5 0
BBX 5 5 0 0
BITMAP
440260
7B08A0
7A29A0
76A6A0
73C1A0
ENDCHAR
STARTCHAR uni041D.c2sc
ENCODING -1
SWIDTH 533 0
DWIDTH 4 0
BBX 4 5 0 0
BITMAP
4206
730A
7A8B
741A
730A
ENDCHAR
STARTCHAR uni041E.c2sc
ENCODING -1
SWIDTH 519 0
DWIDTH 4 0
BBX 4 5 0 0
BITMAP
0771
5638
910A
821A
2AA3
ENDCHAR
STARTCHAR uni041F.c2sc
ENCODING -1
SWIDTH 525 0
DWIDTH 4 0
BBX 4 5 0 0
BITMAP
4886
741A
730A
730A
730A
ENDCHAR
STARTCHAR uni0420.c2sc
ENCODING -1
SWIDTH 481 0
DWIDTH 4 0
BBX 4 5 0 0
BITMAP
4871
7457
7786
7630
7300
ENDCHAR
STARTCHAR uni0421.c2sc
ENCODING -1
SWIDTH 490 0
DWIDTH 4 0
BBX 4 5 0 0
BITMAP
0781
6547
9100
8214
2AA4
ENDCHAR
STARTCHAR uni0422.c2sc
ENCODING -1
SWIDTH 456 0
DWIDTH 4 0
BBX 4 5 0 0
BITMAP
7884
1830
0830
0830
0830
ENDCHAR
STARTCHAR uni0425.c2sc
ENCODING -1
SWIDTH 478 0
DWIDTH 4 0
BBX 4 5 0 0
BITMAP
5134
38A1
0A70
1BA0
8475
ENDCHAR
STARTCHAR uni0498.c2sc
ENCODING -1
SWIDTH 466 0
DWIDTH 4 0
BBX 4 7 0 -2
BITMAP
2860
5293
06B0
3083
6AA1
0910
0610
ENDCHAR
STARTCHAR uni04A2.c2sc
ENCODING -1
SWIDTH 533 0
DWIDTH 4 0
BBX 5 7 0 -2
BITMAP
420600
730A00
7A8B00
741A00
730D30
000550
000220
ENDCHAR
STARTCHAR uni04AA.c2sc
ENCODING -1
SWIDTH 490 0
DWIDTH 4 0
BBX 4 7 0 -2
BITMAP
0781
6547
9100
8214
2AA4
0550
0340
ENDCHAR
STARTCHAR uni04AE.c2sc
ENCODING -1
SWIDTH 458 0
DWIDTH 4 0
BBX 4 5 0 0
BITMAP
6033
65A1
0B90
0830
0830
ENDCHAR
STARTCHAR uni04BE.c2sc
ENCODING -1
SWIDTH 632 0
DWIDTH 5 0
BBX 5 7 0 -2
BITMAP
017710
483470
8D99A0
0A1000
03CB10
004600
003400
ENDCHAR
STARTCHAR uni04E2.c2sc
ENCODING -1
SWIDTH 537 0
DWIDTH 4 0
BBX 4 6 0 0
BITMAP
0883
4216
737B
759A
7C1A
770A
ENDCHAR
STARTCHAR uni04EE.c2sc
ENCODING -1
SWIDTH 454 0
DWIDTH 4 0
BBX 4 6 0 0
BITMAP
2880
6133
7592
19A0
0B60
2B10
ENDCHAR
STARTCHAR uni0424.c2sc
ENCODING -1
SWIDTH 587 0
DWIDTH 5 0
BBX 5 5 0 0
BITMAP
006000
3ADA00
82A640
65B920
06D400
ENDCHAR
STARTCHAR IJ.c2sc
ENCODING -1
SWIDTH 641 0
DWIDTH 5 0
BBX 5 5 0 0
BITMAP
420050
7400A0
7400A0
7431A0
74AA50
ENDCHAR
STARTCHAR AEacute.c2sc
ENCODING -1
SWIDTH 676 0
DWIDTH 5 0
BBX 6 6 0 0
BITMAP
001A10
008980
04C400
096B70
3CB500
915B91
ENDCHAR
STARTCHAR Oslashacute.c2sc
ENCODING -1
SWIDTH 519 0
DWIDTH 4 0
BBX 4 8 0 -1
BITMAP
0010
0190
0785
5688
937A
8A1A
4CA3
2000
ENDCHAR
STARTCHAR uni0218.c2sc
ENCODING -1
SWIDTH 453 0
DWIDTH 4 0
BBX 4 7 0 -2
BITMAP
1860
8463
3B50
4094
5AB2
0420
0710
ENDCHAR
STARTCHAR Wgrave.c2sc
ENCODING -1
SWIDTH 655 0
DWIDTH 5 0
BBX 5 7 0 0
BITMAP
011000
029000
606050
82C3A0
568790
2C3B60
0D0A30
ENDCHAR
STARTCHAR Wacute.c2sc
ENCODING -1
SWIDTH 655 0
DWIDTH 5 0
BBX 5 7 0 0
BITMAP
000200
006500
606050
82C3A0
568790
2C3B60
0D0A30
ENDCHAR
STARTCHAR Wdieresis.c2sc
ENCODING -1
SWIDTH 655 0
DWIDTH 5 0
BBX 5 6 0 0
BITMAP
062800
606050
82C3A0
568790
2C3B60
0D0A30
ENDCHAR
STARTCHAR Ygrave.c2sc
ENCODING -1
SWIDTH 458 0
DWIDTH 4 0
BBX 4 7 0 0
BITMAP
1100
1A10
6033
65A1
0B90
0830
0830
ENDCHAR
STARTCHAR Aogonek.locl
ENCODING -1
SWIDTH 576 0
DWIDTH 5 0
BBX 5 8 0 -2
BITMAP
017000
06C100
0A5500
1A3900
5A8C00
A11740
054000
035000
ENDCHAR
STARTCHAR aogonek.locl
ENCODING -1
SWIDTH 479 0
DWIDTH 4 0
BBX 4 7 0 -2
BITMAP
0330
48A2
07B4
7564
5BB5
1900
0800
ENDCHAR
STARTCHAR Eogonek.locl
ENCODING -1
SWIDTH 496 0
DWIDTH 4 0
BBX 4 8 0 -2
BITMAP
4A96
6500
6741
6962
6500
6BA6
0810
0530
ENDCHAR
STARTCHAR eogonek.locl
ENCODING -1
SWIDTH 468 0
DWIDTH 4 0
BBX 4 7 0 -2
BITMAP
0330
5893
98A6
9311
3BA2
0910
0720
ENDCHAR
STARTCHAR Aogonek.c2sc.locl
ENCODING -1
SWIDTH 501 0
DWIDTH 4 0
BBX 4 7 0 -2
BITMAP
0330
0990
1991
5BB5
A11A
0810
0630
ENDCHAR
STARTCHAR Eogonek.c2sc.locl
ENCODING -1
SWIDTH 428 0
DWIDTH 3 0
BBX 4 7 0 -2
BITMAP
4881
7410
7A80
7300
7B92
0900
0710
ENDCHAR
STARTCHAR glyph1293
ENCODING -1
SWIDTH 234 0
DWIDTH 2 0
BBX 2 7 0 -2
BITMAP
11
64
64
64
64
32
21
ENDCHAR
ENDFONT
